<svg width="95" height="80" viewBox="0 0 95 80" fill="none" xmlns="http://www.w3.org/2000/svg">
<path d="M35.6159 75.4901L27.364 67.316C25.9582 65.9235 27.3026 63.074 29.2295 62.6245C37.1309 60.7814 41.5226 52.5052 45.5656 47.2102L45.5924 47.1751C50.6105 40.6031 51.0483 40.0298 63.5471 37.5774C70.0071 36.3099 73.4165 32.9781 75.0471 29.9084C75.8719 28.3555 78.3848 27.5276 79.6241 28.775L86.7073 35.9039C87.1651 36.3647 87.3786 37.0227 87.2266 37.6542C85.0556 46.6767 76.05 50.1329 71.6692 50.7341C65.7407 51.6577 60.9805 53.2595 54.7205 63.7481C48.8517 73.5811 40.8051 76 36.8668 76.0295C36.3944 76.0331 35.9515 75.8226 35.6159 75.4901Z" fill="#D2492A"/>
<path fill-rule="evenodd" clip-rule="evenodd" d="M45.5924 47.1751L45.5656 47.2102C44.8425 48.1572 44.1082 49.1995 43.3448 50.2834C39.8394 55.2598 35.7177 61.111 29.2295 62.6245C27.3026 63.074 25.9582 65.9235 27.3639 67.316L35.6158 75.4901L34.2083 76.911L25.9564 68.7369C24.4486 67.2433 24.6281 65.1927 25.2067 63.8333C25.7898 62.4635 27.0388 61.0818 28.7752 60.6768C32.1411 59.8916 34.8733 57.7132 37.3392 54.8948C38.5675 53.491 39.6962 51.9678 40.7896 50.4329C41.0884 50.0134 41.3877 49.5885 41.6865 49.1644C42.459 48.0678 43.228 46.9761 43.976 45.9965C43.976 45.9965 43.976 45.9964 43.976 45.9964L44.0028 45.9614L44.0028 45.9613C44.0624 45.8832 44.1216 45.8058 44.1802 45.7289C46.5265 42.6548 48.1276 40.5571 50.7966 39.0812C53.4276 37.6263 57.0085 36.8222 63.162 35.6149C69.038 34.462 71.9362 31.5015 73.2808 28.9702C73.9974 27.621 75.335 26.7269 76.6469 26.364C77.9511 26.0032 79.7384 26.0525 81.0428 27.3653L88.126 34.4943C89.0239 35.398 89.501 36.7509 89.1711 38.1221L87.2266 37.6542C87.3786 37.0227 87.1651 36.3648 86.7073 35.904L79.6241 28.775C78.3847 27.5276 75.8719 28.3555 75.047 29.9084C73.4165 32.9781 70.0071 36.31 63.5471 37.5774C51.0482 40.0298 50.6105 40.6031 45.5924 47.1751ZM71.9598 52.7129C69.1031 53.1588 66.7812 53.7344 64.4361 55.3133C62.058 56.9143 59.4856 59.6665 56.4378 64.7732C50.2049 75.2163 41.507 77.9949 36.8818 78.0295C35.7929 78.0376 34.858 77.5545 34.2083 76.911L35.6158 75.4901C35.9515 75.8226 36.3943 76.0331 36.8668 76.0295C40.805 76.0001 48.8517 73.5811 54.7204 63.7482C60.9805 53.2595 65.7407 51.6577 71.6691 50.7341C76.05 50.1329 85.0555 46.6767 87.2266 37.6542L89.1711 38.1221C87.9414 43.2325 84.7719 46.7368 81.3934 49.0112C78.0516 51.261 74.4191 52.3723 71.9598 52.7129Z" fill="#9B0D0D"/>
<path d="M63.5471 37.5774C70.0071 36.3099 73.4165 32.9781 75.0471 29.9084C75.8719 28.3555 78.3848 27.5276 79.6241 28.775L81.3049 30.4667C81.6772 30.8414 81.8939 31.3501 81.8592 31.8771C81.2321 41.3989 69.8545 46.5198 64.7501 47.2102C59.5 47.9203 52.6251 44.5001 45.5656 55.7501C40.5027 63.8184 33.9671 67.7139 30.4823 68.9951C29.8218 69.2379 29.0979 69.0336 28.598 68.5384L27.364 67.316C25.9582 65.9235 27.3026 63.074 29.2295 62.6245C37.1309 60.7814 41.5226 52.5052 45.5656 47.2102L45.5924 47.1751C50.6105 40.6031 51.0483 40.0298 63.5471 37.5774Z" fill="#B0351A"/>
<path d="M75.8707 43.6579C75.3886 44.0219 74.7533 43.9932 74.4517 43.5937C74.1501 43.1943 74.2964 42.5754 74.7785 42.2114C75.2606 41.8474 75.8959 41.8761 76.1975 42.2756C76.4991 42.675 76.3528 43.2939 75.8707 43.6579Z" fill="#A42F15"/>
<path d="M75.3491 40.3096C74.867 40.6736 74.2317 40.6449 73.9301 40.2454C73.6285 39.846 73.7748 39.2271 74.2569 38.8631C74.739 38.4991 75.3743 38.5278 75.6759 38.9273C75.9775 39.3267 75.8312 39.9456 75.3491 40.3096Z" fill="#A42F15"/>
<path d="M71.9774 44.8553C71.4953 45.2193 70.86 45.1906 70.5584 44.7912C70.2568 44.3918 70.4031 43.7729 70.8852 43.4089C71.3673 43.0449 72.0026 43.0736 72.3042 43.473C72.6058 43.8724 72.4595 44.4913 71.9774 44.8553Z" fill="#A42F15"/>
<path d="M74.8288 47.1211C74.3468 47.4851 73.7115 47.4564 73.4099 47.057C73.1083 46.6576 73.2546 46.0387 73.7366 45.6747C74.2187 45.3107 74.854 45.3394 75.1556 45.7388C75.4572 46.1383 75.3109 46.7571 74.8288 47.1211Z" fill="#A42F15"/>
<path d="M79.2249 41.1475C78.5487 41.6581 77.6575 41.6178 77.2345 41.0575C76.8114 40.4972 77.0166 39.629 77.6928 39.1184C78.369 38.6078 79.2602 38.6481 79.6833 39.2084C80.1064 39.7687 79.9011 40.6369 79.2249 41.1475Z" fill="#A42F15"/>
<path d="M79.1182 45.3451C78.442 45.8557 77.5508 45.8154 77.1278 45.2551C76.7047 44.6948 76.9099 43.8267 77.5861 43.3161C78.2624 42.8055 79.1535 42.8458 79.5766 43.4061C79.9997 43.9664 79.7944 44.8345 79.1182 45.3451Z" fill="#A42F15"/>
<path d="M83.4476 41.2411C82.7713 41.7517 81.8802 41.7114 81.4571 41.1511C81.034 40.5908 81.2393 39.7227 81.9155 39.2121C82.5917 38.7015 83.4829 38.7418 83.9059 39.3021C84.329 39.8624 84.1238 40.7305 83.4476 41.2411Z" fill="#A42F15"/>
<path d="M81.5302 37.8612C81.1655 38.1366 80.6848 38.1149 80.4566 37.8127C80.2283 37.5104 80.339 37.0422 80.7038 36.7667C81.0686 36.4913 81.5493 36.513 81.7775 36.8153C82.0057 37.1175 81.895 37.5858 81.5302 37.8612Z" fill="#A42F15"/>
<path d="M81.3507 35.4223C80.9859 35.6977 80.5052 35.676 80.277 35.3737C80.0488 35.0715 80.1595 34.6032 80.5242 34.3278C80.889 34.0524 81.3697 34.0741 81.5979 34.3763C81.8261 34.6786 81.7154 35.1468 81.3507 35.4223Z" fill="#A42F15"/>
<path d="M78.7862 37.497C78.4214 37.7725 77.9407 37.7507 77.7125 37.4485C77.4843 37.1463 77.595 36.678 77.9598 36.4026C78.3245 36.1271 78.8052 36.1489 79.0334 36.4511C79.2617 36.7533 79.151 37.2216 78.7862 37.497Z" fill="#A42F15"/>
<path d="M76.4157 34.9679C76.051 35.2433 75.5703 35.2216 75.3421 34.9194C75.1138 34.6171 75.2245 34.1488 75.5893 33.8734C75.9541 33.598 76.4348 33.6197 76.663 33.922C76.8912 34.2242 76.7805 34.6925 76.4157 34.9679Z" fill="#A42F15"/>
<path d="M70.2983 48.2804C69.9335 48.5558 69.4528 48.5341 69.2246 48.2319C68.9964 47.9296 69.1071 47.4613 69.4719 47.1859C69.8366 46.9105 70.3173 46.9322 70.5455 47.2345C70.7737 47.5367 70.663 48.005 70.2983 48.2804Z" fill="#A42F15"/>
<path d="M72.1435 39.6049C71.7787 39.8803 71.298 39.8586 71.0698 39.5563C70.8416 39.2541 70.9523 38.7858 71.3171 38.5104C71.6818 38.235 72.1625 38.2567 72.3907 38.5589C72.619 38.8612 72.5083 39.3294 72.1435 39.6049Z" fill="#A42F15"/>
<path fill-rule="evenodd" clip-rule="evenodd" d="M49.3563 45.0304C50.1116 44.2244 51.3773 44.1833 52.1832 44.9387L59.3308 51.637C60.1367 52.3923 60.1778 53.658 59.4225 54.4639C58.6672 55.2699 57.4015 55.311 56.5955 54.5557L49.448 47.8573C48.642 47.102 48.601 45.8363 49.3563 45.0304Z" fill="#E05739"/>
<path fill-rule="evenodd" clip-rule="evenodd" d="M30.3826 64.4181C31.1471 63.6209 32.4132 63.5942 33.2104 64.3587L39.6799 70.5618C40.4772 71.3262 40.5038 72.5923 39.7394 73.3896C38.9749 74.1869 37.7088 74.2135 36.9115 73.449L30.4421 67.2459C29.6448 66.4815 29.6182 65.2154 30.3826 64.4181Z" fill="#E05739"/>
<path fill-rule="evenodd" clip-rule="evenodd" d="M83.5431 36.1244C84.0285 36.3877 84.2087 36.9947 83.9454 37.4802C80.808 43.2657 76.6315 46.1657 71.0022 47.4226C69.4978 47.7585 68.2172 47.9958 67.066 48.2091C63.989 48.7794 61.8369 49.1782 58.8074 50.83C56.883 51.8793 55.5077 53.6429 53.9724 56.0402C53.6102 56.6058 53.2396 57.2062 52.8517 57.8344C51.6256 59.8201 50.2279 62.0837 48.385 64.4042C44.5558 69.2254 40.2847 71.1478 37.2453 72.21C36.724 72.3922 36.1536 72.1172 35.9714 71.5959C35.7892 71.0745 36.0642 70.5041 36.5855 70.3219C39.425 69.3296 43.3104 67.5777 46.8189 63.1603C48.581 60.9416 49.8921 58.8187 51.1075 56.8508C51.5072 56.2036 51.8966 55.5732 52.2882 54.9617C53.8426 52.5345 55.4469 50.3844 57.85 49.0741C61.1783 47.2593 63.7132 46.7902 66.9092 46.1987C68.0267 45.9919 69.225 45.7701 70.5664 45.4706C75.6404 44.3377 79.3299 41.7958 82.1873 36.5267C82.4506 36.0412 83.0576 35.8611 83.5431 36.1244Z" fill="#FD9E75"/>
<path fill-rule="evenodd" clip-rule="evenodd" d="M79.4144 32.4996C79.8853 32.788 80.0333 33.4037 79.7448 33.8746C76.4791 39.2066 72.547 41.9369 66.8975 43.106C65.4459 43.4064 64.1981 43.6097 63.0788 43.792C59.8875 44.3118 57.74 44.6616 54.889 46.6081C52.568 48.1928 51.053 49.9126 49.5223 52.0142C48.9825 52.7553 48.425 53.5685 47.8231 54.4465C46.7514 56.0098 45.5388 57.7786 44.0338 59.7125C40.1305 64.7285 36.2456 66.915 32.7981 67.3527C32.2503 67.4222 31.7497 67.0345 31.6802 66.4866C31.6106 65.9387 31.9984 65.4382 32.5463 65.3686C35.3142 65.0172 38.7665 63.2247 42.4554 58.4842C43.9388 56.578 45.0647 54.9334 46.1037 53.4156C46.716 52.5211 47.2982 51.6706 47.9057 50.8367C49.5141 48.6284 51.1854 46.7151 53.7613 44.9564C57.0069 42.7404 59.681 42.3072 63.0201 41.7663C64.0948 41.5922 65.2384 41.407 66.4922 41.1475C71.5819 40.0943 75.052 37.7075 78.0393 32.8301C78.3278 32.3591 78.9434 32.2111 79.4144 32.4996Z" fill="#FD9E75"/>
<path d="M10.262 43.5894L4.79453 33.3416C3.86312 31.5959 5.98959 29.271 7.96329 29.411C16.0565 29.9854 22.6979 23.3769 28.1252 19.5133L28.1612 19.4877C34.8974 14.6923 35.4851 14.2739 48.1504 15.6251C54.6964 16.3234 58.9381 14.148 61.4031 11.6973C62.6501 10.4576 65.2953 10.4093 66.1107 11.9672L70.7705 20.8711C71.0717 21.4467 71.0812 22.1383 70.7494 22.6967C66.0088 30.6745 56.3841 31.3148 52.0213 30.5944C46.0846 29.7247 41.0637 29.8481 31.9835 38.0181C23.4708 45.6774 15.0687 45.6102 11.2977 44.4744C10.8453 44.3382 10.4844 44.0062 10.262 43.5894Z" fill="#D4482A"/>
<path fill-rule="evenodd" clip-rule="evenodd" d="M28.1612 19.4877L28.1252 19.5133C27.1545 20.2043 26.145 20.9831 25.0953 21.7929C20.2758 25.511 14.609 29.8827 7.96329 29.411C5.98959 29.271 3.86312 31.5959 4.79453 33.3416L10.262 43.5894L8.49746 44.5308L3.02997 34.2831C2.03094 32.4106 2.80842 30.5046 3.76298 29.377C4.72484 28.2407 6.32638 27.2898 8.10488 27.4161C11.5525 27.6608 14.8065 26.3871 17.9952 24.4234C19.5835 23.4453 21.1119 22.3237 22.6101 21.1805C23.0196 20.8681 23.4311 20.5507 23.8419 20.2337C24.9039 19.4144 25.9612 18.5988 26.9653 17.884C26.9653 17.884 26.9653 17.884 26.9653 17.884L27.0013 17.8584L27.0013 17.8583C27.0813 17.8014 27.1607 17.7448 27.2395 17.6887C30.3895 15.4454 32.539 13.9146 35.525 13.2934C38.4684 12.681 42.1271 12.9712 48.3625 13.6364C54.3167 14.2716 57.9604 12.2999 59.993 10.279C61.0764 9.20194 62.6185 8.74307 63.979 8.78408C65.3316 8.82485 67.0245 9.40017 67.8826 11.0399L72.5425 19.9438C73.1332 21.0724 73.1892 22.5059 72.4687 23.7184L70.7494 22.6967C71.0812 22.1383 71.0717 21.4467 70.7705 20.8711L66.1107 11.9672C65.2953 10.4093 62.6501 10.4576 61.4031 11.6973C58.9381 14.148 54.6964 16.3234 48.1504 15.6251C35.4851 14.274 34.8974 14.6923 28.1612 19.4877ZM51.7141 32.5708C48.8533 32.1525 46.465 32.0161 43.758 32.8314C41.0129 33.6581 37.7421 35.5272 33.3212 39.5049C24.2803 47.6395 15.1498 47.7233 10.7209 46.3895C9.67832 46.0754 8.92792 45.3376 8.49746 44.5308L10.262 43.5894C10.4844 44.0062 10.8453 44.3382 11.2977 44.4744C15.0687 45.6102 23.4708 45.6774 31.9835 38.0181C41.0637 29.8481 46.0846 29.7247 52.0213 30.5944C56.3841 31.3148 66.0088 30.6745 70.7494 22.6967L72.4687 23.7184C69.7837 28.2371 65.72 30.6481 61.8204 31.8225C57.9629 32.9841 54.1642 32.9722 51.7141 32.5708Z" fill="#891616"/>
<path d="M58.7697 25.6365C58.165 25.8965 57.5001 25.7012 57.2846 25.2002C57.0691 24.6992 57.3846 24.0823 57.9893 23.8222C58.5939 23.5621 59.2588 23.7574 59.4743 24.2584C59.6898 24.7594 59.3743 25.3764 58.7697 25.6365Z" fill="#AD2F13"/>
<path d="M59.0868 21.9574C58.4821 22.2175 57.8173 22.0222 57.6018 21.5212C57.3863 21.0202 57.7018 20.4032 58.3064 20.1432C58.9111 19.8831 59.5759 20.0784 59.7914 20.5794C60.0069 21.0804 59.6915 21.6974 59.0868 21.9574Z" fill="#AD2F13"/>
<path d="M54.3386 25.8929C53.734 26.153 53.0691 25.9577 52.8536 25.4567C52.6381 24.9557 52.9536 24.3387 53.5582 24.0786C54.1629 23.8185 54.8278 24.0138 55.0433 24.5148C55.2588 25.0158 54.9433 25.6328 54.3386 25.8929Z" fill="#AD2F13"/>
<path d="M56.7681 29.031C56.1634 29.291 55.4986 29.0957 55.2831 28.5947C55.0676 28.0937 55.383 27.4768 55.9877 27.2167C56.5923 26.9566 57.2572 27.1519 57.4727 27.6529C57.6882 28.1539 57.3727 28.7709 56.7681 29.031Z" fill="#AD2F13"/>
<path d="M62.971 23.8504C62.1228 24.2153 61.1902 23.9413 60.8879 23.2385C60.5856 22.5358 61.0282 21.6703 61.8763 21.3055C62.7245 20.9406 63.6572 21.2146 63.9595 21.9174C64.2617 22.6201 63.8192 23.4856 62.971 23.8504Z" fill="#AD2F13"/>
<path d="M61.7686 28.265C60.9204 28.6298 59.9878 28.3558 59.6855 27.6531C59.3832 26.9503 59.8258 26.0848 60.6739 25.72C61.5221 25.3551 62.4548 25.6291 62.7571 26.3319C63.0593 27.0347 62.6168 27.9001 61.7686 28.265Z" fill="#AD2F13"/>
<path d="M67.4155 25.0456C66.5673 25.4105 65.6347 25.1365 65.3324 24.4337C65.0301 23.7309 65.4726 22.8655 66.3208 22.5006C67.169 22.1358 68.1016 22.4098 68.4039 23.1126C68.7062 23.8153 68.2637 24.6808 67.4155 25.0456Z" fill="#AD2F13"/>
<path d="M66.2639 20.971C65.8064 21.1678 65.3033 21.02 65.1403 20.6409C64.9772 20.2618 65.2159 19.795 65.6734 19.5982C66.1309 19.4014 66.634 19.5492 66.7971 19.9283C66.9601 20.3074 66.7214 20.7742 66.2639 20.971Z" fill="#AD2F13"/>
<path d="M66.7069 18.3433C66.2494 18.5401 65.7463 18.3923 65.5833 18.0132C65.4202 17.6342 65.6589 17.1673 66.1164 16.9705C66.5739 16.7737 67.077 16.9215 67.2401 17.3006C67.4031 17.6797 67.1644 18.1465 66.7069 18.3433Z" fill="#AD2F13"/>
<path d="M63.4543 19.8732C62.9968 20.07 62.4937 19.9223 62.3307 19.5432C62.1676 19.1641 62.4063 18.6973 62.8639 18.5005C63.3214 18.3037 63.8244 18.4514 63.9875 18.8305C64.1506 19.2096 63.9119 19.6765 63.4543 19.8732Z" fill="#AD2F13"/>
<path d="M61.6023 16.5814C61.1448 16.7782 60.6417 16.6304 60.4786 16.2513C60.3156 15.8723 60.5543 15.4054 61.0118 15.2086C61.4693 15.0118 61.9724 15.1596 62.1354 15.5387C62.2985 15.9178 62.0598 16.3846 61.6023 16.5814Z" fill="#AD2F13"/>
<path d="M51.6726 29.0819C51.2151 29.2787 50.712 29.1309 50.549 28.7518C50.3859 28.3727 50.6246 27.9059 51.0821 27.7091C51.5396 27.5123 52.0427 27.6601 52.2058 28.0392C52.3688 28.4183 52.1301 28.8851 51.6726 29.0819Z" fill="#AD2F13"/>
<path d="M55.8773 20.3797C55.4198 20.5764 54.9167 20.4287 54.7537 20.0496C54.5906 19.6705 54.8293 19.2037 55.2868 19.0069C55.7443 18.8101 56.2474 18.9579 56.4105 19.3369C56.5735 19.716 56.3348 20.1829 55.8773 20.3797Z" fill="#AD2F13"/>
<path fill-rule="evenodd" clip-rule="evenodd" d="M32.8373 17.4359C33.7917 16.8799 35.0162 17.203 35.5721 18.1574L41.2285 27.8684C41.7844 28.8228 41.4614 30.0472 40.5069 30.6032C39.5525 31.1591 38.328 30.8361 37.7721 29.8816L32.1157 20.1707C31.5598 19.2162 31.8828 17.9918 32.8373 17.4359Z" fill="#EB5E3F"/>
<path fill-rule="evenodd" clip-rule="evenodd" d="M7.45842 30.602C8.43148 30.0793 9.64405 30.4443 10.1668 31.4174L15.0746 40.5536C15.5973 41.5267 15.2322 42.7392 14.2592 43.262C13.2861 43.7847 12.0735 43.4196 11.5508 42.4465L6.643 33.3103C6.12028 32.3372 6.48536 31.1247 7.45842 30.602Z" fill="#EB5E3F"/>
<path fill-rule="evenodd" clip-rule="evenodd" d="M67.6826 20.1466C68.0686 20.5416 68.0613 21.1747 67.6663 21.5607C62.9592 26.1605 58.1122 27.6967 52.3629 27.2337C50.8264 27.11 49.5328 26.9583 48.3701 26.8219C45.262 26.4572 43.0881 26.2022 39.7058 26.8849C37.5573 27.3186 35.7222 28.597 33.547 30.4335C33.0338 30.8667 32.5022 31.3307 31.9461 31.8162C30.1878 33.3509 28.1837 35.1003 25.7372 36.7725C20.6543 40.2467 16.0057 40.8209 12.7882 40.9374C12.2363 40.9573 11.7727 40.5261 11.7527 39.9742C11.7328 39.4223 12.164 38.9586 12.7159 38.9387C15.7218 38.8299 19.9515 38.3045 24.6087 35.1213C26.9478 33.5225 28.8278 31.8819 30.5705 30.3611C31.1436 29.861 31.7019 29.3738 32.2568 28.9053C34.459 27.046 36.6271 25.466 39.3101 24.9245C43.0261 24.1744 45.5864 24.4754 48.8144 24.8549C49.9431 24.9876 51.1535 25.1299 52.5234 25.2402C57.7056 25.6575 61.9816 24.3195 66.2685 20.1303C66.6635 19.7443 67.2966 19.7516 67.6826 20.1466Z" fill="#E7B469"/>
<path fill-rule="evenodd" clip-rule="evenodd" d="M64.8096 15.4635C65.1742 15.8783 65.1336 16.5101 64.7189 16.8748C60.0232 21.0035 55.4598 22.4497 49.7172 21.8969C48.2416 21.7549 46.9896 21.5803 45.8663 21.4237C42.6639 20.9771 40.5091 20.6766 37.2101 21.6936C34.5245 22.5215 32.5688 23.7168 30.4854 25.2721C29.7506 25.8206 28.9778 26.4327 28.1432 27.0936C26.6574 28.2703 24.9762 29.6017 22.967 31.0045C17.7555 34.6428 13.398 35.5835 9.97517 34.9827C9.4312 34.8873 9.06762 34.3689 9.16309 33.8249C9.25857 33.281 9.77694 32.9174 10.3209 33.0128C13.069 33.4952 16.8969 32.8031 21.8221 29.3646C23.8025 27.9819 25.3642 26.7435 26.8053 25.6006C27.6547 24.927 28.4622 24.2866 29.289 23.6694C31.4782 22.0351 33.6403 20.7012 36.6209 19.7824C40.3765 18.6246 43.0591 19.0011 46.4089 19.4712C47.4871 19.6225 48.6344 19.7835 49.9088 19.9061C55.0825 20.4041 59.1029 19.1495 63.3982 15.3728C63.813 15.0082 64.4449 15.0488 64.8096 15.4635Z" fill="#E7B469"/>
<path d="M19.083 65.1734L12.1877 55.8265C11.0131 54.2342 12.7801 51.6256 14.7532 51.4781C22.8442 50.8732 28.4575 43.3717 33.2674 38.7621L33.2993 38.7316C39.2692 33.0104 39.79 32.5113 52.5174 32.0121C59.0955 31.7542 62.9771 28.9869 65.0608 26.2047C66.1149 24.7973 68.7252 24.3661 69.7577 25.7894L75.6591 33.9237C76.0406 34.4495 76.1502 35.1325 75.9028 35.7331C72.3688 44.3138 62.9386 46.3426 58.5174 46.2622C52.5174 46.2622 47.5674 47.1122 39.7674 56.5122C32.455 65.3246 24.1319 66.4761 20.236 65.899C19.7686 65.8297 19.3635 65.5536 19.083 65.1734Z" fill="#E85434"/>
<path fill-rule="evenodd" clip-rule="evenodd" d="M33.2993 38.7316L33.2674 38.7621C32.4071 39.5865 31.5212 40.5035 30.6 41.4569C26.3703 45.8343 21.3971 50.9814 14.7532 51.4781C12.7801 51.6256 11.0131 54.2342 12.1877 55.8265L19.083 65.1734L17.4735 66.3607L10.5783 57.0138C9.31835 55.3059 9.81132 53.3074 10.5923 52.0532C11.3793 50.7895 12.8261 49.6165 14.6041 49.4836C18.0507 49.226 21.0858 47.4941 23.9561 45.0889C25.3859 43.8908 26.7355 42.5595 28.0523 41.2112C28.4121 40.8428 28.7732 40.469 29.1337 40.0959C30.0658 39.1313 30.9936 38.171 31.8835 37.3182C31.8835 37.3182 31.8835 37.3182 31.8836 37.3182L31.9154 37.2876L31.9154 37.2876C31.9864 37.2196 32.0567 37.1522 32.1265 37.0852C34.918 34.409 36.8229 32.5828 39.6874 31.5352C42.5109 30.5027 46.173 30.2594 52.439 30.0137C58.4224 29.779 61.7418 27.3 63.46 25.0058C64.3757 23.783 65.8351 23.1055 67.1871 22.9488C68.5313 22.7931 70.2898 23.1169 71.3765 24.6149L77.2779 32.7493C78.026 33.7804 78.2892 35.1906 77.7521 36.4947L75.9028 35.7331C76.1502 35.1324 76.0406 34.4495 75.6591 33.9237L69.7577 25.7894C68.7251 24.3661 66.1148 24.7973 65.0608 26.2047C62.9771 28.9869 59.0955 31.7542 52.5174 32.0121C39.79 32.5112 39.2692 33.0104 33.2993 38.7316ZM58.5 48.2622C55.6087 48.2631 53.2259 48.4743 50.6656 49.6734C48.0694 50.8894 45.1041 53.2128 41.3065 57.7894C33.5403 67.1486 24.5183 68.5551 19.943 67.8774C18.8658 67.7178 18.0164 67.0966 17.4735 66.3607L19.083 65.1734C19.3635 65.5536 19.7686 65.8297 20.236 65.899C24.1318 66.4761 32.455 65.3246 39.7674 56.5122C47.5674 47.1122 52.5174 46.2622 58.5174 46.2622C62.9385 46.3426 72.3688 44.3138 75.9028 35.7331L77.7521 36.4947C75.7504 41.3549 72.0792 44.3296 68.391 46.0568C64.7426 47.7653 60.9823 48.3043 58.5 48.2622Z" fill="#9B0D0D"/>
<path d="M64.4268 40.2727C63.8592 40.5771 63.1946 40.4426 62.9424 39.9723C62.6903 39.502 62.946 38.874 63.5136 38.5697C64.0811 38.2653 64.7457 38.3999 64.9979 38.8701C65.25 39.3404 64.9943 39.9684 64.4268 40.2727Z" fill="#C8391A"/>
<path d="M64.4268 36.6598C63.8592 36.9642 63.1946 36.8296 62.9424 36.3593C62.6903 35.8891 62.946 35.2611 63.5136 34.9567C64.0811 34.6524 64.7457 34.7869 64.9979 35.2572C65.25 35.7275 64.9943 36.3555 64.4268 36.6598Z" fill="#C8391A"/>
<path d="M60.1287 40.8951C59.5611 41.1994 58.8965 41.0649 58.6443 40.5946C58.3922 40.1244 58.6479 39.4964 59.2155 39.192C59.783 38.8877 60.4476 39.0222 60.6998 39.4925C60.9519 39.9628 60.6963 40.5907 60.1287 40.8951Z" fill="#C8391A"/>
<path d="M62.7609 43.75C62.1933 44.0544 61.5287 43.9199 61.2766 43.4496C61.0244 42.9793 61.2801 42.3513 61.8477 42.047C62.4152 41.7426 63.0798 41.8772 63.332 42.3474C63.5841 42.8177 63.3285 43.4457 62.7609 43.75Z" fill="#C8391A"/>
<path d="M68.3722 38.1786C67.576 38.6055 66.6438 38.4168 66.2901 37.7571C65.9364 37.0974 66.295 36.2165 67.0912 35.7896C67.8874 35.3627 68.8196 35.5514 69.1733 36.2111C69.5271 36.8708 69.1684 37.7517 68.3722 38.1786Z" fill="#C8391A"/>
<path d="M67.5711 42.5833C66.7749 43.0103 65.8427 42.8216 65.489 42.1619C65.1352 41.5022 65.4939 40.6213 66.2901 40.1944C67.0863 39.7674 68.0185 39.9561 68.3722 40.6158C68.7259 41.2755 68.3673 42.1564 67.5711 42.5833Z" fill="#C8391A"/>
<path d="M72.8054 38.9704C72.0093 39.3973 71.0771 39.2086 70.7233 38.5489C70.3696 37.8892 70.7283 37.0084 71.5244 36.5814C72.3206 36.1545 73.2528 36.3432 73.6066 37.0029C73.9603 37.6626 73.6016 38.5435 72.8054 38.9704Z" fill="#C8391A"/>
<path d="M71.3402 35.0948C70.9108 35.3251 70.4079 35.2233 70.2171 34.8675C70.0263 34.5116 70.2198 34.0365 70.6493 33.8062C71.0787 33.5759 71.5816 33.6777 71.7724 34.0335C71.9632 34.3894 71.7697 34.8645 71.3402 35.0948Z" fill="#C8391A"/>
<path d="M71.5513 32.496C71.1218 32.7263 70.619 32.6245 70.4282 32.2687C70.2374 31.9128 70.4309 31.4377 70.8603 31.2074C71.2898 30.9771 71.7926 31.0789 71.9834 31.4347C72.1742 31.7906 71.9808 32.2657 71.5513 32.496Z" fill="#C8391A"/>
<path d="M68.5093 34.2608C68.0798 34.4911 67.577 34.3893 67.3862 34.0335C67.1954 33.6776 67.3889 33.2025 67.8183 32.9722C68.2478 32.7419 68.7506 32.8437 68.9414 33.1995C69.1322 33.5554 68.9388 34.0305 68.5093 34.2608Z" fill="#C8391A"/>
<path d="M66.4272 31.2075C65.9977 31.4378 65.4949 31.336 65.304 30.9802C65.1132 30.6243 65.3067 30.1492 65.7362 29.9189C66.1656 29.6886 66.6685 29.7904 66.8593 30.1462C67.0501 30.5021 66.8566 30.9772 66.4272 31.2075Z" fill="#C8391A"/>
<path d="M57.7978 44.2279C57.3683 44.4582 56.8655 44.3564 56.6747 44.0005C56.4838 43.6447 56.6773 43.1695 57.1068 42.9392C57.5362 42.709 58.0391 42.8107 58.2299 43.1666C58.4207 43.5224 58.2272 43.9976 57.7978 44.2279Z" fill="#C8391A"/>
<path d="M61.1654 35.3913C60.736 35.6216 60.2331 35.5198 60.0423 35.164C59.8515 34.8081 60.045 34.333 60.4745 34.1027C60.9039 33.8724 61.4068 33.9742 61.5976 34.33C61.7884 34.6859 61.5949 35.161 61.1654 35.3913Z" fill="#C8391A"/>
<path fill-rule="evenodd" clip-rule="evenodd" d="M37.6828 36.183C38.5624 35.515 39.8171 35.6865 40.4851 36.5662L46.9678 45.1028C47.6358 45.9825 47.4642 47.2372 46.5845 47.9052C45.7049 48.5732 44.4502 48.4016 43.7822 47.522L37.2995 38.9853C36.6315 38.1057 36.8031 36.851 37.6828 36.183Z" fill="#FF876D"/>
<path fill-rule="evenodd" clip-rule="evenodd" d="M14.9265 53.1798C15.8035 52.5083 17.0588 52.6749 17.7303 53.5519L23.6505 61.2841C24.322 62.1611 24.1554 63.4164 23.2783 64.0879C22.4013 64.7594 21.146 64.5928 20.4745 63.7158L14.5543 55.9836C13.8828 55.1066 14.0494 53.8512 14.9265 53.1798Z" fill="#FF876D"/>
<path fill-rule="evenodd" clip-rule="evenodd" d="M72.4987 33.6544C72.9379 33.9893 73.0225 34.6168 72.6876 35.056C68.697 40.2896 64.1239 42.5121 58.3682 42.8875C56.83 42.9878 55.5281 43.0252 54.3578 43.0588C51.2297 43.1486 49.0418 43.2114 45.7942 44.3772C43.7312 45.1177 42.1009 46.6486 40.2149 48.781C39.7699 49.2841 39.3112 49.8203 38.8313 50.3812C37.3141 52.1546 35.5847 54.1761 33.4065 56.1852C28.8809 60.3595 24.3647 61.6016 21.198 62.1832C20.6548 62.283 20.1336 61.9235 20.0338 61.3803C19.9341 60.8371 20.2935 60.3159 20.8367 60.2161C23.7951 59.6727 27.9039 58.5398 32.0505 54.715C34.1331 52.7941 35.7555 50.8982 37.2593 49.1409C37.7539 48.563 38.2356 48 38.7167 47.456C40.6262 45.2971 42.5423 43.4196 45.1185 42.4948C48.6865 41.214 51.2634 41.1406 54.5123 41.0482C55.6484 41.0159 56.8666 40.9812 58.238 40.8917C63.4259 40.5534 67.4628 38.6097 71.0972 33.8433C71.4321 33.4041 72.0596 33.3196 72.4987 33.6544Z" fill="#FAF1D1"/>
<path fill-rule="evenodd" clip-rule="evenodd" d="M68.9772 29.4373C69.3981 29.7948 69.4496 30.4259 69.0921 30.8469C65.0445 35.6126 60.739 37.7051 54.9768 37.9906C53.4963 38.064 52.2321 38.0727 51.0981 38.0805C47.8648 38.1029 45.6891 38.118 42.5724 39.6025C40.0351 40.8109 38.2734 42.2771 36.4375 44.1179C35.79 44.7672 35.114 45.4848 34.3841 46.2597C33.0845 47.6394 31.6141 49.2005 29.8294 50.8797C25.2005 55.2351 21.0253 56.7975 17.5515 56.6992C16.9995 56.6836 16.5646 56.2234 16.5802 55.6714C16.5958 55.1193 17.056 54.6844 17.6081 54.7C20.3971 54.7789 24.0842 53.5392 28.4589 49.4231C30.218 47.7679 31.5836 46.3162 32.8439 44.9764C33.5866 44.1868 34.2928 43.4361 35.0214 42.7056C36.9505 40.7713 38.8964 39.138 41.7123 37.7968C45.2604 36.1068 47.9693 36.0905 51.3519 36.07C52.4406 36.0634 53.5991 36.0564 54.8778 35.993C60.069 35.7358 63.8652 33.9116 67.5677 29.5522C67.9252 29.1312 68.5562 29.0798 68.9772 29.4373Z" fill="#FAF1D1"/>
</svg>
