<svg width="343" height="218" viewBox="0 0 343 218" fill="none" xmlns="http://www.w3.org/2000/svg">
<g clip-path="url(#clip0_502_458)">
<rect width="343" height="218" rx="16" fill="url(#paint0_linear_502_458)"/>
<path d="M29.3935 20.2778C25.3058 21.1353 21.9613 24.1774 20.4955 28.322C19.8348 30.2208 19.8348 33.7733 20.4955 35.6721C21.2181 37.6933 22.1058 39.1021 23.6335 40.5925C27.2671 44.1655 32.7381 45.023 37.3626 42.7159C39.2206 41.7767 40.6452 40.5313 41.8632 38.7959C44.7123 34.6512 44.7123 29.3429 41.8632 25.1982C39.0761 21.1761 34.2039 19.2365 29.3935 20.2778ZM29.2284 22.932C27.329 24.2386 26.8129 26.2803 28.0103 27.832C28.8361 28.9345 29.9097 29.7308 33.3574 31.7112C37.9819 34.4062 38.8903 35.325 38.8903 37.4483C38.8903 38.7142 38.1884 39.8371 36.8258 40.7559C35.6284 41.5521 35.2155 41.45 35.7935 40.5109C36.3097 39.6738 36.3097 38.4488 35.7935 37.6321C35.2981 36.8358 34.2865 36.1008 31.4581 34.5492C26.4619 31.8133 24.6452 29.9145 24.6452 27.4237C24.6452 25.2799 26.1935 23.3403 28.5471 22.5032C29.4555 22.1765 29.9097 22.4624 29.2284 22.932ZM35.3806 23.1974C37.4039 23.3811 38.6839 24.0345 38.6839 24.9124C38.6839 25.3207 38.2916 25.3207 37.3626 24.9532C37.0735 24.8307 37.0116 24.8716 37.0529 25.1574C37.1148 25.3616 37.4658 25.6474 37.9406 25.7903C39.0555 26.1782 39.3032 26.4437 39.3032 27.1787C39.3032 27.9137 38.6632 28.7304 38.0852 28.7304C37.7135 28.7304 37.1355 28.1791 36.5574 27.2399C36.1445 26.607 35.3806 26.4845 35.3806 27.0562C35.3806 27.2808 35.5252 27.7299 35.711 28.0974C36 28.6895 36 28.7916 35.711 29.2408C35.4632 29.6083 35.1948 29.7512 34.6994 29.7512C33.1923 29.7512 32.4697 28.1791 32.8826 25.872C33.1303 24.5449 33.1097 24.402 32.7174 23.7486C32.1187 22.8095 32.16 22.7278 33.0684 22.9116C33.4813 22.9932 34.5342 23.1157 35.3806 23.1974ZM24.7277 36.0804C25.5329 37.2033 25.9458 37.3463 26.3174 36.6317C27.0606 35.2025 27.6594 35.2842 27.8658 36.8971C28.0516 38.3467 28.1135 38.3875 29.4555 37.9179C30.0955 37.6933 30.7148 37.5096 30.8387 37.5096C31.2103 37.5096 31.0452 38.4284 30.529 39.1838C30.24 39.5921 30.0129 40.0005 30.0129 40.0617C30.0129 40.123 30.6116 40.47 31.3548 40.7967C32.0981 41.1234 32.6968 41.45 32.6968 41.4909C32.6968 41.5521 32.449 41.695 32.1394 41.8175C31.4374 42.083 29.0426 41.7359 27.7832 41.1846C26.5239 40.6334 25.409 39.6942 24.6658 38.5917C23.6542 37.1013 23.1794 35.0596 23.8194 35.0596C23.9226 35.0596 24.3148 35.5087 24.7277 36.0804Z" fill="white"/>
<path d="M54.814 38.144C54.334 38.144 53.812 38.132 53.248 38.108C52.696 38.084 52.15 38.048 51.61 38C51.082 37.952 50.608 37.904 50.188 37.856V35.534C50.632 35.57 51.076 35.606 51.52 35.642C51.976 35.678 52.408 35.702 52.816 35.714C53.224 35.726 53.566 35.732 53.842 35.732C54.418 35.732 54.856 35.714 55.156 35.678C55.456 35.63 55.678 35.564 55.822 35.48C55.918 35.396 55.984 35.306 56.02 35.21C56.068 35.114 56.098 35 56.11 34.868C56.122 34.736 56.128 34.586 56.128 34.418C56.128 34.166 56.11 33.968 56.074 33.824C56.05 33.668 55.99 33.548 55.894 33.464C55.81 33.38 55.678 33.32 55.498 33.284C55.318 33.236 55.084 33.194 54.796 33.158L52.258 32.834C51.766 32.774 51.364 32.654 51.052 32.474C50.74 32.282 50.494 32.03 50.314 31.718C50.134 31.406 50.008 31.04 49.936 30.62C49.864 30.188 49.828 29.708 49.828 29.18C49.828 28.364 49.948 27.716 50.188 27.236C50.428 26.744 50.758 26.372 51.178 26.12C51.61 25.856 52.108 25.682 52.672 25.598C53.248 25.514 53.872 25.472 54.544 25.472C55.024 25.472 55.522 25.49 56.038 25.526C56.554 25.55 57.04 25.592 57.496 25.652C57.952 25.7 58.33 25.76 58.63 25.832V28.1C58.33 28.052 57.976 28.016 57.568 27.992C57.172 27.956 56.758 27.932 56.326 27.92C55.894 27.896 55.486 27.884 55.102 27.884C54.634 27.884 54.262 27.902 53.986 27.938C53.71 27.962 53.494 28.016 53.338 28.1C53.17 28.196 53.062 28.322 53.014 28.478C52.978 28.634 52.96 28.832 52.96 29.072C52.96 29.372 52.984 29.606 53.032 29.774C53.08 29.93 53.188 30.038 53.356 30.098C53.524 30.158 53.782 30.212 54.13 30.26L56.596 30.548C56.932 30.584 57.238 30.644 57.514 30.728C57.802 30.812 58.06 30.944 58.288 31.124C58.528 31.304 58.726 31.562 58.882 31.898C58.966 32.054 59.032 32.246 59.08 32.474C59.128 32.69 59.17 32.942 59.206 33.23C59.242 33.518 59.26 33.842 59.26 34.202C59.26 34.91 59.188 35.51 59.044 36.002C58.9 36.482 58.696 36.866 58.432 37.154C58.168 37.43 57.85 37.646 57.478 37.802C57.106 37.946 56.692 38.036 56.236 38.072C55.792 38.12 55.318 38.144 54.814 38.144ZM61.2078 38V24.626H64.0878V29.882H64.2498C64.4298 29.582 64.6458 29.348 64.8978 29.18C65.1618 29 65.4558 28.874 65.7798 28.802C66.1038 28.73 66.4578 28.694 66.8418 28.694C67.4538 28.694 67.9398 28.772 68.2998 28.928C68.6718 29.072 68.9538 29.294 69.1458 29.594C69.3378 29.894 69.4638 30.266 69.5238 30.71C69.5958 31.154 69.6318 31.67 69.6318 32.258V38H66.7338V33.14C66.7338 32.648 66.7218 32.264 66.6978 31.988C66.6738 31.7 66.6198 31.49 66.5358 31.358C66.4518 31.226 66.3198 31.148 66.1398 31.124C65.9718 31.088 65.7438 31.07 65.4558 31.07C65.1558 31.07 64.9098 31.106 64.7178 31.178C64.5378 31.238 64.3998 31.346 64.3038 31.502C64.2198 31.658 64.1598 31.88 64.1238 32.168C64.0998 32.444 64.0878 32.792 64.0878 33.212V38H61.2078ZM71.8066 26.948V24.626H74.7766V26.948H71.8066ZM71.8426 38V28.82H74.7586V38H71.8426ZM76.993 38V28.82H79.729L79.801 29.936H79.963C80.143 29.624 80.365 29.378 80.629 29.198C80.893 29.006 81.193 28.874 81.529 28.802C81.865 28.718 82.231 28.676 82.627 28.676C83.239 28.676 83.725 28.754 84.085 28.91C84.457 29.066 84.739 29.294 84.931 29.594C85.123 29.894 85.249 30.266 85.309 30.71C85.381 31.154 85.417 31.67 85.417 32.258V38H82.519V33.14C82.519 32.648 82.507 32.264 82.483 31.988C82.459 31.7 82.405 31.49 82.321 31.358C82.237 31.226 82.105 31.148 81.925 31.124C81.757 31.088 81.529 31.07 81.241 31.07C80.941 31.07 80.695 31.106 80.503 31.178C80.323 31.238 80.185 31.346 80.089 31.502C80.005 31.658 79.945 31.88 79.909 32.168C79.885 32.444 79.873 32.792 79.873 33.212V38H76.993ZM87.6277 38V24.626H90.5077V29.882H90.6697C90.8497 29.582 91.0657 29.348 91.3177 29.18C91.5817 29 91.8757 28.874 92.1997 28.802C92.5237 28.73 92.8777 28.694 93.2617 28.694C93.8737 28.694 94.3597 28.772 94.7197 28.928C95.0917 29.072 95.3737 29.294 95.5657 29.594C95.7577 29.894 95.8837 30.266 95.9437 30.71C96.0157 31.154 96.0517 31.67 96.0517 32.258V38H93.1537V33.14C93.1537 32.648 93.1417 32.264 93.1177 31.988C93.0937 31.7 93.0397 31.49 92.9557 31.358C92.8717 31.226 92.7397 31.148 92.5597 31.124C92.3917 31.088 92.1637 31.07 91.8757 31.07C91.5757 31.07 91.3297 31.106 91.1377 31.178C90.9577 31.238 90.8197 31.346 90.7237 31.502C90.6397 31.658 90.5797 31.88 90.5437 32.168C90.5197 32.444 90.5077 32.792 90.5077 33.212V38H87.6277ZM100.494 38.144C99.9185 38.144 99.4325 38.054 99.0365 37.874C98.6405 37.694 98.3405 37.4 98.1365 36.992C97.9445 36.584 97.8485 36.05 97.8485 35.39C97.8485 34.694 97.9265 34.142 98.0825 33.734C98.2505 33.314 98.5445 33.014 98.9645 32.834C99.3845 32.654 99.9785 32.564 100.746 32.564C100.854 32.564 101.004 32.57 101.196 32.582C101.4 32.582 101.628 32.588 101.88 32.6C102.132 32.6 102.384 32.606 102.636 32.618C102.888 32.618 103.116 32.624 103.32 32.636V32.294C103.32 31.946 103.29 31.676 103.23 31.484C103.182 31.292 103.08 31.154 102.924 31.07C102.78 30.974 102.558 30.92 102.258 30.908C101.958 30.884 101.562 30.872 101.07 30.872C100.794 30.872 100.488 30.878 100.152 30.89C99.8285 30.902 99.5045 30.92 99.1805 30.944C98.8685 30.956 98.6045 30.974 98.3885 30.998V28.964C98.8805 28.88 99.4325 28.814 100.044 28.766C100.668 28.706 101.322 28.676 102.006 28.676C102.774 28.676 103.41 28.724 103.914 28.82C104.43 28.916 104.844 29.066 105.156 29.27C105.468 29.462 105.696 29.708 105.84 30.008C105.996 30.308 106.098 30.662 106.146 31.07C106.194 31.478 106.218 31.94 106.218 32.456V38H103.446L103.374 36.92H103.23C103.002 37.28 102.738 37.55 102.438 37.73C102.138 37.91 101.82 38.024 101.484 38.072C101.148 38.12 100.818 38.144 100.494 38.144ZM101.862 36.092C102.078 36.092 102.264 36.08 102.42 36.056C102.588 36.02 102.726 35.966 102.834 35.894C102.954 35.81 103.05 35.708 103.122 35.588C103.182 35.456 103.23 35.294 103.266 35.102C103.302 34.91 103.32 34.682 103.32 34.418V34.076H101.646C101.346 34.076 101.118 34.1 100.962 34.148C100.806 34.184 100.698 34.28 100.638 34.436C100.59 34.58 100.566 34.808 100.566 35.12C100.566 35.384 100.596 35.588 100.656 35.732C100.716 35.876 100.836 35.972 101.016 36.02C101.208 36.068 101.49 36.092 101.862 36.092ZM108.458 38V28.82H111.194L111.266 29.936H111.428C111.608 29.624 111.83 29.378 112.094 29.198C112.358 29.006 112.658 28.874 112.994 28.802C113.33 28.718 113.696 28.676 114.092 28.676C114.704 28.676 115.19 28.754 115.55 28.91C115.922 29.066 116.204 29.294 116.396 29.594C116.588 29.894 116.714 30.266 116.774 30.71C116.846 31.154 116.882 31.67 116.882 32.258V38H113.984V33.14C113.984 32.648 113.972 32.264 113.948 31.988C113.924 31.7 113.87 31.49 113.786 31.358C113.702 31.226 113.57 31.148 113.39 31.124C113.222 31.088 112.994 31.07 112.706 31.07C112.406 31.07 112.16 31.106 111.968 31.178C111.788 31.238 111.65 31.346 111.554 31.502C111.47 31.658 111.41 31.88 111.374 32.168C111.35 32.444 111.338 32.792 111.338 33.212V38H108.458ZM124.223 38.144C123.287 38.144 122.507 38.084 121.883 37.964C121.259 37.832 120.749 37.622 120.353 37.334C119.969 37.046 119.675 36.662 119.471 36.182C119.279 35.702 119.147 35.102 119.075 34.382C119.003 33.662 118.967 32.804 118.967 31.808C118.967 30.812 119.003 29.954 119.075 29.234C119.147 28.514 119.279 27.914 119.471 27.434C119.675 26.954 119.969 26.57 120.353 26.282C120.749 25.994 121.259 25.79 121.883 25.67C122.507 25.538 123.287 25.472 124.223 25.472C124.583 25.472 124.955 25.484 125.339 25.508C125.723 25.532 126.095 25.568 126.455 25.616C126.815 25.664 127.121 25.724 127.373 25.796V28.046C127.001 28.01 126.659 27.98 126.347 27.956C126.047 27.92 125.783 27.902 125.555 27.902C125.327 27.89 125.135 27.884 124.979 27.884C124.427 27.884 123.971 27.908 123.611 27.956C123.263 27.992 122.987 28.082 122.783 28.226C122.579 28.37 122.429 28.586 122.333 28.874C122.237 29.15 122.171 29.528 122.135 30.008C122.111 30.476 122.099 31.076 122.099 31.808C122.099 32.528 122.111 33.128 122.135 33.608C122.171 34.088 122.237 34.472 122.333 34.76C122.429 35.048 122.579 35.264 122.783 35.408C122.987 35.54 123.263 35.63 123.611 35.678C123.971 35.714 124.427 35.732 124.979 35.732C125.351 35.732 125.771 35.72 126.239 35.696C126.707 35.66 127.109 35.618 127.445 35.57V37.874C127.181 37.922 126.863 37.964 126.491 38C126.119 38.048 125.735 38.084 125.339 38.108C124.955 38.132 124.583 38.144 124.223 38.144ZM131.59 38.144C131.014 38.144 130.528 38.054 130.132 37.874C129.736 37.694 129.436 37.4 129.232 36.992C129.04 36.584 128.944 36.05 128.944 35.39C128.944 34.694 129.022 34.142 129.178 33.734C129.346 33.314 129.64 33.014 130.06 32.834C130.48 32.654 131.074 32.564 131.842 32.564C131.95 32.564 132.1 32.57 132.292 32.582C132.496 32.582 132.724 32.588 132.976 32.6C133.228 32.6 133.48 32.606 133.732 32.618C133.984 32.618 134.212 32.624 134.416 32.636V32.294C134.416 31.946 134.386 31.676 134.326 31.484C134.278 31.292 134.176 31.154 134.02 31.07C133.876 30.974 133.654 30.92 133.354 30.908C133.054 30.884 132.658 30.872 132.166 30.872C131.89 30.872 131.584 30.878 131.248 30.89C130.924 30.902 130.6 30.92 130.276 30.944C129.964 30.956 129.7 30.974 129.484 30.998V28.964C129.976 28.88 130.528 28.814 131.14 28.766C131.764 28.706 132.418 28.676 133.102 28.676C133.87 28.676 134.506 28.724 135.01 28.82C135.526 28.916 135.94 29.066 136.252 29.27C136.564 29.462 136.792 29.708 136.936 30.008C137.092 30.308 137.194 30.662 137.242 31.07C137.29 31.478 137.314 31.94 137.314 32.456V38H134.542L134.47 36.92H134.326C134.098 37.28 133.834 37.55 133.534 37.73C133.234 37.91 132.916 38.024 132.58 38.072C132.244 38.12 131.914 38.144 131.59 38.144ZM132.958 36.092C133.174 36.092 133.36 36.08 133.516 36.056C133.684 36.02 133.822 35.966 133.93 35.894C134.05 35.81 134.146 35.708 134.218 35.588C134.278 35.456 134.326 35.294 134.362 35.102C134.398 34.91 134.416 34.682 134.416 34.418V34.076H132.742C132.442 34.076 132.214 34.1 132.058 34.148C131.902 34.184 131.794 34.28 131.734 34.436C131.686 34.58 131.662 34.808 131.662 35.12C131.662 35.384 131.692 35.588 131.752 35.732C131.812 35.876 131.932 35.972 132.112 36.02C132.304 36.068 132.586 36.092 132.958 36.092ZM139.554 38V28.82H142.29L142.362 30.386H142.524C142.692 29.942 142.902 29.594 143.154 29.342C143.418 29.09 143.736 28.916 144.108 28.82C144.48 28.724 144.912 28.676 145.404 28.676V31.322C144.648 31.322 144.054 31.418 143.622 31.61C143.19 31.802 142.884 32.132 142.704 32.6C142.524 33.056 142.434 33.698 142.434 34.526V38H139.554ZM149.548 38.144C149.02 38.144 148.564 38.072 148.18 37.928C147.796 37.784 147.484 37.538 147.244 37.19C147.004 36.83 146.824 36.344 146.704 35.732C146.596 35.12 146.542 34.352 146.542 33.428C146.542 32.516 146.596 31.754 146.704 31.142C146.812 30.518 146.986 30.032 147.226 29.684C147.466 29.324 147.772 29.066 148.144 28.91C148.528 28.754 148.99 28.676 149.53 28.676C149.89 28.676 150.226 28.706 150.538 28.766C150.862 28.826 151.156 28.934 151.42 29.09C151.684 29.246 151.912 29.48 152.104 29.792H152.248V24.626H155.146V38H152.392L152.32 36.902H152.176C151.996 37.25 151.762 37.514 151.474 37.694C151.198 37.862 150.892 37.976 150.556 38.036C150.232 38.108 149.896 38.144 149.548 38.144ZM150.844 35.768C151.216 35.768 151.492 35.726 151.672 35.642C151.864 35.546 152.002 35.378 152.086 35.138C152.158 34.922 152.2 34.676 152.212 34.4C152.236 34.112 152.248 33.782 152.248 33.41C152.248 33.038 152.236 32.714 152.212 32.438C152.2 32.162 152.158 31.928 152.086 31.736C152.014 31.472 151.882 31.292 151.69 31.196C151.498 31.1 151.216 31.052 150.844 31.052C150.52 31.052 150.262 31.076 150.07 31.124C149.878 31.172 149.734 31.274 149.638 31.43C149.554 31.574 149.5 31.802 149.476 32.114C149.452 32.426 149.44 32.858 149.44 33.41C149.44 33.962 149.452 34.4 149.476 34.724C149.5 35.036 149.554 35.27 149.638 35.426C149.734 35.57 149.878 35.666 150.07 35.714C150.262 35.75 150.52 35.768 150.844 35.768Z" fill="white"/>
</g>
<g filter="url(#filter0_d_502_458)">
<path d="M158.254 165L154.445 154.434H155.828L159.068 163.464H159.145L162.385 154.434H163.722L159.913 165H158.254ZM163.864 165L167.857 154.434H169.516L173.493 165H172.126L171.036 162.113H166.29L165.2 165H163.864ZM166.69 160.961H170.637L168.702 155.785H168.625L166.69 160.961ZM175.468 165V154.434H176.789V163.833H181.719V165H175.468ZM183.732 165V154.434H185.053V165H183.732ZM188.127 165V154.434H191.475C192.345 154.434 193.056 154.475 193.609 154.557C194.162 154.638 194.597 154.787 194.915 155.002C195.242 155.217 195.483 155.524 195.637 155.923C195.79 156.323 195.887 156.83 195.928 157.444C195.969 158.058 195.99 158.816 195.99 159.717C195.99 160.618 195.969 161.376 195.928 161.99C195.887 162.604 195.79 163.111 195.637 163.51C195.483 163.91 195.242 164.217 194.915 164.432C194.597 164.647 194.162 164.795 193.609 164.877C193.056 164.959 192.345 165 191.475 165H188.127ZM189.447 163.864H191.26C191.905 163.864 192.437 163.848 192.857 163.817C193.277 163.787 193.609 163.71 193.855 163.587C194.101 163.454 194.28 163.244 194.393 162.957C194.505 162.66 194.577 162.251 194.608 161.729C194.649 161.207 194.669 160.536 194.669 159.717C194.669 158.898 194.649 158.232 194.608 157.72C194.577 157.198 194.5 156.789 194.377 156.492C194.265 156.195 194.085 155.985 193.84 155.862C193.594 155.729 193.261 155.647 192.841 155.616C192.432 155.586 191.905 155.57 191.26 155.57H189.447V163.864ZM204.587 165V155.601H201.255V154.434H209.256V155.601H205.908V165H204.587ZM211.254 165V154.434H212.574V159.087H218.103V154.434H219.424V165H218.103V160.254H212.574V165H211.254ZM222.487 165V154.434H227.34C228.006 154.434 228.533 154.516 228.922 154.679C229.321 154.833 229.613 155.058 229.798 155.355C229.992 155.642 230.12 155.98 230.181 156.369C230.243 156.758 230.274 157.173 230.274 157.613C230.274 157.992 230.238 158.386 230.166 158.795C230.105 159.195 229.956 159.558 229.721 159.886C229.495 160.213 229.137 160.454 228.646 160.608L230.427 165H229.014L227.263 160.562L227.632 160.746C227.56 160.766 227.473 160.782 227.371 160.792C227.269 160.802 227.13 160.807 226.956 160.807H223.808V165H222.487ZM223.808 159.655H226.772C227.284 159.655 227.683 159.614 227.97 159.533C228.267 159.451 228.482 159.323 228.615 159.149C228.758 158.975 228.85 158.765 228.891 158.519C228.932 158.263 228.953 157.961 228.953 157.613C228.953 157.265 228.932 156.968 228.891 156.722C228.861 156.466 228.779 156.256 228.646 156.092C228.523 155.918 228.318 155.79 228.031 155.708C227.755 155.616 227.371 155.57 226.879 155.57H223.808V159.655ZM236.857 165.123C236.13 165.123 235.521 165.082 235.029 165C234.548 164.908 234.159 164.759 233.862 164.555C233.565 164.35 233.34 164.068 233.186 163.71C233.033 163.341 232.931 162.886 232.879 162.343C232.828 161.8 232.803 161.145 232.803 160.377V154.434H234.123V160.899C234.123 161.544 234.149 162.067 234.2 162.466C234.251 162.865 234.359 163.178 234.523 163.403C234.697 163.628 234.968 163.782 235.337 163.864C235.705 163.945 236.212 163.986 236.857 163.986C237.502 163.986 238.004 163.945 238.362 163.864C238.731 163.782 238.997 163.628 239.161 163.403C239.335 163.178 239.442 162.865 239.483 162.466C239.524 162.067 239.545 161.544 239.545 160.899V154.434H240.865V160.377C240.865 161.145 240.84 161.8 240.789 162.343C240.748 162.886 240.65 163.341 240.497 163.71C240.354 164.068 240.133 164.35 239.836 164.555C239.54 164.759 239.145 164.908 238.654 165C238.173 165.082 237.574 165.123 236.857 165.123Z" fill="#E8E8E8"/>
</g>
<g filter="url(#filter1_d_502_458)">
<path d="M158.735 190.442C158.003 190.442 157.399 190.399 156.924 190.314C156.448 190.219 156.073 190.062 155.797 189.843C155.521 189.624 155.317 189.325 155.184 188.945C155.051 188.564 154.965 188.084 154.927 187.504C154.898 186.924 154.884 186.23 154.884 185.422C154.884 184.614 154.898 183.92 154.927 183.34C154.965 182.76 155.051 182.28 155.184 181.9C155.317 181.519 155.521 181.22 155.797 181.001C156.073 180.783 156.448 180.631 156.924 180.545C157.399 180.45 158.003 180.402 158.735 180.402C159.476 180.402 160.085 180.45 160.56 180.545C161.035 180.631 161.411 180.783 161.687 181.001C161.962 181.22 162.167 181.519 162.3 181.9C162.433 182.28 162.514 182.76 162.542 183.34C162.58 183.92 162.599 184.614 162.599 185.422C162.599 186.23 162.58 186.924 162.542 187.504C162.514 188.084 162.433 188.564 162.3 188.945C162.167 189.325 161.962 189.624 161.687 189.843C161.411 190.062 161.035 190.219 160.56 190.314C160.085 190.399 159.476 190.442 158.735 190.442ZM158.735 188.788C159.096 188.788 159.391 188.774 159.619 188.745C159.847 188.717 160.023 188.65 160.146 188.545C160.28 188.441 160.375 188.27 160.432 188.032C160.498 187.794 160.541 187.466 160.56 187.048C160.579 186.62 160.589 186.078 160.589 185.422C160.589 184.766 160.579 184.229 160.56 183.811C160.541 183.383 160.498 183.05 160.432 182.812C160.375 182.575 160.28 182.404 160.146 182.299C160.023 182.194 159.847 182.128 159.619 182.099C159.391 182.071 159.101 182.057 158.749 182.057C158.397 182.057 158.102 182.071 157.865 182.099C157.637 182.128 157.456 182.194 157.323 182.299C157.199 182.404 157.104 182.575 157.038 182.812C156.981 183.05 156.943 183.383 156.924 183.811C156.904 184.229 156.895 184.766 156.895 185.422C156.895 186.078 156.904 186.62 156.924 187.048C156.943 187.466 156.981 187.794 157.038 188.032C157.104 188.27 157.199 188.441 157.323 188.545C157.456 188.65 157.637 188.717 157.865 188.745C158.093 188.774 158.383 188.788 158.735 188.788ZM167.962 190.442C167.696 190.442 167.382 190.428 167.021 190.399C166.669 190.371 166.303 190.338 165.922 190.299C165.552 190.252 165.205 190.2 164.881 190.143V188.588C165.214 188.626 165.547 188.659 165.88 188.688C166.212 188.717 166.526 188.74 166.821 188.759C167.125 188.778 167.372 188.788 167.562 188.788C168.123 188.788 168.565 188.755 168.889 188.688C169.221 188.612 169.469 188.474 169.63 188.274C169.801 188.075 169.911 187.785 169.958 187.404C170.015 187.024 170.044 186.52 170.044 185.893H169.958C169.873 185.988 169.744 186.092 169.573 186.207C169.412 186.311 169.169 186.401 168.846 186.478C168.523 186.554 168.095 186.592 167.562 186.592C167.011 186.592 166.531 186.554 166.122 186.478C165.713 186.401 165.376 186.264 165.11 186.064C164.843 185.855 164.644 185.565 164.511 185.194C164.387 184.823 164.325 184.338 164.325 183.739C164.325 183.112 164.373 182.584 164.468 182.156C164.572 181.729 164.758 181.386 165.024 181.13C165.3 180.873 165.68 180.688 166.165 180.573C166.65 180.459 167.282 180.402 168.062 180.402C168.775 180.402 169.374 180.44 169.858 180.516C170.353 180.583 170.752 180.726 171.056 180.944C171.361 181.153 171.589 181.486 171.741 181.943C171.865 182.323 171.95 182.793 171.998 183.354C172.055 183.906 172.083 184.576 172.083 185.365C172.083 185.945 172.064 186.468 172.026 186.934C171.998 187.39 171.945 187.794 171.869 188.146C171.793 188.488 171.684 188.793 171.541 189.059C171.361 189.401 171.113 189.677 170.8 189.886C170.495 190.086 170.11 190.228 169.645 190.314C169.179 190.399 168.618 190.442 167.962 190.442ZM168.176 184.952C168.594 184.952 168.927 184.928 169.174 184.88C169.421 184.833 169.602 184.761 169.716 184.666C169.839 184.562 169.916 184.433 169.944 184.281C169.982 184.12 170.001 183.93 170.001 183.711C170.001 183.312 169.968 183.003 169.901 182.784C169.844 182.556 169.744 182.389 169.602 182.285C169.469 182.18 169.283 182.114 169.046 182.085C168.817 182.057 168.527 182.042 168.176 182.042C167.795 182.042 167.482 182.057 167.234 182.085C166.987 182.114 166.797 182.175 166.664 182.271C166.531 182.366 166.436 182.508 166.379 182.698C166.322 182.889 166.293 183.145 166.293 183.468C166.293 183.801 166.322 184.072 166.379 184.281C166.436 184.481 166.531 184.628 166.664 184.723C166.797 184.819 166.982 184.88 167.22 184.909C167.467 184.937 167.786 184.952 168.176 184.952ZM172.854 191.112L176.99 179.732H178.644L174.494 191.112H172.854ZM179.394 190.328V189.045C179.394 188.493 179.409 188.027 179.437 187.647C179.466 187.257 179.532 186.929 179.637 186.663C179.751 186.397 179.917 186.169 180.136 185.978C180.364 185.788 180.678 185.612 181.077 185.451L183.33 184.538C183.635 184.405 183.863 184.291 184.015 184.196C184.167 184.091 184.267 183.963 184.314 183.811C184.362 183.659 184.386 183.454 184.386 183.198C184.386 182.855 184.324 182.603 184.2 182.442C184.086 182.271 183.882 182.166 183.587 182.128C183.302 182.08 182.893 182.057 182.361 182.057C182.151 182.057 181.89 182.066 181.576 182.085C181.262 182.104 180.934 182.128 180.592 182.156C180.25 182.185 179.917 182.218 179.594 182.256V180.702C179.889 180.645 180.231 180.597 180.621 180.559C181.011 180.512 181.41 180.474 181.819 180.445C182.237 180.417 182.622 180.402 182.974 180.402C183.449 180.402 183.891 180.431 184.3 180.488C184.718 180.545 185.084 180.664 185.398 180.844C185.712 181.025 185.959 181.291 186.14 181.643C186.32 181.995 186.411 182.47 186.411 183.069C186.411 183.659 186.344 184.134 186.211 184.495C186.087 184.857 185.897 185.147 185.641 185.365C185.384 185.584 185.065 185.769 184.685 185.921L182.118 186.948C181.89 187.034 181.719 187.129 181.605 187.233C181.5 187.328 181.429 187.457 181.391 187.618C181.362 187.771 181.348 187.98 181.348 188.246V188.659H186.411V190.328H179.394ZM192.662 190.328V188.26H187.813V186.791L191.421 180.516H193.617L189.995 186.606H192.69L193.232 183.911H194.672V186.606H195.985V188.26H194.672V190.328H192.662Z" fill="white"/>
</g>
<g filter="url(#filter2_d_502_458)">
<path d="M29.3245 165.121C28.6005 165.121 27.9921 165.08 27.4994 165C27.0067 164.909 26.6044 164.759 26.2927 164.547C25.981 164.326 25.7397 164.02 25.5687 163.627C25.4078 163.225 25.2972 162.712 25.2369 162.089C25.1765 161.465 25.1464 160.706 25.1464 159.811C25.1464 158.916 25.1765 158.162 25.2369 157.549C25.2972 156.925 25.4078 156.417 25.5687 156.025C25.7397 155.623 25.981 155.311 26.2927 155.09C26.6044 154.869 27.0067 154.718 27.4994 154.638C27.9921 154.547 28.6005 154.502 29.3245 154.502C29.6061 154.502 29.8927 154.512 30.1843 154.532C30.486 154.552 30.7726 154.577 31.0441 154.607C31.3156 154.638 31.5519 154.678 31.753 154.728V155.769C31.5217 155.739 31.2804 155.713 31.029 155.693C30.7877 155.663 30.5463 155.643 30.305 155.633C30.0636 155.623 29.8474 155.618 29.6564 155.618C29.0731 155.618 28.5854 155.643 28.1933 155.693C27.8011 155.744 27.4894 155.844 27.2581 155.995C27.0268 156.136 26.8508 156.362 26.7301 156.674C26.6195 156.975 26.5441 157.383 26.5039 157.896C26.4637 158.398 26.4436 159.037 26.4436 159.811C26.4436 160.586 26.4637 161.229 26.5039 161.742C26.5441 162.245 26.6195 162.652 26.7301 162.964C26.8508 163.265 27.0268 163.492 27.2581 163.642C27.4894 163.783 27.8011 163.879 28.1933 163.929C28.5854 163.979 29.0731 164.004 29.6564 164.004C29.9983 164.004 30.3703 163.989 30.7726 163.959C31.1748 163.929 31.5217 163.894 31.8133 163.854V164.925C31.6022 164.965 31.3508 164.995 31.0592 165.015C30.7776 165.045 30.486 165.07 30.1843 165.091C29.8826 165.111 29.596 165.121 29.3245 165.121ZM33.0984 165L37.0202 154.622H38.6492L42.5559 165H41.2134L40.1425 162.164H35.4816L34.4107 165H33.0984ZM35.8738 161.033H39.7503L37.8498 155.95H37.7743L35.8738 161.033ZM44.4955 165V154.622H49.262C49.9156 154.622 50.4335 154.703 50.8156 154.864C51.2078 155.015 51.4944 155.236 51.6754 155.527C51.8664 155.809 51.9921 156.141 52.0525 156.523C52.1128 156.905 52.143 157.312 52.143 157.745C52.143 158.117 52.1078 158.504 52.0374 158.906C51.9771 159.298 51.8312 159.655 51.6 159.977C51.3787 160.299 51.0268 160.535 50.5441 160.686L52.2938 165H50.9061L49.1866 160.641L49.5486 160.822C49.4782 160.842 49.3927 160.857 49.2922 160.867C49.1916 160.877 49.0558 160.882 48.8849 160.882H45.7927V165H44.4955ZM45.7927 159.751H48.7039C49.2067 159.751 49.5989 159.711 49.8804 159.63C50.172 159.55 50.3832 159.424 50.5139 159.253C50.6547 159.082 50.7452 158.876 50.7854 158.635C50.8257 158.383 50.8458 158.087 50.8458 157.745C50.8458 157.403 50.8257 157.111 50.7854 156.87C50.7553 156.619 50.6748 156.412 50.5441 156.251C50.4234 156.081 50.2223 155.955 49.9408 155.874C49.6692 155.784 49.2922 155.739 48.8095 155.739H45.7927V159.751ZM54.7625 165V154.622H58.0507C58.9054 154.622 59.6043 154.663 60.1473 154.743C60.6903 154.824 61.1177 154.969 61.4294 155.181C61.7512 155.392 61.9875 155.693 62.1384 156.086C62.2892 156.478 62.3847 156.975 62.425 157.579C62.4652 158.182 62.4853 158.926 62.4853 159.811C62.4853 160.696 62.4652 161.44 62.425 162.044C62.3847 162.647 62.2892 163.145 62.1384 163.537C61.9875 163.929 61.7512 164.231 61.4294 164.442C61.1177 164.653 60.6903 164.799 60.1473 164.879C59.6043 164.96 58.9054 165 58.0507 165H54.7625ZM56.0597 163.884H57.8395C58.473 163.884 58.9959 163.869 59.4082 163.839C59.8205 163.808 60.1473 163.733 60.3887 163.612C60.63 163.482 60.806 163.275 60.9166 162.994C61.0272 162.702 61.0976 162.3 61.1278 161.787C61.168 161.274 61.1881 160.616 61.1881 159.811C61.1881 159.007 61.168 158.353 61.1278 157.85C61.0976 157.337 61.0222 156.935 60.9015 156.644C60.7909 156.352 60.6149 156.146 60.3736 156.025C60.1323 155.894 59.8054 155.814 59.3932 155.784C58.9909 155.754 58.473 155.739 57.8395 155.739H56.0597V163.884ZM68.7119 165V154.622H70.0091V159.193H75.4392V154.622H76.7364V165H75.4392V160.339H70.0091V165H68.7119ZM83.6364 165.121C82.8319 165.121 82.1632 165.08 81.6303 165C81.1074 164.909 80.6901 164.754 80.3783 164.532C80.0767 164.311 79.8554 164.004 79.7146 163.612C79.5739 163.21 79.4834 162.702 79.4431 162.089C79.4029 161.465 79.3828 160.706 79.3828 159.811C79.3828 158.916 79.4029 158.162 79.4431 157.549C79.4834 156.925 79.5739 156.417 79.7146 156.025C79.8554 155.623 80.0767 155.311 80.3783 155.09C80.6901 154.869 81.1074 154.718 81.6303 154.638C82.1632 154.547 82.8319 154.502 83.6364 154.502C84.4409 154.502 85.1045 154.547 85.6274 154.638C86.1604 154.718 86.5777 154.869 86.8794 155.09C87.1911 155.311 87.4174 155.623 87.5582 156.025C87.6989 156.417 87.7894 156.925 87.8297 157.549C87.8699 158.162 87.89 158.916 87.89 159.811C87.89 160.706 87.8699 161.465 87.8297 162.089C87.7894 162.702 87.6989 163.21 87.5582 163.612C87.4174 164.004 87.1911 164.311 86.8794 164.532C86.5777 164.754 86.1604 164.909 85.6274 165C85.1045 165.08 84.4409 165.121 83.6364 165.121ZM83.6364 164.004C84.1895 164.004 84.647 163.989 85.009 163.959C85.371 163.919 85.6576 163.834 85.8688 163.703C86.08 163.572 86.2409 163.361 86.3515 163.069C86.4621 162.768 86.5274 162.355 86.5476 161.832C86.5777 161.31 86.5928 160.636 86.5928 159.811C86.5928 158.987 86.5777 158.313 86.5476 157.79C86.5274 157.267 86.4621 156.86 86.3515 156.568C86.2409 156.267 86.08 156.05 85.8688 155.92C85.6576 155.789 85.371 155.708 85.009 155.678C84.647 155.638 84.1895 155.618 83.6364 155.618C83.0833 155.618 82.6258 155.638 82.2638 155.678C81.9118 155.708 81.6252 155.789 81.404 155.92C81.1928 156.05 81.032 156.267 80.9213 156.568C80.8208 156.86 80.7554 157.267 80.7253 157.79C80.6951 158.313 80.68 158.987 80.68 159.811C80.68 160.636 80.6951 161.31 80.7253 161.832C80.7554 162.355 80.8208 162.768 80.9213 163.069C81.032 163.361 81.1928 163.572 81.404 163.703C81.6252 163.834 81.9118 163.919 82.2638 163.959C82.6258 163.989 83.0833 164.004 83.6364 164.004ZM90.5567 165V154.622H91.8539V163.854H96.6958V165H90.5567ZM98.6731 165V154.622H101.961C102.816 154.622 103.515 154.663 104.058 154.743C104.601 154.824 105.028 154.969 105.34 155.181C105.662 155.392 105.898 155.693 106.049 156.086C106.2 156.478 106.295 156.975 106.336 157.579C106.376 158.182 106.396 158.926 106.396 159.811C106.396 160.696 106.376 161.44 106.336 162.044C106.295 162.647 106.2 163.145 106.049 163.537C105.898 163.929 105.662 164.231 105.34 164.442C105.028 164.653 104.601 164.799 104.058 164.879C103.515 164.96 102.816 165 101.961 165H98.6731ZM99.9703 163.884H101.75C102.384 163.884 102.907 163.869 103.319 163.839C103.731 163.808 104.058 163.733 104.299 163.612C104.541 163.482 104.717 163.275 104.827 162.994C104.938 162.702 105.008 162.3 105.038 161.787C105.079 161.274 105.099 160.616 105.099 159.811C105.099 159.007 105.079 158.353 105.038 157.85C105.008 157.337 104.933 156.935 104.812 156.644C104.702 156.352 104.526 156.146 104.284 156.025C104.043 155.894 103.716 155.814 103.304 155.784C102.902 155.754 102.384 155.739 101.75 155.739H99.9703V163.884ZM109.073 165V154.622H115.815V155.739H110.37V159.193H115.106V160.324H110.37V163.884H115.815V165H109.073ZM118.161 165V154.622H122.928C123.581 154.622 124.099 154.703 124.481 154.864C124.873 155.015 125.16 155.236 125.341 155.527C125.532 155.809 125.658 156.141 125.718 156.523C125.778 156.905 125.808 157.312 125.808 157.745C125.808 158.117 125.773 158.504 125.703 158.906C125.643 159.298 125.497 159.655 125.265 159.977C125.044 160.299 124.692 160.535 124.21 160.686L125.959 165H124.572L122.852 160.641L123.214 160.822C123.144 160.842 123.058 160.857 122.958 160.867C122.857 160.877 122.721 160.882 122.55 160.882H119.458V165H118.161ZM119.458 159.751H122.369C122.872 159.751 123.264 159.711 123.546 159.63C123.838 159.55 124.049 159.424 124.179 159.253C124.32 159.082 124.411 158.876 124.451 158.635C124.491 158.383 124.511 158.087 124.511 157.745C124.511 157.403 124.491 157.111 124.451 156.87C124.421 156.619 124.34 156.412 124.21 156.251C124.089 156.081 123.888 155.955 123.606 155.874C123.335 155.784 122.958 155.739 122.475 155.739H119.458V159.751Z" fill="#E8E8E8"/>
</g>
<g filter="url(#filter3_d_502_458)">
<path d="M25.1485 190V180.364H27.1374V184.299H30.9751V180.364H32.964V190H30.9751V186.008H27.1374V190H25.1485ZM38.1278 190.112C37.5116 190.112 36.998 190.075 36.5872 190C36.1763 189.925 35.8542 189.804 35.6207 189.636C35.3873 189.468 35.2145 189.244 35.1025 188.964C34.9998 188.683 34.9297 188.333 34.8924 187.913C34.8644 187.493 34.8504 186.993 34.8504 186.414C34.8504 185.835 34.8644 185.341 34.8924 184.93C34.9297 184.51 34.9998 184.159 35.1025 183.879C35.2145 183.599 35.3873 183.375 35.6207 183.207C35.8542 183.039 36.1763 182.922 36.5872 182.857C36.998 182.782 37.5116 182.745 38.1278 182.745C38.7441 182.745 39.253 182.782 39.6545 182.857C40.0654 182.922 40.3875 183.039 40.621 183.207C40.8637 183.375 41.0365 183.599 41.1392 183.879C41.2512 184.159 41.3213 184.51 41.3493 184.93C41.3866 185.341 41.4053 185.835 41.4053 186.414C41.4053 186.993 41.3866 187.493 41.3493 187.913C41.3213 188.333 41.2512 188.683 41.1392 188.964C41.0365 189.244 40.8637 189.468 40.621 189.636C40.3875 189.804 40.0654 189.925 39.6545 190C39.253 190.075 38.7441 190.112 38.1278 190.112ZM38.1278 188.613C38.4733 188.613 38.7441 188.59 38.9402 188.543C39.1456 188.497 39.2857 188.403 39.3604 188.263C39.4444 188.114 39.4958 187.89 39.5145 187.591C39.5331 187.292 39.5425 186.9 39.5425 186.414C39.5425 185.929 39.5331 185.541 39.5145 185.252C39.4958 184.953 39.4444 184.734 39.3604 184.594C39.2857 184.444 39.1456 184.351 38.9402 184.313C38.7441 184.267 38.4733 184.243 38.1278 184.243C37.773 184.243 37.4976 184.267 37.3015 184.313C37.1054 184.351 36.9653 184.444 36.8813 184.594C36.7972 184.734 36.7459 184.953 36.7272 185.252C36.7179 185.541 36.7132 185.929 36.7132 186.414C36.7132 186.9 36.7179 187.292 36.7272 187.591C36.7459 187.89 36.7972 188.114 36.8813 188.263C36.9653 188.403 37.1054 188.497 37.3015 188.543C37.4976 188.59 37.773 188.613 38.1278 188.613ZM43.1452 190V182.857H44.8819L44.938 183.753H45.05C45.1807 183.52 45.3395 183.328 45.5262 183.179C45.7223 183.03 45.9604 182.922 46.2405 182.857C46.53 182.782 46.8568 182.745 47.221 182.745C47.7065 182.745 48.094 182.805 48.3835 182.927C48.6823 183.048 48.9111 183.226 49.0698 183.459C49.2285 183.693 49.3313 183.982 49.3779 184.327C49.434 184.673 49.462 185.074 49.462 185.532V190H47.6132V186.218C47.6132 185.789 47.5992 185.448 47.5711 185.196C47.5431 184.944 47.4871 184.757 47.4031 184.636C47.319 184.514 47.193 184.44 47.0249 184.411C46.8568 184.374 46.6327 184.355 46.3526 184.355C46.0538 184.355 45.811 184.393 45.6243 184.468C45.4469 184.533 45.3115 184.645 45.2181 184.804C45.134 184.953 45.0734 185.154 45.036 185.406C45.008 185.649 44.994 185.948 44.994 186.302V190H43.1452ZM54.1929 192.885C53.8941 192.885 53.586 192.876 53.2685 192.857C52.9604 192.848 52.6709 192.829 52.4001 192.801C52.1293 192.783 51.9052 192.755 51.7278 192.717V191.345C51.9146 191.354 52.1247 191.363 52.3581 191.373C52.5916 191.382 52.8297 191.387 53.0724 191.387C53.3152 191.387 53.5393 191.387 53.7447 191.387C54.2303 191.387 54.6085 191.363 54.8792 191.317C55.15 191.27 55.3508 191.181 55.4815 191.05C55.6216 190.929 55.7103 190.742 55.7476 190.49C55.785 190.247 55.8037 189.925 55.8037 189.524V189.104H55.7056C55.5749 189.346 55.4021 189.538 55.1874 189.678C54.982 189.809 54.7485 189.897 54.4871 189.944C54.235 189.991 53.9548 190.014 53.6467 190.014C53.1985 190.014 52.8157 189.958 52.4982 189.846C52.19 189.734 51.9379 189.542 51.7418 189.272C51.5457 189.001 51.4057 188.632 51.3216 188.165C51.2376 187.698 51.1956 187.115 51.1956 186.414C51.1956 185.705 51.2376 185.116 51.3216 184.65C51.415 184.173 51.5598 183.8 51.7558 183.529C51.9519 183.249 52.204 183.048 52.5122 182.927C52.8203 182.805 53.1985 182.745 53.6467 182.745C53.9175 182.745 54.1883 182.773 54.4591 182.829C54.7298 182.875 54.9773 182.974 55.2014 183.123C55.4348 183.263 55.6216 183.473 55.7616 183.753H55.8597L55.9157 182.857H57.6525V189.16C57.6525 189.804 57.6198 190.359 57.5544 190.826C57.4891 191.303 57.3443 191.69 57.1202 191.989C56.8961 192.297 56.5507 192.521 56.0838 192.661C55.6262 192.811 54.996 192.885 54.1929 192.885ZM54.431 188.445C54.7392 188.445 54.982 188.408 55.1594 188.333C55.3461 188.259 55.4862 188.142 55.5796 187.983C55.6729 187.815 55.7336 187.6 55.7616 187.339C55.7897 187.077 55.8037 186.765 55.8037 186.4C55.8037 186.046 55.7897 185.737 55.7616 185.476C55.7336 185.215 55.6729 185 55.5796 184.832C55.4862 184.654 55.3461 184.528 55.1594 184.454C54.982 184.379 54.7392 184.341 54.431 184.341C54.1229 184.341 53.8755 184.365 53.6887 184.411C53.502 184.449 53.3619 184.538 53.2685 184.678C53.1845 184.808 53.1285 185.014 53.1004 185.294C53.0724 185.565 53.0584 185.934 53.0584 186.4C53.0584 186.867 53.0724 187.236 53.1004 187.507C53.1285 187.768 53.1845 187.969 53.2685 188.109C53.3619 188.24 53.502 188.329 53.6887 188.375C53.8755 188.422 54.1229 188.445 54.431 188.445ZM67.2052 190.112C66.5049 190.112 65.9073 190.065 65.4124 189.972C64.9268 189.879 64.5207 189.725 64.1939 189.51C63.8764 189.286 63.6289 188.987 63.4515 188.613C63.2741 188.24 63.1481 187.773 63.0734 187.213C63.008 186.643 62.9753 185.966 62.9753 185.182C62.9753 184.397 63.008 183.725 63.0734 183.165C63.1481 182.595 63.2741 182.124 63.4515 181.75C63.6383 181.377 63.8904 181.083 64.2079 180.868C64.5347 180.644 64.9409 180.485 65.4264 180.392C65.912 180.298 66.5049 180.252 67.2052 180.252C67.5133 180.252 67.8542 180.266 68.2277 180.294C68.6105 180.322 68.9887 180.359 69.3622 180.406C69.7357 180.443 70.0812 180.494 70.3986 180.56V182.086C70.0718 182.04 69.7543 182.002 69.4462 181.974C69.1381 181.946 68.8579 181.923 68.6058 181.904C68.3537 181.886 68.1436 181.876 67.9755 181.876C67.4433 181.876 66.9998 181.89 66.645 181.918C66.2901 181.937 66.0007 181.998 65.7766 182.1C65.5525 182.203 65.3797 182.371 65.2583 182.605C65.1463 182.838 65.0669 183.165 65.0202 183.585C64.9735 183.996 64.9502 184.528 64.9502 185.182C64.9502 185.761 64.9642 186.246 64.9922 186.638C65.0296 187.031 65.0903 187.353 65.1743 187.605C65.2677 187.857 65.3984 188.053 65.5665 188.193C65.7439 188.324 65.968 188.413 66.2388 188.459C66.5189 188.506 66.8644 188.529 67.2752 188.529C67.4246 188.529 67.5787 188.529 67.7374 188.529C67.9055 188.52 68.0596 188.511 68.1996 188.501C68.349 188.492 68.4704 188.483 68.5638 188.473V186.092H66.9531V184.524H70.4407V189.804C70.1232 189.869 69.7684 189.925 69.3762 189.972C68.984 190.009 68.6012 190.042 68.2277 190.07C67.8542 190.098 67.5133 190.112 67.2052 190.112ZM72.4428 181.246V179.593H74.3616V181.246H72.4428ZM72.4708 190V182.857H74.3336V190H72.4708ZM76.328 190V179.593H78.1908V190H76.328ZM80.3393 190V180.364H83.6167C84.4478 180.364 85.1247 180.406 85.6476 180.49C86.1799 180.574 86.5954 180.723 86.8942 180.938C87.2023 181.143 87.4218 181.433 87.5525 181.806C87.6926 182.17 87.7813 182.628 87.8186 183.179C87.856 183.73 87.8746 184.397 87.8746 185.182C87.8746 185.966 87.856 186.634 87.8186 187.185C87.7813 187.736 87.6926 188.198 87.5525 188.571C87.4218 188.936 87.2023 189.225 86.8942 189.44C86.5954 189.645 86.1799 189.79 85.6476 189.874C85.1247 189.958 84.4478 190 83.6167 190H80.3393ZM82.3282 188.375H83.5047C83.9622 188.375 84.3357 188.366 84.6252 188.347C84.924 188.319 85.1574 188.259 85.3255 188.165C85.5029 188.072 85.629 187.913 85.7037 187.689C85.7784 187.456 85.8251 187.138 85.8437 186.737C85.8717 186.335 85.8857 185.817 85.8857 185.182C85.8857 184.556 85.8717 184.043 85.8437 183.641C85.8251 183.23 85.7737 182.913 85.6897 182.689C85.615 182.465 85.4889 182.306 85.3115 182.213C85.1434 182.11 84.9146 182.049 84.6252 182.03C84.3357 182.002 83.9622 181.988 83.5047 181.988H82.3282V188.375ZM92.7715 190.112C92.1552 190.112 91.6416 190.075 91.2308 190C90.8199 189.925 90.4978 189.804 90.2643 189.636C90.0309 189.468 89.8582 189.244 89.7461 188.964C89.6434 188.683 89.5734 188.333 89.536 187.913C89.508 187.493 89.494 186.993 89.494 186.414C89.494 185.835 89.508 185.341 89.536 184.93C89.5734 184.51 89.6434 184.159 89.7461 183.879C89.8582 183.599 90.0309 183.375 90.2643 183.207C90.4978 183.039 90.8199 182.922 91.2308 182.857C91.6416 182.782 92.1552 182.745 92.7715 182.745C93.3877 182.745 93.8966 182.782 94.2982 182.857C94.709 182.922 95.0312 183.039 95.2646 183.207C95.5074 183.375 95.6801 183.599 95.7828 183.879C95.8949 184.159 95.9649 184.51 95.9929 184.93C96.0303 185.341 96.0489 185.835 96.0489 186.414C96.0489 186.993 96.0303 187.493 95.9929 187.913C95.9649 188.333 95.8949 188.683 95.7828 188.964C95.6801 189.244 95.5074 189.468 95.2646 189.636C95.0312 189.804 94.709 189.925 94.2982 190C93.8966 190.075 93.3877 190.112 92.7715 190.112ZM92.7715 188.613C93.117 188.613 93.3877 188.59 93.5838 188.543C93.7893 188.497 93.9293 188.403 94.004 188.263C94.0881 188.114 94.1394 187.89 94.1581 187.591C94.1768 187.292 94.1861 186.9 94.1861 186.414C94.1861 185.929 94.1768 185.541 94.1581 185.252C94.1394 184.953 94.0881 184.734 94.004 184.594C93.9293 184.444 93.7893 184.351 93.5838 184.313C93.3877 184.267 93.117 184.243 92.7715 184.243C92.4166 184.243 92.1412 184.267 91.9451 184.313C91.749 184.351 91.609 184.444 91.5249 184.594C91.4409 184.734 91.3895 184.953 91.3708 185.252C91.3615 185.541 91.3568 185.929 91.3568 186.414C91.3568 186.9 91.3615 187.292 91.3708 187.591C91.3895 187.89 91.4409 188.114 91.5249 188.263C91.609 188.403 91.749 188.497 91.9451 188.543C92.1412 188.59 92.4166 188.613 92.7715 188.613ZM97.7888 190V182.857H99.5256L99.5816 183.753H99.6936C99.8244 183.52 99.9831 183.328 100.17 183.179C100.366 183.03 100.604 182.922 100.884 182.857C101.174 182.782 101.5 182.745 101.865 182.745C102.35 182.745 102.738 182.805 103.027 182.927C103.326 183.048 103.555 183.226 103.713 183.459C103.872 183.693 103.975 183.982 104.022 184.327C104.078 184.673 104.106 185.074 104.106 185.532V190H102.257V186.218C102.257 185.789 102.243 185.448 102.215 185.196C102.187 184.944 102.131 184.757 102.047 184.636C101.963 184.514 101.837 184.44 101.669 184.411C101.5 184.374 101.276 184.355 100.996 184.355C100.697 184.355 100.455 184.393 100.268 184.468C100.09 184.533 99.9551 184.645 99.8617 184.804C99.7777 184.953 99.717 185.154 99.6796 185.406C99.6516 185.649 99.6376 185.948 99.6376 186.302V190H97.7888ZM108.837 192.885C108.538 192.885 108.23 192.876 107.912 192.857C107.604 192.848 107.315 192.829 107.044 192.801C106.773 192.783 106.549 192.755 106.371 192.717V191.345C106.558 191.354 106.768 191.363 107.002 191.373C107.235 191.382 107.473 191.387 107.716 191.387C107.959 191.387 108.183 191.387 108.388 191.387C108.874 191.387 109.252 191.363 109.523 191.317C109.794 191.27 109.994 191.181 110.125 191.05C110.265 190.929 110.354 190.742 110.391 190.49C110.429 190.247 110.447 189.925 110.447 189.524V189.104H110.349C110.219 189.346 110.046 189.538 109.831 189.678C109.626 189.809 109.392 189.897 109.131 189.944C108.879 189.991 108.598 190.014 108.29 190.014C107.842 190.014 107.459 189.958 107.142 189.846C106.834 189.734 106.582 189.542 106.385 189.272C106.189 189.001 106.049 188.632 105.965 188.165C105.881 187.698 105.839 187.115 105.839 186.414C105.839 185.705 105.881 185.116 105.965 184.65C106.059 184.173 106.203 183.8 106.399 183.529C106.596 183.249 106.848 183.048 107.156 182.927C107.464 182.805 107.842 182.745 108.29 182.745C108.561 182.745 108.832 182.773 109.103 182.829C109.373 182.875 109.621 182.974 109.845 183.123C110.078 183.263 110.265 183.473 110.405 183.753H110.503L110.559 182.857H112.296V189.16C112.296 189.804 112.263 190.359 112.198 190.826C112.133 191.303 111.988 191.69 111.764 191.989C111.54 192.297 111.194 192.521 110.727 192.661C110.27 192.811 109.64 192.885 108.837 192.885ZM109.075 188.445C109.383 188.445 109.626 188.408 109.803 188.333C109.99 188.259 110.13 188.142 110.223 187.983C110.317 187.815 110.377 187.6 110.405 187.339C110.433 187.077 110.447 186.765 110.447 186.4C110.447 186.046 110.433 185.737 110.405 185.476C110.377 185.215 110.317 185 110.223 184.832C110.13 184.654 109.99 184.528 109.803 184.454C109.626 184.379 109.383 184.341 109.075 184.341C108.767 184.341 108.519 184.365 108.332 184.411C108.146 184.449 108.006 184.538 107.912 184.678C107.828 184.808 107.772 185.014 107.744 185.294C107.716 185.565 107.702 185.934 107.702 186.4C107.702 186.867 107.716 187.236 107.744 187.507C107.772 187.768 107.828 187.969 107.912 188.109C108.006 188.24 108.146 188.329 108.332 188.375C108.519 188.422 108.767 188.445 109.075 188.445Z" fill="white"/>
</g>
<g filter="url(#filter4_d_502_458)">
<path d="M275.325 165.121C274.601 165.121 273.992 165.08 273.499 165C273.007 164.909 272.604 164.759 272.293 164.547C271.981 164.326 271.74 164.02 271.569 163.627C271.408 163.225 271.297 162.712 271.237 162.089C271.177 161.465 271.146 160.706 271.146 159.811C271.146 158.916 271.177 158.162 271.237 157.549C271.297 156.925 271.408 156.417 271.569 156.025C271.74 155.623 271.981 155.311 272.293 155.09C272.604 154.869 273.007 154.718 273.499 154.638C273.992 154.547 274.601 154.502 275.325 154.502C275.606 154.502 275.893 154.512 276.184 154.532C276.486 154.552 276.773 154.577 277.044 154.607C277.316 154.638 277.552 154.678 277.753 154.728V155.769C277.522 155.739 277.28 155.713 277.029 155.693C276.788 155.663 276.546 155.643 276.305 155.633C276.064 155.623 275.847 155.618 275.656 155.618C275.073 155.618 274.585 155.643 274.193 155.693C273.801 155.744 273.489 155.844 273.258 155.995C273.027 156.136 272.851 156.362 272.73 156.674C272.62 156.975 272.544 157.383 272.504 157.896C272.464 158.398 272.444 159.037 272.444 159.811C272.444 160.586 272.464 161.229 272.504 161.742C272.544 162.245 272.62 162.652 272.73 162.964C272.851 163.265 273.027 163.492 273.258 163.642C273.489 163.783 273.801 163.879 274.193 163.929C274.585 163.979 275.073 164.004 275.656 164.004C275.998 164.004 276.37 163.989 276.773 163.959C277.175 163.929 277.522 163.894 277.813 163.854V164.925C277.602 164.965 277.351 164.995 277.059 165.015C276.778 165.045 276.486 165.07 276.184 165.091C275.883 165.111 275.596 165.121 275.325 165.121ZM282.854 165L279.113 154.622H280.471L283.654 163.492H283.729L286.912 154.622H288.224L284.483 165H282.854ZM293.855 165.121C293.131 165.121 292.523 165.08 292.03 165C291.537 164.909 291.135 164.759 290.823 164.547C290.512 164.326 290.27 164.02 290.099 163.627C289.938 163.225 289.828 162.712 289.767 162.089C289.707 161.465 289.677 160.706 289.677 159.811C289.677 158.916 289.707 158.162 289.767 157.549C289.828 156.925 289.938 156.417 290.099 156.025C290.27 155.623 290.512 155.311 290.823 155.09C291.135 154.869 291.537 154.718 292.03 154.638C292.523 154.547 293.131 154.502 293.855 154.502C294.137 154.502 294.423 154.512 294.715 154.532C295.017 154.552 295.303 154.577 295.575 154.607C295.846 154.638 296.082 154.678 296.284 154.728V155.769C296.052 155.739 295.811 155.713 295.56 155.693C295.318 155.663 295.077 155.643 294.836 155.633C294.594 155.623 294.378 155.618 294.187 155.618C293.604 155.618 293.116 155.643 292.724 155.693C292.332 155.744 292.02 155.844 291.789 155.995C291.557 156.136 291.381 156.362 291.261 156.674C291.15 156.975 291.075 157.383 291.034 157.896C290.994 158.398 290.974 159.037 290.974 159.811C290.974 160.586 290.994 161.229 291.034 161.742C291.075 162.245 291.15 162.652 291.261 162.964C291.381 163.265 291.557 163.492 291.789 163.642C292.02 163.783 292.332 163.879 292.724 163.929C293.116 163.979 293.604 164.004 294.187 164.004C294.529 164.004 294.901 163.989 295.303 163.959C295.705 163.929 296.052 163.894 296.344 163.854V164.925C296.133 164.965 295.881 164.995 295.59 165.015C295.308 165.045 295.017 165.07 294.715 165.091C294.413 165.111 294.127 165.121 293.855 165.121Z" fill="#E8E8E8"/>
</g>
<g filter="url(#filter5_d_502_458)">
<path d="M272.213 189.526V182.018L270.336 182.831V181.164L272.843 179.889H274.202V189.526H272.213ZM277.657 189.526V182.018L275.78 182.831V181.164L278.287 179.889H279.646V189.526H277.657ZM283.101 189.526V182.018L281.224 182.831V181.164L283.731 179.889H285.09V189.526H283.101Z" fill="white"/>
</g>
<path d="M27.312 93.24L27.492 90.9L25.53 92.268L24.774 90.936L26.934 89.946L24.774 88.92L25.53 87.606L27.492 88.956L27.312 86.616H28.806L28.59 88.938L30.588 87.606L31.326 88.92L29.166 89.946L31.326 90.936L30.588 92.268L28.608 90.9L28.806 93.24H27.312ZM36.4155 93.24L36.5955 90.9L34.6335 92.268L33.8775 90.936L36.0375 89.946L33.8775 88.92L34.6335 87.606L36.5955 88.956L36.4155 86.616H37.9095L37.6935 88.938L39.6915 87.606L40.4295 88.92L38.2695 89.946L40.4295 90.936L39.6915 92.268L37.7115 90.9L37.9095 93.24H36.4155ZM45.519 93.24L45.699 90.9L43.737 92.268L42.981 90.936L45.141 89.946L42.981 88.92L43.737 87.606L45.699 88.956L45.519 86.616H47.013L46.797 88.938L48.795 87.606L49.533 88.92L47.373 89.946L49.533 90.936L48.795 92.268L46.815 90.9L47.013 93.24H45.519ZM54.6225 93.24L54.8025 90.9L52.8405 92.268L52.0845 90.936L54.2445 89.946L52.0845 88.92L52.8405 87.606L54.8025 88.956L54.6225 86.616H56.1165L55.9005 88.938L57.8985 87.606L58.6365 88.92L56.4765 89.946L58.6365 90.936L57.8985 92.268L55.9185 90.9L56.1165 93.24H54.6225ZM69.2788 93.24L69.4588 90.9L67.4968 92.268L66.7408 90.936L68.9008 89.946L66.7408 88.92L67.4968 87.606L69.4588 88.956L69.2788 86.616H70.7728L70.5568 88.938L72.5548 87.606L73.2928 88.92L71.1328 89.946L73.2928 90.936L72.5548 92.268L70.5748 90.9L70.7728 93.24H69.2788ZM78.3823 93.24L78.5623 90.9L76.6003 92.268L75.8443 90.936L78.0043 89.946L75.8443 88.92L76.6003 87.606L78.5623 88.956L78.3823 86.616H79.8763L79.6603 88.938L81.6583 87.606L82.3963 88.92L80.2363 89.946L82.3963 90.936L81.6583 92.268L79.6783 90.9L79.8763 93.24H78.3823ZM87.4858 93.24L87.6658 90.9L85.7038 92.268L84.9478 90.936L87.1078 89.946L84.9478 88.92L85.7038 87.606L87.6658 88.956L87.4858 86.616H88.9798L88.7638 88.938L90.7618 87.606L91.4998 88.92L89.3398 89.946L91.4998 90.936L90.7618 92.268L88.7818 90.9L88.9798 93.24H87.4858ZM96.5893 93.24L96.7693 90.9L94.8073 92.268L94.0513 90.936L96.2113 89.946L94.0513 88.92L94.8073 87.606L96.7693 88.956L96.5893 86.616H98.0833L97.8673 88.938L99.8653 87.606L100.603 88.92L98.4433 89.946L100.603 90.936L99.8653 92.268L97.8853 90.9L98.0833 93.24H96.5893ZM111.246 93.24L111.426 90.9L109.464 92.268L108.708 90.936L110.868 89.946L108.708 88.92L109.464 87.606L111.426 88.956L111.246 86.616H112.74L112.524 88.938L114.522 87.606L115.26 88.92L113.1 89.946L115.26 90.936L114.522 92.268L112.542 90.9L112.74 93.24H111.246ZM120.349 93.24L120.529 90.9L118.567 92.268L117.811 90.936L119.971 89.946L117.811 88.92L118.567 87.606L120.529 88.956L120.349 86.616H121.843L121.627 88.938L123.625 87.606L124.363 88.92L122.203 89.946L124.363 90.936L123.625 92.268L121.645 90.9L121.843 93.24H120.349ZM129.453 93.24L129.633 90.9L127.671 92.268L126.915 90.936L129.075 89.946L126.915 88.92L127.671 87.606L129.633 88.956L129.453 86.616H130.947L130.731 88.938L132.729 87.606L133.467 88.92L131.307 89.946L133.467 90.936L132.729 92.268L130.749 90.9L130.947 93.24H129.453ZM138.556 93.24L138.736 90.9L136.774 92.268L136.018 90.936L138.178 89.946L136.018 88.92L136.774 87.606L138.736 88.956L138.556 86.616H140.05L139.834 88.938L141.832 87.606L142.57 88.92L140.41 89.946L142.57 90.936L141.832 92.268L139.852 90.9L140.05 93.24H138.556ZM155.858 99.144C154.934 99.144 154.166 99.096 153.554 99C152.942 98.892 152.456 98.706 152.096 98.442C151.736 98.178 151.466 97.812 151.286 97.344C151.118 96.864 151.01 96.252 150.962 95.508C150.914 94.764 150.89 93.864 150.89 92.808C150.89 91.752 150.914 90.852 150.962 90.108C151.01 89.364 151.118 88.758 151.286 88.29C151.466 87.81 151.736 87.438 152.096 87.174C152.456 86.91 152.942 86.73 153.554 86.634C154.166 86.526 154.934 86.472 155.858 86.472C156.794 86.472 157.562 86.526 158.162 86.634C158.774 86.73 159.26 86.91 159.62 87.174C159.98 87.438 160.244 87.81 160.412 88.29C160.592 88.758 160.706 89.364 160.754 90.108C160.814 90.852 160.844 91.752 160.844 92.808C160.844 93.864 160.814 94.764 160.754 95.508C160.706 96.252 160.592 96.864 160.412 97.344C160.244 97.812 159.98 98.178 159.62 98.442C159.26 98.706 158.774 98.892 158.162 99C157.562 99.096 156.794 99.144 155.858 99.144ZM155.858 96.732C156.218 96.732 156.512 96.72 156.74 96.696C156.968 96.66 157.148 96.582 157.28 96.462C157.412 96.342 157.508 96.144 157.568 95.868C157.628 95.58 157.664 95.19 157.676 94.698C157.7 94.206 157.712 93.576 157.712 92.808C157.712 92.04 157.7 91.41 157.676 90.918C157.664 90.426 157.628 90.042 157.568 89.766C157.508 89.478 157.412 89.274 157.28 89.154C157.148 89.034 156.968 88.962 156.74 88.938C156.524 88.902 156.23 88.884 155.858 88.884C155.51 88.884 155.216 88.902 154.976 88.938C154.748 88.962 154.568 89.034 154.436 89.154C154.316 89.274 154.226 89.478 154.166 89.766C154.106 90.042 154.064 90.426 154.04 90.918C154.028 91.41 154.022 92.04 154.022 92.808C154.022 93.576 154.028 94.206 154.04 94.698C154.064 95.19 154.106 95.58 154.166 95.868C154.226 96.144 154.316 96.342 154.436 96.462C154.568 96.582 154.748 96.66 154.976 96.696C155.204 96.72 155.498 96.732 155.858 96.732ZM167.732 99.144C167.324 99.144 166.88 99.126 166.4 99.09C165.92 99.066 165.446 99.024 164.978 98.964C164.522 98.892 164.114 98.826 163.754 98.766V96.516C164.186 96.552 164.63 96.588 165.086 96.624C165.542 96.66 165.974 96.69 166.382 96.714C166.802 96.726 167.156 96.732 167.444 96.732C167.984 96.732 168.41 96.714 168.722 96.678C169.046 96.63 169.274 96.51 169.406 96.318C169.55 96.126 169.622 95.814 169.622 95.382C169.622 94.974 169.574 94.668 169.478 94.464C169.382 94.248 169.214 94.104 168.974 94.032C168.734 93.96 168.398 93.924 167.966 93.924H165.896V91.548H167.966C168.35 91.548 168.65 91.518 168.866 91.458C169.094 91.386 169.256 91.26 169.352 91.08C169.46 90.888 169.514 90.6 169.514 90.216C169.514 89.784 169.454 89.478 169.334 89.298C169.214 89.106 168.992 88.992 168.668 88.956C168.344 88.908 167.876 88.884 167.264 88.884C166.916 88.884 166.532 88.896 166.112 88.92C165.704 88.944 165.296 88.974 164.888 89.01C164.492 89.034 164.138 89.07 163.826 89.118V86.85C164.174 86.778 164.576 86.712 165.032 86.652C165.5 86.592 165.968 86.55 166.436 86.526C166.916 86.49 167.354 86.472 167.75 86.472C168.698 86.472 169.484 86.544 170.108 86.688C170.744 86.832 171.248 87.042 171.62 87.318C171.992 87.594 172.256 87.936 172.412 88.344C172.58 88.74 172.664 89.202 172.664 89.73C172.664 90.63 172.484 91.302 172.124 91.746C171.764 92.19 171.23 92.49 170.522 92.646V92.718C171.002 92.826 171.41 92.982 171.746 93.186C172.082 93.39 172.334 93.69 172.502 94.086C172.682 94.482 172.772 95.016 172.772 95.688C172.772 96.204 172.7 96.678 172.556 97.11C172.424 97.53 172.178 97.896 171.818 98.208C171.458 98.508 170.948 98.742 170.288 98.91C169.628 99.066 168.776 99.144 167.732 99.144ZM175.741 99V97.29C175.741 96.606 175.759 96.018 175.795 95.526C175.831 95.034 175.909 94.614 176.029 94.266C176.161 93.918 176.365 93.624 176.641 93.384C176.917 93.132 177.295 92.904 177.775 92.7L180.511 91.602C180.859 91.458 181.117 91.332 181.285 91.224C181.453 91.104 181.561 90.96 181.609 90.792C181.657 90.624 181.681 90.39 181.681 90.09C181.681 89.718 181.621 89.448 181.501 89.28C181.381 89.1 181.165 88.992 180.853 88.956C180.541 88.908 180.103 88.884 179.539 88.884C179.275 88.884 178.945 88.896 178.549 88.92C178.165 88.944 177.751 88.974 177.307 89.01C176.863 89.046 176.425 89.088 175.993 89.136V86.868C176.389 86.796 176.839 86.73 177.343 86.67C177.847 86.61 178.363 86.562 178.891 86.526C179.431 86.49 179.929 86.472 180.385 86.472C180.985 86.472 181.549 86.514 182.077 86.598C182.617 86.67 183.091 86.82 183.499 87.048C183.907 87.276 184.225 87.618 184.453 88.074C184.693 88.53 184.813 89.142 184.813 89.91C184.813 90.678 184.729 91.296 184.561 91.764C184.405 92.232 184.171 92.604 183.859 92.88C183.547 93.156 183.169 93.384 182.725 93.564L179.629 94.77C179.389 94.866 179.203 94.968 179.071 95.076C178.951 95.172 178.867 95.304 178.819 95.472C178.771 95.628 178.747 95.838 178.747 96.102V96.57H184.813V99H175.741ZM192.065 99.144C191.669 99.144 191.231 99.126 190.751 99.09C190.271 99.066 189.797 99.03 189.329 98.982C188.861 98.922 188.435 98.85 188.051 98.766V96.534C188.471 96.57 188.903 96.606 189.347 96.642C189.803 96.666 190.235 96.69 190.643 96.714C191.051 96.726 191.405 96.732 191.705 96.732C192.185 96.732 192.569 96.714 192.857 96.678C193.145 96.63 193.367 96.552 193.523 96.444C193.691 96.336 193.805 96.18 193.865 95.976C193.925 95.76 193.955 95.49 193.955 95.166C193.955 94.818 193.919 94.542 193.847 94.338C193.787 94.122 193.673 93.966 193.505 93.87C193.337 93.762 193.103 93.69 192.803 93.654C192.503 93.618 192.119 93.6 191.651 93.6C191.339 93.6 190.979 93.612 190.571 93.636C190.163 93.648 189.755 93.672 189.347 93.708C188.939 93.732 188.555 93.762 188.195 93.798V86.616H196.187V89.046H190.931V91.368C191.135 91.344 191.369 91.32 191.633 91.296C191.909 91.272 192.185 91.254 192.461 91.242C192.737 91.23 192.989 91.224 193.217 91.224C193.997 91.224 194.639 91.308 195.143 91.476C195.647 91.644 196.043 91.89 196.331 92.214C196.619 92.526 196.817 92.91 196.925 93.366C197.045 93.822 197.105 94.35 197.105 94.95C197.105 95.682 197.033 96.312 196.889 96.84C196.745 97.368 196.487 97.806 196.115 98.154C195.755 98.49 195.245 98.742 194.585 98.91C193.937 99.066 193.097 99.144 192.065 99.144Z" fill="white"/>
<defs>
<filter id="filter0_d_502_458" x="154.007" y="154.434" width="88.1752" height="12.4444" filterUnits="userSpaceOnUse" color-interpolation-filters="sRGB">
<feFlood flood-opacity="0" result="BackgroundImageFix"/>
<feColorMatrix in="SourceAlpha" type="matrix" values="0 0 0 0 0 0 0 0 0 0 0 0 0 0 0 0 0 0 127 0" result="hardAlpha"/>
<feOffset dx="0.4388" dy="0.8776"/>
<feGaussianBlur stdDeviation="0.4388"/>
<feColorMatrix type="matrix" values="0 0 0 0 0 0 0 0 0 0 0 0 0 0 0 0 0 0 0.5 0"/>
<feBlend mode="normal" in2="BackgroundImageFix" result="effect1_dropShadow_502_458"/>
<feBlend mode="normal" in="SourceGraphic" in2="effect1_dropShadow_502_458" result="shape"/>
</filter>
<filter id="filter1_d_502_458" x="154.445" y="179.732" width="42.8555" height="13.1355" filterUnits="userSpaceOnUse" color-interpolation-filters="sRGB">
<feFlood flood-opacity="0" result="BackgroundImageFix"/>
<feColorMatrix in="SourceAlpha" type="matrix" values="0 0 0 0 0 0 0 0 0 0 0 0 0 0 0 0 0 0 127 0" result="hardAlpha"/>
<feOffset dx="0.4388" dy="0.8776"/>
<feGaussianBlur stdDeviation="0.4388"/>
<feColorMatrix type="matrix" values="0 0 0 0 0 0 0 0 0 0 0 0 0 0 0 0 0 0 0.25 0"/>
<feBlend mode="normal" in2="BackgroundImageFix" result="effect1_dropShadow_502_458"/>
<feBlend mode="normal" in="SourceGraphic" in2="effect1_dropShadow_502_458" result="shape"/>
</filter>
<filter id="filter2_d_502_458" x="24.7154" y="154.502" width="102.537" height="12.3427" filterUnits="userSpaceOnUse" color-interpolation-filters="sRGB">
<feFlood flood-opacity="0" result="BackgroundImageFix"/>
<feColorMatrix in="SourceAlpha" type="matrix" values="0 0 0 0 0 0 0 0 0 0 0 0 0 0 0 0 0 0 127 0" result="hardAlpha"/>
<feOffset dx="0.430962" dy="0.861925"/>
<feGaussianBlur stdDeviation="0.430962"/>
<feColorMatrix type="matrix" values="0 0 0 0 0 0 0 0 0 0 0 0 0 0 0 0 0 0 0.5 0"/>
<feBlend mode="normal" in2="BackgroundImageFix" result="effect1_dropShadow_502_458"/>
<feBlend mode="normal" in="SourceGraphic" in2="effect1_dropShadow_502_458" result="shape"/>
</filter>
<filter id="filter3_d_502_458" x="24.7176" y="179.593" width="88.8714" height="15.0158" filterUnits="userSpaceOnUse" color-interpolation-filters="sRGB">
<feFlood flood-opacity="0" result="BackgroundImageFix"/>
<feColorMatrix in="SourceAlpha" type="matrix" values="0 0 0 0 0 0 0 0 0 0 0 0 0 0 0 0 0 0 127 0" result="hardAlpha"/>
<feOffset dx="0.430962" dy="0.861925"/>
<feGaussianBlur stdDeviation="0.430962"/>
<feColorMatrix type="matrix" values="0 0 0 0 0 0 0 0 0 0 0 0 0 0 0 0 0 0 0.25 0"/>
<feBlend mode="normal" in2="BackgroundImageFix" result="effect1_dropShadow_502_458"/>
<feBlend mode="normal" in="SourceGraphic" in2="effect1_dropShadow_502_458" result="shape"/>
</filter>
<filter id="filter4_d_502_458" x="270.715" y="154.502" width="26.9214" height="12.3427" filterUnits="userSpaceOnUse" color-interpolation-filters="sRGB">
<feFlood flood-opacity="0" result="BackgroundImageFix"/>
<feColorMatrix in="SourceAlpha" type="matrix" values="0 0 0 0 0 0 0 0 0 0 0 0 0 0 0 0 0 0 127 0" result="hardAlpha"/>
<feOffset dx="0.430962" dy="0.861925"/>
<feGaussianBlur stdDeviation="0.430962"/>
<feColorMatrix type="matrix" values="0 0 0 0 0 0 0 0 0 0 0 0 0 0 0 0 0 0 0.5 0"/>
<feBlend mode="normal" in2="BackgroundImageFix" result="effect1_dropShadow_502_458"/>
<feBlend mode="normal" in="SourceGraphic" in2="effect1_dropShadow_502_458" result="shape"/>
</filter>
<filter id="filter5_d_502_458" x="269.905" y="179.889" width="16.4773" height="11.3602" filterUnits="userSpaceOnUse" color-interpolation-filters="sRGB">
<feFlood flood-opacity="0" result="BackgroundImageFix"/>
<feColorMatrix in="SourceAlpha" type="matrix" values="0 0 0 0 0 0 0 0 0 0 0 0 0 0 0 0 0 0 127 0" result="hardAlpha"/>
<feOffset dx="0.430962" dy="0.861925"/>
<feGaussianBlur stdDeviation="0.430962"/>
<feColorMatrix type="matrix" values="0 0 0 0 0 0 0 0 0 0 0 0 0 0 0 0 0 0 0.25 0"/>
<feBlend mode="normal" in2="BackgroundImageFix" result="effect1_dropShadow_502_458"/>
<feBlend mode="normal" in="SourceGraphic" in2="effect1_dropShadow_502_458" result="shape"/>
</filter>
<linearGradient id="paint0_linear_502_458" x1="0" y1="0" x2="343" y2="218" gradientUnits="userSpaceOnUse">
<stop stop-color="#BAE8FB"/>
<stop offset="1" stop-color="#B2B1FD"/>
</linearGradient>
<clipPath id="clip0_502_458">
<rect width="343" height="218" rx="16" fill="white"/>
</clipPath>
</defs>
</svg>
