<svg width="83" height="84" viewBox="0 0 83 84" fill="none" xmlns="http://www.w3.org/2000/svg">
<g filter="url(#filter0_d_603_9181)">
<g clip-path="url(#clip0_603_9181)">
<rect x="10" y="5" width="63" height="65" fill="#F57E96"/>
<rect x="23.4922" y="25.3162" width="2.97126" height="2.97126" fill="#C4C4C4"/>
<rect x="23.4922" y="31.2585" width="2.97126" height="2.97126" fill="#C4C4C4"/>
<rect x="20.521" y="37.2012" width="2.97126" height="2.97126" fill="#C4C4C4"/>
<rect x="20.521" y="43.1438" width="2.97126" height="2.97126" fill="#C4C4C4"/>
<rect x="26.4634" y="37.2012" width="2.97126" height="2.97126" fill="#C4C4C4"/>
<rect x="26.4634" y="25.3162" width="2.97126" height="2.97126" fill="#C4C4C4"/>
<rect x="26.4634" y="31.2585" width="2.97126" height="2.97126" fill="#C4C4C4"/>
<rect x="23.4922" y="37.2012" width="2.97126" height="2.97126" fill="#C4C4C4"/>
<rect x="29.4351" y="37.2012" width="2.97126" height="2.97126" fill="#C4C4C4"/>
<rect x="29.4351" y="46.115" width="2.97126" height="2.97126" fill="#C4C4C4"/>
<rect x="32.4062" y="46.115" width="2.97126" height="2.97126" fill="#C4C4C4"/>
<rect x="29.4351" y="34.23" width="2.97126" height="2.97126" fill="#C4C4C4"/>
<rect x="29.4351" y="43.1438" width="2.97126" height="2.97126" fill="#C4C4C4"/>
<rect x="35.3774" y="43.1438" width="2.97126" height="2.97126" fill="#C4C4C4"/>
<rect x="41.3198" y="43.1438" width="2.97126" height="2.97126" fill="#C4C4C4"/>
<rect x="41.3198" y="46.115" width="2.97126" height="2.97126" fill="#C4C4C4"/>
<rect x="47.2622" y="43.1438" width="2.97126" height="2.97126" fill="#C4C4C4"/>
<rect x="47.2622" y="46.115" width="2.97126" height="2.97126" fill="#C4C4C4"/>
<rect x="53.2051" y="43.1438" width="2.97126" height="2.97126" fill="#C4C4C4"/>
<rect x="53.2051" y="46.115" width="2.97126" height="2.97126" fill="#C4C4C4"/>
<rect x="53.2051" y="49.0862" width="2.97126" height="2.97126" fill="#C4C4C4"/>
<rect x="56.1763" y="49.0862" width="2.97126" height="2.97126" fill="#C4C4C4"/>
<rect x="32.4062" y="43.1438" width="2.97126" height="2.97126" fill="#C4C4C4"/>
<rect x="38.3486" y="43.1438" width="2.97126" height="2.97126" fill="#C4C4C4"/>
<rect x="44.291" y="43.1438" width="2.97126" height="2.97126" fill="#C4C4C4"/>
<rect x="50.2339" y="43.1438" width="2.97126" height="2.97126" fill="#C4C4C4"/>
<rect x="47.2622" y="40.1724" width="2.97126" height="2.97126" fill="#C4C4C4"/>
<rect x="41.3198" y="40.1724" width="2.97126" height="2.97126" fill="#C4C4C4"/>
<rect x="38.3486" y="40.1724" width="2.97126" height="2.97126" fill="#C4C4C4"/>
<rect x="38.3486" y="46.115" width="2.97126" height="2.97126" fill="#C4C4C4"/>
<rect x="44.291" y="34.23" width="2.97126" height="2.97126" fill="#C4C4C4"/>
<rect x="44.291" y="37.2012" width="2.97126" height="2.97126" fill="#C4C4C4"/>
<rect x="32.4062" y="34.23" width="2.97126" height="2.97126" fill="#C4C4C4"/>
<rect x="47.2622" y="34.23" width="2.97126" height="2.97126" fill="#C4C4C4"/>
<rect x="47.2622" y="37.2012" width="2.97126" height="2.97126" fill="#C4C4C4"/>
<rect x="47.2622" y="31.2585" width="2.97126" height="2.97126" fill="#C4C4C4"/>
<rect x="53.2051" y="31.2585" width="2.97126" height="2.97126" fill="#C4C4C4"/>
<rect x="53.2051" y="28.2874" width="2.97126" height="2.97126" fill="#C4C4C4"/>
<rect x="53.2051" y="25.3162" width="2.97126" height="2.97126" fill="#C4C4C4"/>
<rect x="53.2051" y="34.23" width="2.97126" height="2.97126" fill="#C4C4C4"/>
<rect x="35.3774" y="34.23" width="2.97126" height="2.97126" fill="#C4C4C4"/>
<rect x="50.2339" y="34.23" width="2.97126" height="2.97126" fill="#C4C4C4"/>
<rect x="50.2339" y="31.2585" width="2.97126" height="2.97126" fill="#C4C4C4"/>
<rect x="50.2339" y="28.2874" width="2.97126" height="2.97126" fill="#C4C4C4"/>
<rect x="56.1763" y="31.2585" width="2.97126" height="2.97126" fill="#C4C4C4"/>
<rect x="56.1763" y="37.2012" width="2.97126" height="2.97126" fill="#C4C4C4"/>
<rect x="59.1475" y="37.2012" width="2.97126" height="2.97126" fill="#C4C4C4"/>
<rect x="56.1763" y="28.2874" width="2.97126" height="2.97126" fill="#C4C4C4"/>
<rect x="56.1763" y="25.3162" width="2.97126" height="2.97126" fill="#C4C4C4"/>
<rect x="56.1763" y="34.23" width="2.97126" height="2.97126" fill="#C4C4C4"/>
<rect x="56.1763" y="40.1724" width="2.97126" height="2.97126" fill="#C4C4C4"/>
<rect x="59.1475" y="40.1724" width="2.97126" height="2.97126" fill="#C4C4C4"/>
<rect x="32.4062" y="31.2585" width="2.97126" height="2.97126" fill="#C4C4C4"/>
<rect x="29.4351" y="31.2585" width="2.97126" height="2.97126" fill="#C4C4C4"/>
<rect x="23.4922" y="28.2874" width="2.97126" height="2.97126" fill="#C4C4C4"/>
<rect x="23.4922" y="34.23" width="2.97126" height="2.97126" fill="#C4C4C4"/>
<rect x="38.3486" y="34.23" width="2.97126" height="2.97126" fill="#C4C4C4"/>
<rect x="38.3486" y="37.2012" width="2.97126" height="2.97126" fill="#C4C4C4"/>
<rect x="20.521" y="40.1724" width="2.97126" height="2.97126" fill="#C4C4C4"/>
<rect x="20.521" y="46.115" width="2.97126" height="2.97126" fill="#C4C4C4"/>
<rect x="26.4634" y="40.1724" width="2.97126" height="2.97126" fill="#C4C4C4"/>
<rect x="29.4351" y="28.2874" width="2.97126" height="2.97126" fill="#C4C4C4"/>
<rect x="26.4634" y="28.2874" width="2.97126" height="2.97126" fill="#C4C4C4"/>
<rect x="26.4634" y="34.23" width="2.97126" height="2.97126" fill="#C4C4C4"/>
<rect x="41.3198" y="34.23" width="2.97126" height="2.97126" fill="#C4C4C4"/>
<rect x="41.3198" y="37.2012" width="2.97126" height="2.97126" fill="#C4C4C4"/>
<rect x="23.4922" y="40.1724" width="2.97126" height="2.97126" fill="#C4C4C4"/>
<rect x="29.4351" y="40.1724" width="2.97126" height="2.97126" fill="#C4C4C4"/>
<rect x="29.4351" y="49.0862" width="2.97126" height="2.97126" fill="#C4C4C4"/>
<rect x="23.4922" y="49.0862" width="2.97126" height="2.97126" fill="#C4C4C4"/>
<rect x="26.4634" y="52.0574" width="2.97126" height="2.97126" fill="#C4C4C4"/>
<rect x="38.3486" y="52.0574" width="2.97126" height="2.97126" fill="#C4C4C4"/>
<rect x="32.4062" y="52.0574" width="2.97126" height="2.97126" fill="#C4C4C4"/>
<rect x="44.291" y="52.0574" width="2.97126" height="2.97126" fill="#C4C4C4"/>
<rect x="50.2339" y="52.0574" width="2.97126" height="2.97126" fill="#C4C4C4"/>
<rect x="32.4062" y="49.0862" width="2.97126" height="2.97126" fill="#C4C4C4"/>
<rect x="26.4634" y="49.0862" width="2.97126" height="2.97126" fill="#C4C4C4"/>
<rect x="29.4351" y="52.0574" width="2.97126" height="2.97126" fill="#C4C4C4"/>
<rect x="41.3198" y="52.0574" width="2.97126" height="2.97126" fill="#C4C4C4"/>
<rect x="35.3774" y="52.0574" width="2.97126" height="2.97126" fill="#C4C4C4"/>
<rect x="47.2622" y="52.0574" width="2.97126" height="2.97126" fill="#C4C4C4"/>
<rect x="53.2051" y="52.0574" width="2.97126" height="2.97126" fill="#C4C4C4"/>
<rect x="20.521" y="25.3162" width="2.97126" height="2.97126" fill="black"/>
<rect x="23.4922" y="22.345" width="2.97126" height="2.97126" fill="black"/>
<rect x="26.4634" y="22.345" width="2.97126" height="2.97126" fill="black"/>
<rect x="29.4351" y="25.3162" width="2.97126" height="2.97126" fill="black"/>
<rect x="32.4062" y="28.2874" width="2.97126" height="2.97126" fill="black"/>
<rect x="35.3774" y="31.2585" width="2.97126" height="2.97126" fill="black"/>
<rect x="38.3486" y="31.2585" width="2.97126" height="2.97126" fill="black"/>
<rect x="41.3198" y="31.2585" width="2.97126" height="2.97126" fill="black"/>
<rect x="44.291" y="31.2585" width="2.97126" height="2.97126" fill="black"/>
<rect x="47.2622" y="28.2874" width="2.97126" height="2.97126" fill="black"/>
<rect x="50.2339" y="25.3162" width="2.97126" height="2.97126" fill="black"/>
<rect x="53.2051" y="22.345" width="2.97126" height="2.97126" fill="black"/>
<rect x="56.1763" y="22.345" width="2.97126" height="2.97126" fill="black"/>
<rect x="59.1475" y="25.3162" width="2.97126" height="2.97126" fill="black"/>
<rect x="59.1475" y="28.2874" width="2.97126" height="2.97126" fill="black"/>
<rect x="59.1475" y="31.2585" width="2.97126" height="2.97126" fill="black"/>
<rect x="59.1475" y="34.23" width="2.97126" height="2.97126" fill="black"/>
<rect x="20.521" y="28.2874" width="2.97126" height="2.97126" fill="black"/>
<rect x="20.521" y="31.2585" width="2.97126" height="2.97126" fill="black"/>
<rect x="20.521" y="34.23" width="2.97126" height="2.97126" fill="black"/>
<rect x="17.5498" y="37.2012" width="2.97126" height="2.97126" fill="black"/>
<rect x="17.5498" y="40.1724" width="2.97126" height="2.97126" fill="black"/>
<rect x="17.5498" y="43.1438" width="2.97126" height="2.97126" fill="black"/>
<rect x="17.5498" y="46.115" width="2.97126" height="2.97126" fill="black"/>
<rect x="20.521" y="49.0862" width="2.97126" height="2.97126" fill="black"/>
<rect x="23.4922" y="52.0574" width="2.97126" height="2.97126" fill="black"/>
<rect x="26.4634" y="55.0288" width="2.97126" height="2.97126" fill="black"/>
<rect x="29.4351" y="55.0288" width="2.97126" height="2.97126" fill="black"/>
<rect x="32.4062" y="55.0288" width="2.97126" height="2.97126" fill="black"/>
<rect x="35.3774" y="55.0288" width="2.97126" height="2.97126" fill="black"/>
<rect x="38.3486" y="55.0288" width="2.97126" height="2.97126" fill="black"/>
<rect x="41.3198" y="55.0288" width="2.97126" height="2.97126" fill="black"/>
<rect x="44.291" y="55.0288" width="2.97126" height="2.97126" fill="black"/>
<rect x="44.291" y="40.1724" width="2.97126" height="2.97126" fill="black"/>
<rect x="35.3774" y="46.115" width="2.97126" height="2.97126" fill="black"/>
<rect x="35.3774" y="49.0862" width="2.97126" height="2.97126" fill="black"/>
<rect x="38.3486" y="49.0862" width="2.97126" height="2.97126" fill="black"/>
<rect x="41.3198" y="49.0862" width="2.97126" height="2.97126" fill="black"/>
<rect x="44.291" y="49.0862" width="2.97126" height="2.97126" fill="black"/>
<rect x="47.2622" y="49.0862" width="2.97126" height="2.97126" fill="black"/>
<rect x="50.2339" y="49.0862" width="2.97126" height="2.97126" fill="black"/>
<rect x="50.2339" y="46.115" width="2.97126" height="2.97126" fill="black"/>
<rect x="44.291" y="46.115" width="2.97126" height="2.97126" fill="black"/>
<rect x="53.2051" y="40.1724" width="2.97126" height="2.97126" fill="black"/>
<rect x="35.3774" y="40.1724" width="2.97126" height="2.97126" fill="black"/>
<rect x="50.2339" y="40.1724" width="2.97126" height="2.97126" fill="black"/>
<rect x="32.4062" y="40.1724" width="2.97126" height="2.97126" fill="black"/>
<rect x="53.2051" y="37.2012" width="2.97126" height="2.97126" fill="black"/>
<rect x="35.3774" y="37.2012" width="2.97126" height="2.97126" fill="black"/>
<rect x="50.2339" y="37.2012" width="2.97126" height="2.97126" fill="white"/>
<rect x="32.4062" y="37.2012" width="2.97126" height="2.97126" fill="white"/>
<rect x="23.4922" y="46.115" width="2.97126" height="2.97126" fill="#FFAED7"/>
<rect x="56.1763" y="46.115" width="2.97126" height="2.97126" fill="#FFAED7"/>
<rect x="26.4634" y="46.115" width="2.97126" height="2.97126" fill="#FFAED7"/>
<rect x="59.1475" y="46.115" width="2.97126" height="2.97126" fill="#FFAED7"/>
<rect x="26.4634" y="43.1438" width="2.97126" height="2.97126" fill="#FFAED7"/>
<rect x="59.1475" y="43.1438" width="2.97126" height="2.97126" fill="#FFAED7"/>
<rect x="23.4922" y="43.1438" width="2.97126" height="2.97126" fill="#FFAED7"/>
<rect x="56.1763" y="43.1438" width="2.97126" height="2.97126" fill="#FFAED7"/>
<rect x="47.2622" y="55.0288" width="2.97126" height="2.97126" fill="black"/>
<rect x="50.2339" y="55.0288" width="2.97126" height="2.97126" fill="black"/>
<rect x="56.1763" y="52.0574" width="2.97126" height="2.97126" fill="black"/>
<rect x="53.2051" y="55.0288" width="2.97126" height="2.97126" fill="black"/>
<rect x="59.1475" y="49.0862" width="2.97126" height="2.97126" fill="black"/>
<rect x="62.1187" y="46.115" width="2.97126" height="2.97126" fill="black"/>
<rect x="62.1187" y="43.1438" width="2.97126" height="2.97126" fill="black"/>
<rect x="62.1187" y="40.1724" width="2.97126" height="2.97126" fill="black"/>
<rect x="62.1187" y="37.2012" width="2.97126" height="2.97126" fill="black"/>
</g>
<rect x="7" y="3" width="68.9215" height="70" rx="15" stroke="#D26178" stroke-width="6" shape-rendering="crispEdges"/>
</g>
<defs>
<filter id="filter0_d_603_9181" x="0" y="0" width="82.9214" height="84" filterUnits="userSpaceOnUse" color-interpolation-filters="sRGB">
<feFlood flood-opacity="0" result="BackgroundImageFix"/>
<feColorMatrix in="SourceAlpha" type="matrix" values="0 0 0 0 0 0 0 0 0 0 0 0 0 0 0 0 0 0 127 0" result="hardAlpha"/>
<feOffset dy="4"/>
<feGaussianBlur stdDeviation="2"/>
<feComposite in2="hardAlpha" operator="out"/>
<feColorMatrix type="matrix" values="0 0 0 0 0 0 0 0 0 0 0 0 0 0 0 0 0 0 0.25 0"/>
<feBlend mode="normal" in2="BackgroundImageFix" result="effect1_dropShadow_603_9181"/>
<feBlend mode="normal" in="SourceGraphic" in2="effect1_dropShadow_603_9181" result="shape"/>
</filter>
<clipPath id="clip0_603_9181">
<rect x="10" y="6" width="62.9215" height="64" rx="12" fill="white"/>
</clipPath>
</defs>
</svg>
