<svg width="24" height="26" viewBox="0 0 24 26" fill="none" xmlns="http://www.w3.org/2000/svg">
<rect x="18.1997" y="5.2002" width="18.2" height="13" transform="rotate(90 18.1997 5.2002)" fill="#C84646"/>
<rect x="2.6001" y="7.80005" width="18.2" height="13" fill="#C84646"/>
<rect y="10.3999" width="23.4" height="9.1" fill="#C84646"/>
<rect x="5.2002" y="26" width="20.8" height="10.4" transform="rotate(-90 5.2002 26)" fill="#C84646"/>
<rect x="10.4004" y="5.2002" width="2.6" height="2.6" fill="#4C3B29"/>
<rect x="7.80029" y="5.2002" width="2.6" height="2.6" fill="#439855"/>
<rect x="13" y="23.3999" width="2.6" height="2.6" fill="#951B1B"/>
<rect x="15.6001" y="20.8" width="2.6" height="2.6" fill="#951B1B"/>
<rect x="15.6001" y="23.3999" width="2.6" height="2.6" fill="#951B1B"/>
<rect x="10.4004" y="23.3999" width="2.6" height="2.6" fill="#951B1B"/>
<rect x="18.1997" y="20.8" width="2.6" height="2.6" fill="#439855"/>
<rect x="18.1997" y="18.2" width="2.6" height="2.6" fill="#951B1B"/>
<rect x="20.7998" y="18.2" width="2.6" height="2.6" fill="#951B1B"/>
<rect x="20.7998" y="15.6001" width="2.6" height="2.6" fill="#951B1B"/>
<rect x="13" y="5.2002" width="2.6" height="2.6" fill="#951B1B"/>
<rect x="18.1997" y="7.80005" width="2.6" height="2.6" fill="#951B1B"/>
<rect y="18.2" width="2.6" height="2.6" fill="#C84646"/>
<path d="M5.2002 2.6001H7.8002V5.2001H5.2002V2.6001Z" fill="#439855"/>
<rect x="7.80029" y="2.6001" width="2.6" height="2.6" fill="#439855"/>
<rect x="10.4004" y="2.6001" width="2.6" height="2.6" fill="#4C3B29"/>
<rect x="13" width="2.6" height="2.6" fill="#4C3B29"/>
<rect x="2.6001" y="20.8" width="2.6" height="2.6" fill="#C84646"/>
<rect x="18.1997" y="20.8" width="2.6" height="2.6" fill="#951B1B"/>
<rect x="5.2002" y="10.3999" width="5.2" height="5.2" fill="#F5A4A4"/>
<rect x="10.4004" y="10.3999" width="2.6" height="2.6" fill="#F5A4A4"/>
<rect x="2.6001" y="13" width="2.6" height="2.6" fill="#F5A4A4"/>
<rect x="5.2002" y="15.6001" width="2.6" height="2.6" fill="#F5A4A4"/>
</svg>
