<svg width="287" height="108" viewBox="0 0 287 108" fill="none" xmlns="http://www.w3.org/2000/svg">
<path d="M6.4194 36.5649H0V42.9843H6.4194V36.5649Z" fill="#FFA500"/>
<path d="M6.4194 62.2424H0V68.6618H6.4194V62.2424Z" fill="#00FF00"/>
<path d="M6.4194 87.9202H0V94.3396H6.4194V87.9202Z" fill="#9400D3"/>
<path d="M32.0971 91.1299H25.6777V97.5493H32.0971V91.1299Z" fill="#9400D3"/>
<path d="M57.7744 87.9202H51.355V94.3396H57.7744V87.9202Z" fill="#9400D3"/>
<path d="M83.4521 91.1299H77.0327V97.5493H83.4521V91.1299Z" fill="#9400D3"/>
<path d="M109.129 87.9202H102.71V94.3396H109.129V87.9202Z" fill="#9400D3"/>
<path d="M134.808 91.1299H128.388V97.5493H134.808V91.1299Z" fill="#9400D3"/>
<path d="M32.0971 65.4521H25.6777V71.8715H32.0971V65.4521Z" fill="#00FF00"/>
<path d="M57.7744 62.2424H51.355V68.6618H57.7744V62.2424Z" fill="#00FF00"/>
<path d="M83.4521 65.4521H77.0327V71.8715H83.4521V65.4521Z" fill="#00FF00"/>
<path d="M109.129 62.2424H102.71V68.6618H109.129V62.2424Z" fill="#00FF00"/>
<path d="M134.808 65.4521H128.388V71.8715H134.808V65.4521Z" fill="#00FF00"/>
<path d="M32.0971 39.7747H25.6777V46.1941H32.0971V39.7747Z" fill="#FFA500"/>
<path d="M57.7744 36.5649H51.355V42.9843H57.7744V36.5649Z" fill="#FFA500"/>
<path d="M83.4521 39.7747H77.0327V46.1941H83.4521V39.7747Z" fill="#FFA500"/>
<path d="M109.129 36.5649H102.71V42.9843H109.129V36.5649Z" fill="#FFA500"/>
<path d="M134.808 39.7747H128.388V46.1941H134.808V39.7747Z" fill="#FFA500"/>
<path d="M6.4194 42.9844H0V49.4038H6.4194V42.9844Z" fill="#FFA500"/>
<path d="M6.4194 68.6619H0V75.0813H6.4194V68.6619Z" fill="#00FF00"/>
<path d="M6.4194 94.3396H0V100.759H6.4194V94.3396Z" fill="#9400D3"/>
<path d="M32.0971 97.5491H25.6777V103.968H32.0971V97.5491Z" fill="#9400D3"/>
<path d="M57.7744 94.3396H51.355V100.759H57.7744V94.3396Z" fill="#9400D3"/>
<path d="M83.4521 97.5491H77.0327V103.968H83.4521V97.5491Z" fill="#9400D3"/>
<path d="M109.129 94.3396H102.71V100.759H109.129V94.3396Z" fill="#9400D3"/>
<path d="M134.808 97.5491H128.388V103.968H134.808V97.5491Z" fill="#9400D3"/>
<path d="M32.0971 71.8716H25.6777V78.291H32.0971V71.8716Z" fill="#00FF00"/>
<path d="M57.7744 68.6619H51.355V75.0813H57.7744V68.6619Z" fill="#00FF00"/>
<path d="M83.4521 71.8716H77.0327V78.291H83.4521V71.8716Z" fill="#00FF00"/>
<path d="M109.129 68.6619H102.71V75.0813H109.129V68.6619Z" fill="#00FF00"/>
<path d="M134.808 71.8716H128.388V78.291H134.808V71.8716Z" fill="#00FF00"/>
<path d="M32.0971 46.1941H25.6777V52.6135H32.0971V46.1941Z" fill="#FFA500"/>
<path d="M57.7744 42.9844H51.355V49.4038H57.7744V42.9844Z" fill="#FFA500"/>
<path d="M83.4521 46.1941H77.0327V52.6135H83.4521V46.1941Z" fill="#FFA500"/>
<path d="M109.129 42.9844H102.71V49.4038H109.129V42.9844Z" fill="#FFA500"/>
<path d="M134.808 46.1941H128.388V52.6135H134.808V46.1941Z" fill="#FFA500"/>
<path d="M12.8388 36.5649H6.41943V42.9843H12.8388V36.5649Z" fill="#FFA500"/>
<path d="M12.8388 62.2424H6.41943V68.6618H12.8388V62.2424Z" fill="#00FF00"/>
<path d="M12.8388 87.9202H6.41943V94.3396H12.8388V87.9202Z" fill="#9400D3"/>
<path d="M38.5166 91.1299H32.0972V97.5493H38.5166V91.1299Z" fill="#9400D3"/>
<path d="M64.1938 87.9202H57.7744V94.3396H64.1938V87.9202Z" fill="#9400D3"/>
<path d="M89.8715 91.1299H83.4521V97.5493H89.8715V91.1299Z" fill="#9400D3"/>
<path d="M115.549 87.9202H109.13V94.3396H115.549V87.9202Z" fill="#9400D3"/>
<path d="M141.228 91.1299H134.808V97.5493H141.228V91.1299Z" fill="#9400D3"/>
<path d="M38.5166 65.4521H32.0972V71.8715H38.5166V65.4521Z" fill="#00FF00"/>
<path d="M64.1938 62.2424H57.7744V68.6618H64.1938V62.2424Z" fill="#00FF00"/>
<path d="M89.8715 65.4521H83.4521V71.8715H89.8715V65.4521Z" fill="#00FF00"/>
<path d="M115.549 62.2424H109.13V68.6618H115.549V62.2424Z" fill="#00FF00"/>
<path d="M141.228 65.4521H134.808V71.8715H141.228V65.4521Z" fill="#00FF00"/>
<path d="M38.5166 39.7747H32.0972V46.1941H38.5166V39.7747Z" fill="#FFA500"/>
<path d="M64.1938 36.5649H57.7744V42.9843H64.1938V36.5649Z" fill="#FFA500"/>
<path d="M89.8715 39.7747H83.4521V46.1941H89.8715V39.7747Z" fill="#FFA500"/>
<path d="M115.549 36.5649H109.13V42.9843H115.549V36.5649Z" fill="#FFA500"/>
<path d="M141.228 39.7747H134.808V46.1941H141.228V39.7747Z" fill="#FFA500"/>
<path d="M12.8388 42.9844H6.41943V49.4038H12.8388V42.9844Z" fill="#FFA500"/>
<path d="M12.8388 68.6619H6.41943V75.0813H12.8388V68.6619Z" fill="#00FF00"/>
<path d="M12.8388 94.3396H6.41943V100.759H12.8388V94.3396Z" fill="#9400D3"/>
<path d="M38.5166 97.5491H32.0972V103.968H38.5166V97.5491Z" fill="#9400D3"/>
<path d="M64.1938 94.3396H57.7744V100.759H64.1938V94.3396Z" fill="#9400D3"/>
<path d="M89.8715 97.5491H83.4521V103.968H89.8715V97.5491Z" fill="#9400D3"/>
<path d="M115.549 94.3396H109.13V100.759H115.549V94.3396Z" fill="#9400D3"/>
<path d="M141.228 97.5491H134.808V103.968H141.228V97.5491Z" fill="#9400D3"/>
<path d="M38.5166 71.8716H32.0972V78.291H38.5166V71.8716Z" fill="#00FF00"/>
<path d="M64.1938 68.6619H57.7744V75.0813H64.1938V68.6619Z" fill="#00FF00"/>
<path d="M89.8715 71.8716H83.4521V78.291H89.8715V71.8716Z" fill="#00FF00"/>
<path d="M115.549 68.6619H109.13V75.0813H115.549V68.6619Z" fill="#00FF00"/>
<path d="M141.228 71.8716H134.808V78.291H141.228V71.8716Z" fill="#00FF00"/>
<path d="M38.5166 46.1941H32.0972V52.6135H38.5166V46.1941Z" fill="#FFA500"/>
<path d="M64.1938 42.9844H57.7744V49.4038H64.1938V42.9844Z" fill="#FFA500"/>
<path d="M89.8715 46.1941H83.4521V52.6135H89.8715V46.1941Z" fill="#FFA500"/>
<path d="M115.549 42.9844H109.13V49.4038H115.549V42.9844Z" fill="#FFA500"/>
<path d="M141.228 46.1941H134.808V52.6135H141.228V46.1941Z" fill="#FFA500"/>
<path d="M19.2583 36.5649H12.8389V42.9843H19.2583V36.5649Z" fill="#FFA500"/>
<path d="M19.2583 62.2424H12.8389V68.6618H19.2583V62.2424Z" fill="#00FF00"/>
<path d="M19.2583 87.9202H12.8389V94.3396H19.2583V87.9202Z" fill="#9400D3"/>
<path d="M44.936 91.1299H38.5166V97.5493H44.936V91.1299Z" fill="#9400D3"/>
<path d="M70.6132 87.9202H64.1938V94.3396H70.6132V87.9202Z" fill="#9400D3"/>
<path d="M96.291 91.1299H89.8716V97.5493H96.291V91.1299Z" fill="#9400D3"/>
<path d="M121.968 87.9202H115.549V94.3396H121.968V87.9202Z" fill="#9400D3"/>
<path d="M147.646 91.1299H141.227V97.5493H147.646V91.1299Z" fill="#9400D3"/>
<path d="M44.936 65.4521H38.5166V71.8715H44.936V65.4521Z" fill="#00FF00"/>
<path d="M70.6132 62.2424H64.1938V68.6618H70.6132V62.2424Z" fill="#00FF00"/>
<path d="M96.291 65.4521H89.8716V71.8715H96.291V65.4521Z" fill="#00FF00"/>
<path d="M121.968 62.2424H115.549V68.6618H121.968V62.2424Z" fill="#00FF00"/>
<path d="M147.646 65.4521H141.227V71.8715H147.646V65.4521Z" fill="#00FF00"/>
<path d="M44.936 39.7747H38.5166V46.1941H44.936V39.7747Z" fill="#FFA500"/>
<path d="M70.6132 36.5649H64.1938V42.9843H70.6132V36.5649Z" fill="#FFA500"/>
<path d="M96.291 39.7747H89.8716V46.1941H96.291V39.7747Z" fill="#FFA500"/>
<path d="M121.968 36.5649H115.549V42.9843H121.968V36.5649Z" fill="#FFA500"/>
<path d="M147.646 39.7747H141.227V46.1941H147.646V39.7747Z" fill="#FFA500"/>
<path d="M19.2583 42.9844H12.8389V49.4038H19.2583V42.9844Z" fill="#FFA500"/>
<path d="M19.2583 68.6619H12.8389V75.0813H19.2583V68.6619Z" fill="#00FF00"/>
<path d="M19.2583 94.3396H12.8389V100.759H19.2583V94.3396Z" fill="#9400D3"/>
<path d="M44.936 97.5491H38.5166V103.968H44.936V97.5491Z" fill="#9400D3"/>
<path d="M70.6132 94.3396H64.1938V100.759H70.6132V94.3396Z" fill="#9400D3"/>
<path d="M96.291 97.5491H89.8716V103.968H96.291V97.5491Z" fill="#9400D3"/>
<path d="M121.968 94.3396H115.549V100.759H121.968V94.3396Z" fill="#9400D3"/>
<path d="M147.646 97.5491H141.227V103.968H147.646V97.5491Z" fill="#9400D3"/>
<path d="M44.936 71.8716H38.5166V78.291H44.936V71.8716Z" fill="#00FF00"/>
<path d="M70.6132 68.6619H64.1938V75.0813H70.6132V68.6619Z" fill="#00FF00"/>
<path d="M96.291 71.8716H89.8716V78.291H96.291V71.8716Z" fill="#00FF00"/>
<path d="M121.968 68.6619H115.549V75.0813H121.968V68.6619Z" fill="#00FF00"/>
<path d="M147.646 71.8716H141.227V78.291H147.646V71.8716Z" fill="#00FF00"/>
<path d="M44.936 46.1941H38.5166V52.6135H44.936V46.1941Z" fill="#FFA500"/>
<path d="M70.6132 42.9844H64.1938V49.4038H70.6132V42.9844Z" fill="#FFA500"/>
<path d="M96.291 46.1941H89.8716V52.6135H96.291V46.1941Z" fill="#FFA500"/>
<path d="M121.968 42.9844H115.549V49.4038H121.968V42.9844Z" fill="#FFA500"/>
<path d="M147.646 46.1941H141.227V52.6135H147.646V46.1941Z" fill="#FFA500"/>
<path d="M25.6777 36.5649H19.2583V42.9843H25.6777V36.5649Z" fill="#FFA500"/>
<path d="M25.6777 62.2424H19.2583V68.6618H25.6777V62.2424Z" fill="#00FF00"/>
<path d="M25.6777 87.9202H19.2583V94.3396H25.6777V87.9202Z" fill="#9400D3"/>
<path d="M51.3554 91.1299H44.936V97.5493H51.3554V91.1299Z" fill="#9400D3"/>
<path d="M77.0327 87.9202H70.6133V94.3396H77.0327V87.9202Z" fill="#9400D3"/>
<path d="M102.71 91.1299H96.291V97.5493H102.71V91.1299Z" fill="#9400D3"/>
<path d="M128.389 87.9202H121.969V94.3396H128.389V87.9202Z" fill="#9400D3"/>
<path d="M154.065 91.1299H147.646V97.5493H154.065V91.1299Z" fill="#9400D3"/>
<path d="M51.3554 65.4521H44.936V71.8715H51.3554V65.4521Z" fill="#00FF00"/>
<path d="M77.0327 62.2424H70.6133V68.6618H77.0327V62.2424Z" fill="#00FF00"/>
<path d="M102.71 65.4521H96.291V71.8715H102.71V65.4521Z" fill="#00FF00"/>
<path d="M128.389 62.2424H121.969V68.6618H128.389V62.2424Z" fill="#00FF00"/>
<path d="M154.065 65.4521H147.646V71.8715H154.065V65.4521Z" fill="#00FF00"/>
<path d="M51.3554 39.7747H44.936V46.1941H51.3554V39.7747Z" fill="#FFA500"/>
<path d="M77.0327 36.5649H70.6133V42.9843H77.0327V36.5649Z" fill="#FFA500"/>
<path d="M102.71 39.7747H96.291V46.1941H102.71V39.7747Z" fill="#FFA500"/>
<path d="M128.389 36.5649H121.969V42.9843H128.389V36.5649Z" fill="#FFA500"/>
<path d="M154.065 39.7747H147.646V46.1941H154.065V39.7747Z" fill="#FFA500"/>
<path d="M25.6777 42.9844H19.2583V49.4038H25.6777V42.9844Z" fill="#FFA500"/>
<path d="M25.6777 68.6619H19.2583V75.0813H25.6777V68.6619Z" fill="#00FF00"/>
<path d="M25.6777 94.3396H19.2583V100.759H25.6777V94.3396Z" fill="#9400D3"/>
<path d="M51.3554 97.5491H44.936V103.968H51.3554V97.5491Z" fill="#9400D3"/>
<path d="M77.0327 94.3396H70.6133V100.759H77.0327V94.3396Z" fill="#9400D3"/>
<path d="M102.71 97.5491H96.291V103.968H102.71V97.5491Z" fill="#9400D3"/>
<path d="M128.389 94.3396H121.969V100.759H128.389V94.3396Z" fill="#9400D3"/>
<path d="M154.065 97.5491H147.646V103.968H154.065V97.5491Z" fill="#9400D3"/>
<path d="M51.3554 71.8716H44.936V78.291H51.3554V71.8716Z" fill="#00FF00"/>
<path d="M77.0327 68.6619H70.6133V75.0813H77.0327V68.6619Z" fill="#00FF00"/>
<path d="M102.71 71.8716H96.291V78.291H102.71V71.8716Z" fill="#00FF00"/>
<path d="M128.389 68.6619H121.969V75.0813H128.389V68.6619Z" fill="#00FF00"/>
<path d="M154.065 71.8716H147.646V78.291H154.065V71.8716Z" fill="#00FF00"/>
<path d="M51.3554 46.1941H44.936V52.6135H51.3554V46.1941Z" fill="#FFA500"/>
<path d="M77.0327 42.9844H70.6133V49.4038H77.0327V42.9844Z" fill="#FFA500"/>
<path d="M102.71 46.1941H96.291V52.6135H102.71V46.1941Z" fill="#FFA500"/>
<path d="M128.389 42.9844H121.969V49.4038H128.389V42.9844Z" fill="#FFA500"/>
<path d="M154.065 46.1941H147.646V52.6135H154.065V46.1941Z" fill="#FFA500"/>
<path d="M57.7744 23.7261H51.355V30.1455H57.7744V23.7261Z" fill="#FF0000"/>
<path d="M32.0971 26.9358H25.6777V33.3552H32.0971V26.9358Z" fill="#FF0000"/>
<path d="M6.4194 23.7261H0V30.1455H6.4194V23.7261Z" fill="#FF0000"/>
<path d="M6.4194 75.0813H0V81.5007H6.4194V75.0813Z" fill="#0096FF"/>
<path d="M32.0971 78.291H25.6777V84.7104H32.0971V78.291Z" fill="#0096FF"/>
<path d="M57.7744 75.0813H51.355V81.5007H57.7744V75.0813Z" fill="#0096FF"/>
<path d="M83.4521 78.291H77.0327V84.7104H83.4521V78.291Z" fill="#0096FF"/>
<path d="M109.129 75.0813H102.71V81.5007H109.129V75.0813Z" fill="#0096FF"/>
<path d="M134.808 78.291H128.388V84.7104H134.808V78.291Z" fill="#0096FF"/>
<path d="M6.4194 49.4036H0V55.823H6.4194V49.4036Z" fill="#FFFF00"/>
<path d="M32.0971 52.6133H25.6777V59.0327H32.0971V52.6133Z" fill="#FFFF00"/>
<path d="M57.7744 49.4036H51.355V55.823H57.7744V49.4036Z" fill="#FFFF00"/>
<path d="M83.4521 52.6133H77.0327V59.0327H83.4521V52.6133Z" fill="#FFFF00"/>
<path d="M109.129 49.4036H102.71V55.823H109.129V49.4036Z" fill="#FFFF00"/>
<path d="M134.808 52.6133H128.388V59.0327H134.808V52.6133Z" fill="#FFFF00"/>
<path d="M83.4521 26.9358H77.0327V33.3552H83.4521V26.9358Z" fill="#FF0000"/>
<path d="M109.129 23.7261H102.71V30.1455H109.129V23.7261Z" fill="#FF0000"/>
<path d="M134.808 26.9358H128.388V33.3552H134.808V26.9358Z" fill="#FF0000"/>
<path d="M57.7744 30.1455H51.355V36.5649H57.7744V30.1455Z" fill="#FF0000"/>
<path d="M32.0971 33.3552H25.6777V39.7746H32.0971V33.3552Z" fill="#FF0000"/>
<path d="M6.4194 30.1455H0V36.5649H6.4194V30.1455Z" fill="#FF0000"/>
<path d="M6.4194 81.5007H0V87.9201H6.4194V81.5007Z" fill="#0096FF"/>
<path d="M32.0971 84.7104H25.6777V91.1298H32.0971V84.7104Z" fill="#0096FF"/>
<path d="M57.7744 81.5007H51.355V87.9201H57.7744V81.5007Z" fill="#0096FF"/>
<path d="M83.4521 84.7104H77.0327V91.1298H83.4521V84.7104Z" fill="#0096FF"/>
<path d="M109.129 81.5007H102.71V87.9201H109.129V81.5007Z" fill="#0096FF"/>
<path d="M134.808 84.7104H128.388V91.1298H134.808V84.7104Z" fill="#0096FF"/>
<path d="M6.4194 55.823H0V62.2424H6.4194V55.823Z" fill="#FFFF00"/>
<path d="M32.0971 59.0327H25.6777V65.4521H32.0971V59.0327Z" fill="#FFFF00"/>
<path d="M57.7744 55.823H51.355V62.2424H57.7744V55.823Z" fill="#FFFF00"/>
<path d="M83.4521 59.0327H77.0327V65.4521H83.4521V59.0327Z" fill="#FFFF00"/>
<path d="M109.129 55.823H102.71V62.2424H109.129V55.823Z" fill="#FFFF00"/>
<path d="M134.808 59.0327H128.388V65.4521H134.808V59.0327Z" fill="#FFFF00"/>
<path d="M83.4521 33.3552H77.0327V39.7746H83.4521V33.3552Z" fill="#FF0000"/>
<path d="M109.129 30.1455H102.71V36.5649H109.129V30.1455Z" fill="#FF0000"/>
<path d="M134.808 33.3552H128.388V39.7746H134.808V33.3552Z" fill="#FF0000"/>
<path d="M64.1938 23.7261H57.7744V30.1455H64.1938V23.7261Z" fill="#FF0000"/>
<path d="M38.5166 26.9358H32.0972V33.3552H38.5166V26.9358Z" fill="#FF0000"/>
<path d="M12.8388 23.7261H6.41943V30.1455H12.8388V23.7261Z" fill="#FF0000"/>
<path d="M12.8388 75.0813H6.41943V81.5007H12.8388V75.0813Z" fill="#0096FF"/>
<path d="M38.5166 78.291H32.0972V84.7104H38.5166V78.291Z" fill="#0096FF"/>
<path d="M64.1938 75.0813H57.7744V81.5007H64.1938V75.0813Z" fill="#0096FF"/>
<path d="M89.8715 78.291H83.4521V84.7104H89.8715V78.291Z" fill="#0096FF"/>
<path d="M115.549 75.0813H109.13V81.5007H115.549V75.0813Z" fill="#0096FF"/>
<path d="M141.228 78.291H134.808V84.7104H141.228V78.291Z" fill="#0096FF"/>
<path d="M12.8388 49.4036H6.41943V55.823H12.8388V49.4036Z" fill="#FFFF00"/>
<path d="M38.5166 52.6133H32.0972V59.0327H38.5166V52.6133Z" fill="#FFFF00"/>
<path d="M64.1938 49.4036H57.7744V55.823H64.1938V49.4036Z" fill="#FFFF00"/>
<path d="M89.8715 52.6133H83.4521V59.0327H89.8715V52.6133Z" fill="#FFFF00"/>
<path d="M115.549 49.4036H109.13V55.823H115.549V49.4036Z" fill="#FFFF00"/>
<path d="M141.228 52.6133H134.808V59.0327H141.228V52.6133Z" fill="#FFFF00"/>
<path d="M89.8715 26.9358H83.4521V33.3552H89.8715V26.9358Z" fill="#FF0000"/>
<path d="M115.549 23.7261H109.13V30.1455H115.549V23.7261Z" fill="#FF0000"/>
<path d="M141.228 26.9358H134.808V33.3552H141.228V26.9358Z" fill="#FF0000"/>
<path d="M64.1938 30.1455H57.7744V36.5649H64.1938V30.1455Z" fill="#FF0000"/>
<path d="M38.5166 33.3552H32.0972V39.7746H38.5166V33.3552Z" fill="#FF0000"/>
<path d="M12.8388 30.1455H6.41943V36.5649H12.8388V30.1455Z" fill="#FF0000"/>
<path d="M12.8388 81.5007H6.41943V87.9201H12.8388V81.5007Z" fill="#0096FF"/>
<path d="M38.5166 84.7104H32.0972V91.1298H38.5166V84.7104Z" fill="#0096FF"/>
<path d="M64.1938 81.5007H57.7744V87.9201H64.1938V81.5007Z" fill="#0096FF"/>
<path d="M89.8715 84.7104H83.4521V91.1298H89.8715V84.7104Z" fill="#0096FF"/>
<path d="M115.549 81.5007H109.13V87.9201H115.549V81.5007Z" fill="#0096FF"/>
<path d="M141.228 84.7104H134.808V91.1298H141.228V84.7104Z" fill="#0096FF"/>
<path d="M12.8388 55.823H6.41943V62.2424H12.8388V55.823Z" fill="#FFFF00"/>
<path d="M38.5166 59.0327H32.0972V65.4521H38.5166V59.0327Z" fill="#FFFF00"/>
<path d="M64.1938 55.823H57.7744V62.2424H64.1938V55.823Z" fill="#FFFF00"/>
<path d="M89.8715 59.0327H83.4521V65.4521H89.8715V59.0327Z" fill="#FFFF00"/>
<path d="M115.549 55.823H109.13V62.2424H115.549V55.823Z" fill="#FFFF00"/>
<path d="M141.228 59.0327H134.808V65.4521H141.228V59.0327Z" fill="#FFFF00"/>
<path d="M89.8715 33.3552H83.4521V39.7746H89.8715V33.3552Z" fill="#FF0000"/>
<path d="M115.549 30.1455H109.13V36.5649H115.549V30.1455Z" fill="#FF0000"/>
<path d="M141.228 33.3552H134.808V39.7746H141.228V33.3552Z" fill="#FF0000"/>
<path d="M70.6132 23.7261H64.1938V30.1455H70.6132V23.7261Z" fill="#FF0000"/>
<path d="M44.936 26.9358H38.5166V33.3552H44.936V26.9358Z" fill="#FF0000"/>
<path d="M19.2583 23.7261H12.8389V30.1455H19.2583V23.7261Z" fill="#FF0000"/>
<path d="M19.2583 75.0813H12.8389V81.5007H19.2583V75.0813Z" fill="#0096FF"/>
<path d="M44.936 78.291H38.5166V84.7104H44.936V78.291Z" fill="#0096FF"/>
<path d="M70.6132 75.0813H64.1938V81.5007H70.6132V75.0813Z" fill="#0096FF"/>
<path d="M96.291 78.291H89.8716V84.7104H96.291V78.291Z" fill="#0096FF"/>
<path d="M121.968 75.0813H115.549V81.5007H121.968V75.0813Z" fill="#0096FF"/>
<path d="M147.646 78.291H141.227V84.7104H147.646V78.291Z" fill="#0096FF"/>
<path d="M19.2583 49.4036H12.8389V55.823H19.2583V49.4036Z" fill="#FFFF00"/>
<path d="M44.936 52.6133H38.5166V59.0327H44.936V52.6133Z" fill="#FFFF00"/>
<path d="M70.6132 49.4036H64.1938V55.823H70.6132V49.4036Z" fill="#FFFF00"/>
<path d="M96.291 52.6133H89.8716V59.0327H96.291V52.6133Z" fill="#FFFF00"/>
<path d="M121.968 49.4036H115.549V55.823H121.968V49.4036Z" fill="#FFFF00"/>
<path d="M147.646 52.6133H141.227V59.0327H147.646V52.6133Z" fill="#FFFF00"/>
<path d="M96.291 26.9358H89.8716V33.3552H96.291V26.9358Z" fill="#FF0000"/>
<path d="M121.968 23.7261H115.549V30.1455H121.968V23.7261Z" fill="#FF0000"/>
<path d="M147.646 26.9358H141.227V33.3552H147.646V26.9358Z" fill="#FF0000"/>
<path d="M70.6132 30.1455H64.1938V36.5649H70.6132V30.1455Z" fill="#FF0000"/>
<path d="M44.936 33.3552H38.5166V39.7746H44.936V33.3552Z" fill="#FF0000"/>
<path d="M19.2583 30.1455H12.8389V36.5649H19.2583V30.1455Z" fill="#FF0000"/>
<path d="M19.2583 81.5007H12.8389V87.9201H19.2583V81.5007Z" fill="#0096FF"/>
<path d="M44.936 84.7104H38.5166V91.1298H44.936V84.7104Z" fill="#0096FF"/>
<path d="M70.6132 81.5007H64.1938V87.9201H70.6132V81.5007Z" fill="#0096FF"/>
<path d="M96.291 84.7104H89.8716V91.1298H96.291V84.7104Z" fill="#0096FF"/>
<path d="M121.968 81.5007H115.549V87.9201H121.968V81.5007Z" fill="#0096FF"/>
<path d="M147.646 84.7104H141.227V91.1298H147.646V84.7104Z" fill="#0096FF"/>
<path d="M19.2583 55.823H12.8389V62.2424H19.2583V55.823Z" fill="#FFFF00"/>
<path d="M44.936 59.0327H38.5166V65.4521H44.936V59.0327Z" fill="#FFFF00"/>
<path d="M70.6132 55.823H64.1938V62.2424H70.6132V55.823Z" fill="#FFFF00"/>
<path d="M96.291 59.0327H89.8716V65.4521H96.291V59.0327Z" fill="#FFFF00"/>
<path d="M121.968 55.823H115.549V62.2424H121.968V55.823Z" fill="#FFFF00"/>
<path d="M147.646 59.0327H141.227V65.4521H147.646V59.0327Z" fill="#FFFF00"/>
<path d="M96.291 33.3552H89.8716V39.7746H96.291V33.3552Z" fill="#FF0000"/>
<path d="M121.968 30.1455H115.549V36.5649H121.968V30.1455Z" fill="#FF0000"/>
<path d="M147.646 33.3552H141.227V39.7746H147.646V33.3552Z" fill="#FF0000"/>
<path d="M77.0327 23.7261H70.6133V30.1455H77.0327V23.7261Z" fill="#FF0000"/>
<path d="M51.3554 26.9358H44.936V33.3552H51.3554V26.9358Z" fill="#FF0000"/>
<path d="M25.6777 23.7261H19.2583V30.1455H25.6777V23.7261Z" fill="#FF0000"/>
<path d="M25.6777 75.0813H19.2583V81.5007H25.6777V75.0813Z" fill="#0096FF"/>
<path d="M51.3554 78.291H44.936V84.7104H51.3554V78.291Z" fill="#0096FF"/>
<path d="M77.0327 75.0813H70.6133V81.5007H77.0327V75.0813Z" fill="#0096FF"/>
<path d="M102.71 78.291H96.291V84.7104H102.71V78.291Z" fill="#0096FF"/>
<path d="M128.389 75.0813H121.969V81.5007H128.389V75.0813Z" fill="#0096FF"/>
<path d="M154.065 78.291H147.646V84.7104H154.065V78.291Z" fill="#0096FF"/>
<path d="M25.6777 49.4036H19.2583V55.823H25.6777V49.4036Z" fill="#FFFF00"/>
<path d="M51.3554 52.6133H44.936V59.0327H51.3554V52.6133Z" fill="#FFFF00"/>
<path d="M77.0327 49.4036H70.6133V55.823H77.0327V49.4036Z" fill="#FFFF00"/>
<path d="M102.71 52.6133H96.291V59.0327H102.71V52.6133Z" fill="#FFFF00"/>
<path d="M128.389 49.4036H121.969V55.823H128.389V49.4036Z" fill="#FFFF00"/>
<path d="M154.065 52.6133H147.646V59.0327H154.065V52.6133Z" fill="#FFFF00"/>
<path d="M102.71 26.9358H96.291V33.3552H102.71V26.9358Z" fill="#FF0000"/>
<path d="M128.389 23.7261H121.969V30.1455H128.389V23.7261Z" fill="#FF0000"/>
<path d="M154.065 26.9358H147.646V33.3552H154.065V26.9358Z" fill="#FF0000"/>
<path d="M77.0327 30.1455H70.6133V36.5649H77.0327V30.1455Z" fill="#FF0000"/>
<path d="M51.3554 33.3552H44.936V39.7746H51.3554V33.3552Z" fill="#FF0000"/>
<path d="M25.6777 30.1455H19.2583V36.5649H25.6777V30.1455Z" fill="#FF0000"/>
<path d="M25.6777 81.5007H19.2583V87.9201H25.6777V81.5007Z" fill="#0096FF"/>
<path d="M51.3554 84.7104H44.936V91.1298H51.3554V84.7104Z" fill="#0096FF"/>
<path d="M77.0327 81.5007H70.6133V87.9201H77.0327V81.5007Z" fill="#0096FF"/>
<path d="M102.71 84.7104H96.291V91.1298H102.71V84.7104Z" fill="#0096FF"/>
<path d="M128.389 81.5007H121.969V87.9201H128.389V81.5007Z" fill="#0096FF"/>
<path d="M154.065 84.7104H147.646V91.1298H154.065V84.7104Z" fill="#0096FF"/>
<path d="M25.6777 55.823H19.2583V62.2424H25.6777V55.823Z" fill="#FFFF00"/>
<path d="M51.3554 59.0327H44.936V65.4521H51.3554V59.0327Z" fill="#FFFF00"/>
<path d="M77.0327 55.823H70.6133V62.2424H77.0327V55.823Z" fill="#FFFF00"/>
<path d="M102.71 59.0327H96.291V65.4521H102.71V59.0327Z" fill="#FFFF00"/>
<path d="M128.389 55.823H121.969V62.2424H128.389V55.823Z" fill="#FFFF00"/>
<path d="M154.065 59.0327H147.646V65.4521H154.065V59.0327Z" fill="#FFFF00"/>
<path d="M102.71 33.3552H96.291V39.7746H102.71V33.3552Z" fill="#FF0000"/>
<path d="M128.389 30.1455H121.969V36.5649H128.389V30.1455Z" fill="#FF0000"/>
<path d="M154.065 33.3552H147.646V39.7746H154.065V33.3552Z" fill="#FF0000"/>
<path d="M108.862 46.729H102.443V53.1484H108.862V46.729Z" fill="black"/>
<path d="M108.862 53.1482H102.443V59.5676H108.862V53.1482Z" fill="black"/>
<path d="M108.862 59.5676H102.443V65.987H108.862V59.5676Z" fill="black"/>
<path d="M115.281 59.5676H108.862V65.987H115.281V59.5676Z" fill="black"/>
<path d="M115.281 65.9871H108.862V72.4065H115.281V65.9871Z" fill="black"/>
<path d="M121.702 65.9871H115.282V72.4065H121.702V65.9871Z" fill="black"/>
<path d="M121.702 72.4065H115.282V78.8259H121.702V72.4065Z" fill="black"/>
<path d="M128.121 72.4065H121.701V78.8259H128.121V72.4065Z" fill="black"/>
<path d="M134.54 72.4065H128.121V78.8259H134.54V72.4065Z" fill="black"/>
<path d="M140.959 72.4065H134.54V78.8259H140.959V72.4065Z" fill="black"/>
<path d="M140.959 78.8259H134.54V85.2453H140.959V78.8259Z" fill="black"/>
<path d="M115.281 46.729H108.862V53.1484H115.281V46.729Z" fill="black"/>
<path d="M121.702 46.729H115.282V53.1484H121.702V46.729Z" fill="black"/>
<path d="M128.121 46.729H121.701V53.1484H128.121V46.729Z" fill="black"/>
<path d="M128.121 53.1482H121.701V59.5676H128.121V53.1482Z" fill="black"/>
<path d="M134.54 53.1482H128.121V59.5676H134.54V53.1482Z" fill="black"/>
<path d="M134.54 59.5676H128.121V65.987H134.54V59.5676Z" fill="black"/>
<path d="M140.959 59.5676H134.54V65.987H140.959V59.5676Z" fill="black"/>
<path d="M115.281 53.1482H108.862V59.5676H115.281V53.1482Z" fill="#C4C4C4"/>
<path d="M121.702 53.1482H115.282V59.5676H121.702V53.1482Z" fill="#C4C4C4"/>
<path d="M121.702 59.5676H115.282V65.987H121.702V59.5676Z" fill="#C4C4C4"/>
<path d="M128.121 59.5676H121.701V65.987H128.121V59.5676Z" fill="#C4C4C4"/>
<path d="M128.121 65.9871H121.701V72.4065H128.121V65.9871Z" fill="#C4C4C4"/>
<path d="M140.959 65.9871H134.54V72.4065H140.959V65.9871Z" fill="#C4C4C4"/>
<path d="M134.54 65.9871H128.121V72.4065H134.54V65.9871Z" fill="#C4C4C4"/>
<path d="M153.798 17.3066H147.379V23.726H153.798V17.3066Z" fill="black"/>
<path d="M147.378 23.7261H140.959V30.1455H147.378V23.7261Z" fill="black"/>
<path d="M256.508 23.7261H250.089V30.1455H256.508V23.7261Z" fill="black"/>
<path d="M147.378 36.5649H140.959V42.9843H147.378V36.5649Z" fill="black"/>
<path d="M256.508 36.5649H250.089V42.9843H256.508V36.5649Z" fill="black"/>
<path d="M147.378 49.4036H140.959V55.823H147.378V49.4036Z" fill="black"/>
<path d="M256.508 49.4036H250.089V55.823H256.508V49.4036Z" fill="black"/>
<path d="M147.378 62.2424H140.959V68.6618H147.378V62.2424Z" fill="black"/>
<path d="M256.508 62.2424H250.089V68.6618H256.508V62.2424Z" fill="black"/>
<path d="M147.378 75.0813H140.959V81.5007H147.378V75.0813Z" fill="black"/>
<path d="M256.508 75.0813H250.089V81.5007H256.508V75.0813Z" fill="black"/>
<path d="M147.378 87.9199H140.959V94.3393H147.378V87.9199Z" fill="black"/>
<path d="M256.508 87.9199H250.089V94.3393H256.508V87.9199Z" fill="black"/>
<path d="M147.378 30.1455H140.959V36.5649H147.378V30.1455Z" fill="black"/>
<path d="M256.508 30.1455H250.089V36.5649H256.508V30.1455Z" fill="black"/>
<path d="M147.378 42.9841H140.959V49.4035H147.378V42.9841Z" fill="black"/>
<path d="M256.508 42.9841H250.089V49.4035H256.508V42.9841Z" fill="black"/>
<path d="M147.378 55.823H140.959V62.2424H147.378V55.823Z" fill="black"/>
<path d="M256.508 55.823H250.089V62.2424H256.508V55.823Z" fill="black"/>
<path d="M147.378 68.6619H140.959V75.0813H147.378V68.6619Z" fill="black"/>
<path d="M256.508 68.6619H250.089V75.0813H256.508V68.6619Z" fill="black"/>
<path d="M147.378 81.5007H140.959V87.9201H147.378V81.5007Z" fill="black"/>
<path d="M256.508 81.5007H250.089V87.9201H256.508V81.5007Z" fill="black"/>
<path d="M153.798 94.3394H147.379V100.759H153.798V94.3394Z" fill="black"/>
<path d="M205.153 10.8872H198.734V17.3066H205.153V10.8872Z" fill="black"/>
<path d="M205.153 100.759H198.734V107.178H205.153V100.759Z" fill="black"/>
<path d="M160.217 10.8872H153.798V17.3066H160.217V10.8872Z" fill="black"/>
<path d="M160.217 100.759H153.798V107.178H160.217V100.759Z" fill="black"/>
<path d="M211.572 10.8872H205.153V17.3066H211.572V10.8872Z" fill="black"/>
<path d="M211.572 100.759H205.153V107.178H211.572V100.759Z" fill="black"/>
<path d="M166.636 10.8872H160.217V17.3066H166.636V10.8872Z" fill="black"/>
<path d="M166.636 100.759H160.217V107.178H166.636V100.759Z" fill="black"/>
<path d="M217.993 10.8872H211.573V17.3066H217.993V10.8872Z" fill="black"/>
<path d="M217.993 100.759H211.573V107.178H217.993V100.759Z" fill="black"/>
<path d="M173.057 10.8872H166.637V17.3066H173.057V10.8872Z" fill="black"/>
<path d="M173.057 100.759H166.637V107.178H173.057V100.759Z" fill="black"/>
<path d="M224.412 10.8872H217.992V17.3066H224.412V10.8872Z" fill="black"/>
<path d="M224.412 100.759H217.992V107.178H224.412V100.759Z" fill="black"/>
<path d="M179.476 10.8872H173.056V17.3066H179.476V10.8872Z" fill="black"/>
<path d="M179.476 100.759H173.056V107.178H179.476V100.759Z" fill="black"/>
<path d="M230.832 10.8872H224.412V17.3066H230.832V10.8872Z" fill="black"/>
<path d="M230.832 100.759H224.412V107.178H230.832V100.759Z" fill="black"/>
<path d="M185.895 10.8872H179.476V17.3066H185.895V10.8872Z" fill="black"/>
<path d="M185.895 100.759H179.476V107.178H185.895V100.759Z" fill="black"/>
<path d="M237.25 10.8872H230.831V17.3066H237.25V10.8872Z" fill="black"/>
<path d="M237.25 100.759H230.831V107.178H237.25V100.759Z" fill="black"/>
<path d="M192.314 10.8872H185.895V17.3066H192.314V10.8872Z" fill="black"/>
<path d="M192.314 100.759H185.895V107.178H192.314V100.759Z" fill="black"/>
<path d="M243.669 10.8872H237.25V17.3066H243.669V10.8872Z" fill="black"/>
<path d="M243.669 100.759H237.25V107.178H243.669V100.759Z" fill="black"/>
<path d="M198.733 10.8872H192.314V17.3066H198.733V10.8872Z" fill="black"/>
<path d="M198.733 100.759H192.314V107.178H198.733V100.759Z" fill="black"/>
<path d="M250.089 17.3066H243.67V23.726H250.089V17.3066Z" fill="black"/>
<path d="M250.089 94.3394H243.67V100.759H250.089V94.3394Z" fill="black"/>
<path d="M153.798 23.7261H147.379V30.1455H153.798V23.7261Z" fill="#F4D87F"/>
<path d="M160.217 23.7261H153.798V30.1455H160.217V23.7261Z" fill="#F4D87F"/>
<path d="M160.217 30.1455H153.798V36.5649H160.217V30.1455Z" fill="#F4D87F"/>
<path d="M166.636 23.7261H160.217V30.1455H166.636V23.7261Z" fill="#F4D87F"/>
<path d="M160.217 17.3066H153.798V23.726H160.217V17.3066Z" fill="#F4D87F"/>
<path d="M185.895 17.3066H179.476V23.726H185.895V17.3066Z" fill="#F4D87F"/>
<path d="M211.572 17.3066H205.153V23.726H211.572V17.3066Z" fill="#F4D87F"/>
<path d="M173.057 17.3066H166.637V23.726H173.057V17.3066Z" fill="#F4D87F"/>
<path d="M198.733 17.3066H192.314V23.726H198.733V17.3066Z" fill="#F4D87F"/>
<path d="M224.412 17.3066H217.992V23.726H224.412V17.3066Z" fill="#F4D87F"/>
<path d="M237.25 17.3066H230.831V23.726H237.25V17.3066Z" fill="#F4D87F"/>
<path d="M166.636 17.3066H160.217V23.726H166.636V17.3066Z" fill="#F4D87F"/>
<path d="M192.314 17.3066H185.895V23.726H192.314V17.3066Z" fill="#F4D87F"/>
<path d="M217.993 17.3066H211.573V23.726H217.993V17.3066Z" fill="#F4D87F"/>
<path d="M179.476 17.3066H173.056V23.726H179.476V17.3066Z" fill="#F4D87F"/>
<path d="M205.153 17.3066H198.734V23.726H205.153V17.3066Z" fill="#F4D87F"/>
<path d="M230.832 17.3066H224.412V23.726H230.832V17.3066Z" fill="#F4D87F"/>
<path d="M243.669 17.3066H237.25V23.726H243.669V17.3066Z" fill="#F4D87F"/>
<path d="M243.669 23.7261H237.25V30.1455H243.669V23.7261Z" fill="#F4D87F"/>
<path d="M243.669 30.1455H237.25V36.5649H243.669V30.1455Z" fill="#F4D87F"/>
<path d="M250.089 30.1455H243.67V36.5649H250.089V30.1455Z" fill="#F4D87F"/>
<path d="M250.089 42.9841H243.67V49.4035H250.089V42.9841Z" fill="#F4D87F"/>
<path d="M250.089 62.2424H243.67V68.6618H250.089V62.2424Z" fill="#F4D87F"/>
<path d="M250.089 36.5649H243.67V42.9843H250.089V36.5649Z" fill="#F4D87F"/>
<path d="M250.089 55.823H243.67V62.2424H250.089V55.823Z" fill="#F4D87F"/>
<path d="M250.089 49.4036H243.67V55.823H250.089V49.4036Z" fill="#F4D87F"/>
<path d="M250.089 68.6619H243.67V75.0813H250.089V68.6619Z" fill="#F4D87F"/>
<path d="M250.089 75.0813H243.67V81.5007H250.089V75.0813Z" fill="#F4D87F"/>
<path d="M250.089 23.7261H243.67V30.1455H250.089V23.7261Z" fill="#F4D87F"/>
<path d="M237.25 23.7261H230.831V30.1455H237.25V23.7261Z" fill="#F4D87F"/>
<path d="M153.798 49.4036H147.379V55.823H153.798V49.4036Z" fill="#F4D87F"/>
<path d="M153.798 75.0813H147.379V81.5007H153.798V75.0813Z" fill="#F4D87F"/>
<path d="M153.798 36.5649H147.379V42.9843H153.798V36.5649Z" fill="#F4D87F"/>
<path d="M153.798 62.2424H147.379V68.6618H153.798V62.2424Z" fill="#F4D87F"/>
<path d="M153.798 87.9199H147.379V94.3393H153.798V87.9199Z" fill="#F4D87F"/>
<path d="M153.798 30.1455H147.379V36.5649H153.798V30.1455Z" fill="#F4D87F"/>
<path d="M153.798 55.823H147.379V62.2424H153.798V55.823Z" fill="#F4D87F"/>
<path d="M153.798 81.5007H147.379V87.9201H153.798V81.5007Z" fill="#F4D87F"/>
<path d="M160.217 81.5007H153.798V87.9201H160.217V81.5007Z" fill="#F4D87F"/>
<path d="M250.089 81.5007H243.67V87.9201H250.089V81.5007Z" fill="#F4D87F"/>
<path d="M243.669 81.5007H237.25V87.9201H243.669V81.5007Z" fill="#F4D87F"/>
<path d="M250.089 87.9199H243.67V94.3393H250.089V87.9199Z" fill="#F4D87F"/>
<path d="M243.669 87.9199H237.25V94.3393H243.669V87.9199Z" fill="#F4D87F"/>
<path d="M237.25 87.9199H230.831V94.3393H237.25V87.9199Z" fill="#F4D87F"/>
<path d="M243.669 94.3394H237.25V100.759H243.669V94.3394Z" fill="#F4D87F"/>
<path d="M237.25 94.3394H230.831V100.759H237.25V94.3394Z" fill="#F4D87F"/>
<path d="M160.217 87.9199H153.798V94.3393H160.217V87.9199Z" fill="#F4D87F"/>
<path d="M166.636 87.9199H160.217V94.3393H166.636V87.9199Z" fill="#F4D87F"/>
<path d="M160.217 94.3394H153.798V100.759H160.217V94.3394Z" fill="#F4D87F"/>
<path d="M179.476 94.3394H173.056V100.759H179.476V94.3394Z" fill="#F4D87F"/>
<path d="M198.733 94.3394H192.314V100.759H198.733V94.3394Z" fill="#F4D87F"/>
<path d="M217.993 94.3394H211.573V100.759H217.993V94.3394Z" fill="#F4D87F"/>
<path d="M166.636 94.3394H160.217V100.759H166.636V94.3394Z" fill="#F4D87F"/>
<path d="M185.895 94.3394H179.476V100.759H185.895V94.3394Z" fill="#F4D87F"/>
<path d="M205.153 94.3394H198.734V100.759H205.153V94.3394Z" fill="#F4D87F"/>
<path d="M224.412 94.3394H217.992V100.759H224.412V94.3394Z" fill="#F4D87F"/>
<path d="M173.057 94.3394H166.637V100.759H173.057V94.3394Z" fill="#F4D87F"/>
<path d="M192.314 94.3394H185.895V100.759H192.314V94.3394Z" fill="#F4D87F"/>
<path d="M211.572 94.3394H205.153V100.759H211.572V94.3394Z" fill="#F4D87F"/>
<path d="M230.832 94.3394H224.412V100.759H230.832V94.3394Z" fill="#F4D87F"/>
<path d="M153.798 42.9841H147.379V49.4035H153.798V42.9841Z" fill="#F4D87F"/>
<path d="M153.798 68.6619H147.379V75.0813H153.798V68.6619Z" fill="#F4D87F"/>
<path d="M173.057 23.7261H166.637V30.1455H173.057V23.7261Z" fill="#FFAED7"/>
<path d="M198.733 23.7261H192.314V30.1455H198.733V23.7261Z" fill="#FFAED7"/>
<path d="M166.636 30.1455H160.217V36.5649H166.636V30.1455Z" fill="#FFAED7"/>
<path d="M192.314 30.1455H185.895V36.5649H192.314V30.1455Z" fill="#D74894"/>
<path d="M217.993 30.1455H211.573V36.5649H217.993V30.1455Z" fill="#FFAED7"/>
<path d="M160.217 36.5649H153.798V42.9843H160.217V36.5649Z" fill="#FFAED7"/>
<path d="M185.895 36.5649H179.476V42.9843H185.895V36.5649Z" fill="#FFAED7"/>
<path d="M211.572 36.5649H205.153V42.9843H211.572V36.5649Z" fill="#FFAED7"/>
<path d="M160.217 42.9841H153.798V49.4035H160.217V42.9841Z" fill="#FFAED7"/>
<path d="M160.217 49.4036H153.798V55.823H160.217V49.4036Z" fill="#FFAED7"/>
<path d="M160.217 55.823H153.798V62.2424H160.217V55.823Z" fill="#FFAED7"/>
<path d="M160.217 62.2424H153.798V68.6618H160.217V62.2424Z" fill="#FFAED7"/>
<path d="M160.217 68.6619H153.798V75.0813H160.217V68.6619Z" fill="#FFAED7"/>
<path d="M160.217 75.0813H153.798V81.5007H160.217V75.0813Z" fill="#FFAED7"/>
<path d="M166.636 81.5007H160.217V87.9201H166.636V81.5007Z" fill="#FFAED7"/>
<path d="M173.057 87.9199H166.637V94.3393H173.057V87.9199Z" fill="#FFAED7"/>
<path d="M198.733 87.9199H192.314V94.3393H198.733V87.9199Z" fill="#FFAED7"/>
<path d="M192.314 81.5007H185.895V87.9201H192.314V81.5007Z" fill="#FFAED7"/>
<path d="M217.993 81.5007H211.573V87.9201H217.993V81.5007Z" fill="#FFAED7"/>
<path d="M185.895 75.0813H179.476V81.5007H185.895V75.0813Z" fill="#FFAED7"/>
<path d="M185.895 68.6619H179.476V75.0813H185.895V68.6619Z" fill="#FFAED7"/>
<path d="M185.895 62.2424H179.476V68.6618H185.895V62.2424Z" fill="#FFAED7"/>
<path d="M185.895 55.823H179.476V62.2424H185.895V55.823Z" fill="#FFAED7"/>
<path d="M185.895 49.4036H179.476V55.823H185.895V49.4036Z" fill="#FFAED7"/>
<path d="M185.895 42.9841H179.476V49.4035H185.895V42.9841Z" fill="#FFAED7"/>
<path d="M211.572 42.9841H205.153V49.4035H211.572V42.9841Z" fill="#FFAED7"/>
<path d="M211.572 49.4036H205.153V55.823H211.572V49.4036Z" fill="#FFAED7"/>
<path d="M211.572 55.823H205.153V62.2424H211.572V55.823Z" fill="#FFAED7"/>
<path d="M211.572 62.2424H205.153V68.6618H211.572V62.2424Z" fill="#FFAED7"/>
<path d="M211.572 68.6619H205.153V75.0813H211.572V68.6619Z" fill="#FFAED7"/>
<path d="M211.572 75.0813H205.153V81.5007H211.572V75.0813Z" fill="#FFAED7"/>
<path d="M185.895 23.7261H179.476V30.1455H185.895V23.7261Z" fill="#FFAED7"/>
<path d="M211.572 23.7261H205.153V30.1455H211.572V23.7261Z" fill="#FFAED7"/>
<path d="M179.476 30.1455H173.056V36.5649H179.476V30.1455Z" fill="#FFAED7"/>
<path d="M205.153 30.1455H198.734V36.5649H205.153V30.1455Z" fill="#FFAED7"/>
<path d="M230.832 30.1455H224.412V36.5649H230.832V30.1455Z" fill="#FFAED7"/>
<path d="M224.412 23.7261H217.992V30.1455H224.412V23.7261Z" fill="#FFAED7"/>
<path d="M173.057 36.5649H166.637V42.9843H173.057V36.5649Z" fill="#D74894"/>
<path d="M198.733 36.5649H192.314V42.9843H198.733V36.5649Z" fill="#FFAED7"/>
<path d="M224.412 36.5649H217.992V42.9843H224.412V36.5649Z" fill="#FFAED7"/>
<path d="M237.25 36.5649H230.831V42.9843H237.25V36.5649Z" fill="#FFAED7"/>
<path d="M173.057 42.9841H166.637V49.4035H173.057V42.9841Z" fill="#FFAED7"/>
<path d="M173.057 49.4036H166.637V55.823H173.057V49.4036Z" fill="#FFAED7"/>
<path d="M173.057 55.823H166.637V62.2424H173.057V55.823Z" fill="#FFAED7"/>
<path d="M173.057 62.2424H166.637V68.6618H173.057V62.2424Z" fill="#FFAED7"/>
<path d="M173.057 68.6619H166.637V75.0813H173.057V68.6619Z" fill="#FFAED7"/>
<path d="M173.057 75.0813H166.637V81.5007H173.057V75.0813Z" fill="#FFAED7"/>
<path d="M179.476 81.5007H173.056V87.9201H179.476V81.5007Z" fill="#FFAED7"/>
<path d="M185.895 87.9199H179.476V94.3393H185.895V87.9199Z" fill="#FFAED7"/>
<path d="M211.572 87.9199H205.153V94.3393H211.572V87.9199Z" fill="#FFAED7"/>
<path d="M205.153 81.5007H198.734V87.9201H205.153V81.5007Z" fill="#FFAED7"/>
<path d="M230.832 81.5007H224.412V87.9201H230.832V81.5007Z" fill="#FFAED7"/>
<path d="M198.733 75.0813H192.314V81.5007H198.733V75.0813Z" fill="#FFAED7"/>
<path d="M198.733 68.6619H192.314V75.0813H198.733V68.6619Z" fill="#FFAED7"/>
<path d="M198.733 62.2424H192.314V68.6618H198.733V62.2424Z" fill="#FFAED7"/>
<path d="M198.733 55.823H192.314V62.2424H198.733V55.823Z" fill="#D74894"/>
<path d="M198.733 49.4036H192.314V55.823H198.733V49.4036Z" fill="#FFAED7"/>
<path d="M198.733 42.9841H192.314V49.4035H198.733V42.9841Z" fill="#FFAED7"/>
<path d="M224.412 42.9841H217.992V49.4035H224.412V42.9841Z" fill="#D74894"/>
<path d="M237.25 42.9841H230.831V49.4035H237.25V42.9841Z" fill="#FFAED7"/>
<path d="M224.412 49.4036H217.992V55.823H224.412V49.4036Z" fill="#FFAED7"/>
<path d="M237.25 49.4036H230.831V55.823H237.25V49.4036Z" fill="#FFAED7"/>
<path d="M224.412 55.823H217.992V62.2424H224.412V55.823Z" fill="#FFAED7"/>
<path d="M237.25 55.823H230.831V62.2424H237.25V55.823Z" fill="#FFAED7"/>
<path d="M224.412 62.2424H217.992V68.6618H224.412V62.2424Z" fill="#FFAED7"/>
<path d="M237.25 62.2424H230.831V68.6618H237.25V62.2424Z" fill="#FFAED7"/>
<path d="M224.412 68.6619H217.992V75.0813H224.412V68.6619Z" fill="#FFAED7"/>
<path d="M237.25 68.6619H230.831V75.0813H237.25V68.6619Z" fill="#FFAED7"/>
<path d="M224.412 75.0813H217.992V81.5007H224.412V75.0813Z" fill="#FFAED7"/>
<path d="M237.25 75.0813H230.831V81.5007H237.25V75.0813Z" fill="#FFAED7"/>
<path d="M224.412 87.9199H217.992V94.3393H224.412V87.9199Z" fill="#FFAED7"/>
<path d="M179.476 23.7261H173.056V30.1455H179.476V23.7261Z" fill="#FFAED7"/>
<path d="M205.153 23.7261H198.734V30.1455H205.153V23.7261Z" fill="#FFAED7"/>
<path d="M173.057 30.1455H166.637V36.5649H173.057V30.1455Z" fill="#FFAED7"/>
<path d="M198.733 30.1455H192.314V36.5649H198.733V30.1455Z" fill="#FFAED7"/>
<path d="M224.412 30.1455H217.992V36.5649H224.412V30.1455Z" fill="#FFAED7"/>
<path d="M166.636 36.5649H160.217V42.9843H166.636V36.5649Z" fill="#FFAED7"/>
<path d="M192.314 36.5649H185.895V42.9843H192.314V36.5649Z" fill="#FFAED7"/>
<path d="M217.993 36.5649H211.573V42.9843H217.993V36.5649Z" fill="#FFAED7"/>
<path d="M166.636 42.9841H160.217V49.4035H166.636V42.9841Z" fill="#FFAED7"/>
<path d="M166.636 49.4036H160.217V55.823H166.636V49.4036Z" fill="#FFAED7"/>
<path d="M166.636 55.823H160.217V62.2424H166.636V55.823Z" fill="#D74894"/>
<path d="M166.636 62.2424H160.217V68.6618H166.636V62.2424Z" fill="#FFAED7"/>
<path d="M166.636 68.6619H160.217V75.0813H166.636V68.6619Z" fill="#FFAED7"/>
<path d="M166.636 75.0813H160.217V81.5007H166.636V75.0813Z" fill="#D74894"/>
<path d="M173.057 81.5007H166.637V87.9201H173.057V81.5007Z" fill="#FFAED7"/>
<path d="M179.476 87.9199H173.056V94.3393H179.476V87.9199Z" fill="#FFAED7"/>
<path d="M205.153 87.9199H198.734V94.3393H205.153V87.9199Z" fill="#FFAED7"/>
<path d="M198.733 81.5007H192.314V87.9201H198.733V81.5007Z" fill="#FFAED7"/>
<path d="M224.412 81.5007H217.992V87.9201H224.412V81.5007Z" fill="#FFAED7"/>
<path d="M192.314 75.0813H185.895V81.5007H192.314V75.0813Z" fill="#FFAED7"/>
<path d="M192.314 68.6619H185.895V75.0813H192.314V68.6619Z" fill="#FFAED7"/>
<path d="M192.314 62.2424H185.895V68.6618H192.314V62.2424Z" fill="#FFAED7"/>
<path d="M192.314 55.823H185.895V62.2424H192.314V55.823Z" fill="#FFAED7"/>
<path d="M192.314 49.4036H185.895V55.823H192.314V49.4036Z" fill="#FFAED7"/>
<path d="M192.314 42.9841H185.895V49.4035H192.314V42.9841Z" fill="#FFAED7"/>
<path d="M217.993 42.9841H211.573V49.4035H217.993V42.9841Z" fill="#FFAED7"/>
<path d="M217.993 49.4036H211.573V55.823H217.993V49.4036Z" fill="#FFAED7"/>
<path d="M217.993 55.823H211.573V62.2424H217.993V55.823Z" fill="#FFAED7"/>
<path d="M217.993 62.2424H211.573V68.6618H217.993V62.2424Z" fill="#D74894"/>
<path d="M217.993 68.6619H211.573V75.0813H217.993V68.6619Z" fill="#FFAED7"/>
<path d="M217.993 75.0813H211.573V81.5007H217.993V75.0813Z" fill="#FFAED7"/>
<path d="M192.314 23.7261H185.895V30.1455H192.314V23.7261Z" fill="#FFAED7"/>
<path d="M217.993 23.7261H211.573V30.1455H217.993V23.7261Z" fill="#FFAED7"/>
<path d="M185.895 30.1455H179.476V36.5649H185.895V30.1455Z" fill="#FFAED7"/>
<path d="M211.572 30.1455H205.153V36.5649H211.572V30.1455Z" fill="#D74894"/>
<path d="M237.25 30.1455H230.831V36.5649H237.25V30.1455Z" fill="#FFAED7"/>
<path d="M230.832 23.7261H224.412V30.1455H230.832V23.7261Z" fill="#FFAED7"/>
<path d="M179.476 36.5649H173.056V42.9843H179.476V36.5649Z" fill="#FFAED7"/>
<path d="M205.153 36.5649H198.734V42.9843H205.153V36.5649Z" fill="#FFAED7"/>
<path d="M230.832 36.5649H224.412V42.9843H230.832V36.5649Z" fill="#FFAED7"/>
<path d="M243.669 36.5649H237.25V42.9843H243.669V36.5649Z" fill="#FFAED7"/>
<path d="M179.476 42.9841H173.056V49.4035H179.476V42.9841Z" fill="#FFAED7"/>
<path d="M179.476 49.4036H173.056V55.823H179.476V49.4036Z" fill="#FFAED7"/>
<path d="M179.476 55.823H173.056V62.2424H179.476V55.823Z" fill="#FFAED7"/>
<path d="M179.476 62.2424H173.056V68.6618H179.476V62.2424Z" fill="#D74894"/>
<path d="M179.476 68.6619H173.056V75.0813H179.476V68.6619Z" fill="#FFAED7"/>
<path d="M179.476 75.0813H173.056V81.5007H179.476V75.0813Z" fill="#FFAED7"/>
<path d="M185.895 81.5007H179.476V87.9201H185.895V81.5007Z" fill="#D74894"/>
<path d="M192.314 87.9199H185.895V94.3393H192.314V87.9199Z" fill="#FFAED7"/>
<path d="M217.993 87.9199H211.573V94.3393H217.993V87.9199Z" fill="#FFAED7"/>
<path d="M211.572 81.5007H205.153V87.9201H211.572V81.5007Z" fill="#D74894"/>
<path d="M237.25 81.5007H230.831V87.9201H237.25V81.5007Z" fill="#FFAED7"/>
<path d="M205.153 75.0813H198.734V81.5007H205.153V75.0813Z" fill="#FFAED7"/>
<path d="M205.153 68.6619H198.734V75.0813H205.153V68.6619Z" fill="#FFAED7"/>
<path d="M205.153 62.2424H198.734V68.6618H205.153V62.2424Z" fill="#FFAED7"/>
<path d="M205.153 55.823H198.734V62.2424H205.153V55.823Z" fill="#FFAED7"/>
<path d="M205.153 49.4036H198.734V55.823H205.153V49.4036Z" fill="#FFAED7"/>
<path d="M205.153 42.9841H198.734V49.4035H205.153V42.9841Z" fill="#FFAED7"/>
<path d="M230.832 42.9841H224.412V49.4035H230.832V42.9841Z" fill="#FFAED7"/>
<path d="M243.669 42.9841H237.25V49.4035H243.669V42.9841Z" fill="#FFAED7"/>
<path d="M230.832 49.4036H224.412V55.823H230.832V49.4036Z" fill="#FFAED7"/>
<path d="M243.669 49.4036H237.25V55.823H243.669V49.4036Z" fill="#FFAED7"/>
<path d="M230.832 55.823H224.412V62.2424H230.832V55.823Z" fill="#FFAED7"/>
<path d="M243.669 55.823H237.25V62.2424H243.669V55.823Z" fill="#FFAED7"/>
<path d="M230.832 62.2424H224.412V68.6618H230.832V62.2424Z" fill="#FFAED7"/>
<path d="M243.669 62.2424H237.25V68.6618H243.669V62.2424Z" fill="#FFAED7"/>
<path d="M230.832 68.6619H224.412V75.0813H230.832V68.6619Z" fill="#D74894"/>
<path d="M243.669 68.6619H237.25V75.0813H243.669V68.6619Z" fill="#FFAED7"/>
<path d="M230.832 75.0813H224.412V81.5007H230.832V75.0813Z" fill="#FFAED7"/>
<path d="M243.669 75.0813H237.25V81.5007H243.669V75.0813Z" fill="#FFAED7"/>
<path d="M230.832 87.9199H224.412V94.3393H230.832V87.9199Z" fill="#FFAED7"/>
<path d="M198.733 28.8081H192.314V35.2275H198.733V28.8081Z" fill="#C4C4C4"/>
<path d="M198.733 41.647H192.314V48.0664H198.733V41.647Z" fill="#C4C4C4"/>
<path d="M192.314 54.4856H185.895V60.905H192.314V54.4856Z" fill="#C4C4C4"/>
<path d="M192.314 67.3245H185.895V73.7439H192.314V67.3245Z" fill="#C4C4C4"/>
<path d="M205.153 54.4856H198.734V60.905H205.153V54.4856Z" fill="#C4C4C4"/>
<path d="M205.153 28.8081H198.734V35.2275H205.153V28.8081Z" fill="#C4C4C4"/>
<path d="M205.153 41.647H198.734V48.0664H205.153V41.647Z" fill="#C4C4C4"/>
<path d="M198.733 54.4856H192.314V60.905H198.733V54.4856Z" fill="#C4C4C4"/>
<path d="M211.572 54.4856H205.153V60.905H211.572V54.4856Z" fill="#C4C4C4"/>
<path d="M211.572 73.7439H205.153V80.1633H211.572V73.7439Z" fill="#C4C4C4"/>
<path d="M217.993 73.7439H211.573V80.1633H217.993V73.7439Z" fill="#C4C4C4"/>
<path d="M211.572 48.0662H205.153V54.4856H211.572V48.0662Z" fill="#C4C4C4"/>
<path d="M211.572 67.3245H205.153V73.7439H211.572V67.3245Z" fill="#C4C4C4"/>
<path d="M224.412 67.3245H217.992V73.7439H224.412V67.3245Z" fill="#C4C4C4"/>
<path d="M237.25 67.3245H230.831V73.7439H237.25V67.3245Z" fill="#C4C4C4"/>
<path d="M237.25 73.7439H230.831V80.1633H237.25V73.7439Z" fill="#C4C4C4"/>
<path d="M250.089 67.3245H243.67V73.7439H250.089V67.3245Z" fill="#C4C4C4"/>
<path d="M250.089 73.7439H243.67V80.1633H250.089V73.7439Z" fill="#C4C4C4"/>
<path d="M262.927 67.3245H256.508V73.7439H262.927V67.3245Z" fill="#C4C4C4"/>
<path d="M262.927 73.7439H256.508V80.1633H262.927V73.7439Z" fill="#C4C4C4"/>
<path d="M262.927 80.1633H256.508V86.5827H262.927V80.1633Z" fill="#C4C4C4"/>
<path d="M269.348 80.1633H262.928V86.5827H269.348V80.1633Z" fill="#C4C4C4"/>
<path d="M217.993 67.3245H211.573V73.7439H217.993V67.3245Z" fill="#C4C4C4"/>
<path d="M230.832 67.3245H224.412V73.7439H230.832V67.3245Z" fill="#C4C4C4"/>
<path d="M243.669 67.3245H237.25V73.7439H243.669V67.3245Z" fill="#C4C4C4"/>
<path d="M256.508 67.3245H250.089V73.7439H256.508V67.3245Z" fill="#C4C4C4"/>
<path d="M250.089 60.905H243.67V67.3244H250.089V60.905Z" fill="#C4C4C4"/>
<path d="M237.25 60.905H230.831V67.3244H237.25V60.905Z" fill="#C4C4C4"/>
<path d="M230.832 60.905H224.412V67.3244H230.832V60.905Z" fill="#C4C4C4"/>
<path d="M230.832 73.7439H224.412V80.1633H230.832V73.7439Z" fill="#C4C4C4"/>
<path d="M243.669 48.0662H237.25V54.4856H243.669V48.0662Z" fill="#C4C4C4"/>
<path d="M243.669 54.4856H237.25V60.905H243.669V54.4856Z" fill="#C4C4C4"/>
<path d="M217.993 48.0662H211.573V54.4856H217.993V48.0662Z" fill="#C4C4C4"/>
<path d="M250.089 48.0662H243.67V54.4856H250.089V48.0662Z" fill="#C4C4C4"/>
<path d="M250.089 54.4856H243.67V60.905H250.089V54.4856Z" fill="#C4C4C4"/>
<path d="M250.089 41.647H243.67V48.0664H250.089V41.647Z" fill="#C4C4C4"/>
<path d="M262.927 41.647H256.508V48.0664H262.927V41.647Z" fill="#C4C4C4"/>
<path d="M262.927 35.2275H256.508V41.6469H262.927V35.2275Z" fill="#C4C4C4"/>
<path d="M262.927 28.8081H256.508V35.2275H262.927V28.8081Z" fill="#C4C4C4"/>
<path d="M262.927 48.0662H256.508V54.4856H262.927V48.0662Z" fill="#C4C4C4"/>
<path d="M224.412 48.0662H217.992V54.4856H224.412V48.0662Z" fill="#C4C4C4"/>
<path d="M256.508 48.0662H250.089V54.4856H256.508V48.0662Z" fill="#C4C4C4"/>
<path d="M256.508 41.647H250.089V48.0664H256.508V41.647Z" fill="#C4C4C4"/>
<path d="M256.508 35.2275H250.089V41.6469H256.508V35.2275Z" fill="#C4C4C4"/>
<path d="M269.348 41.647H262.928V48.0664H269.348V41.647Z" fill="#C4C4C4"/>
<path d="M269.348 54.4856H262.928V60.905H269.348V54.4856Z" fill="#C4C4C4"/>
<path d="M275.767 54.4856H269.347V60.905H275.767V54.4856Z" fill="#C4C4C4"/>
<path d="M269.348 35.2275H262.928V41.6469H269.348V35.2275Z" fill="#C4C4C4"/>
<path d="M269.348 28.8081H262.928V35.2275H269.348V28.8081Z" fill="#C4C4C4"/>
<path d="M269.348 48.0662H262.928V54.4856H269.348V48.0662Z" fill="#C4C4C4"/>
<path d="M269.348 60.905H262.928V67.3244H269.348V60.905Z" fill="#C4C4C4"/>
<path d="M275.767 60.905H269.347V67.3244H275.767V60.905Z" fill="#C4C4C4"/>
<path d="M217.993 41.647H211.573V48.0664H217.993V41.647Z" fill="#C4C4C4"/>
<path d="M211.572 41.647H205.153V48.0664H211.572V41.647Z" fill="#C4C4C4"/>
<path d="M198.733 35.2275H192.314V41.6469H198.733V35.2275Z" fill="#C4C4C4"/>
<path d="M198.733 48.0662H192.314V54.4856H198.733V48.0662Z" fill="#C4C4C4"/>
<path d="M230.832 48.0662H224.412V54.4856H230.832V48.0662Z" fill="#C4C4C4"/>
<path d="M230.832 54.4856H224.412V60.905H230.832V54.4856Z" fill="#C4C4C4"/>
<path d="M192.314 60.905H185.895V67.3244H192.314V60.905Z" fill="#C4C4C4"/>
<path d="M192.314 73.7439H185.895V80.1633H192.314V73.7439Z" fill="#C4C4C4"/>
<path d="M205.153 60.905H198.734V67.3244H205.153V60.905Z" fill="#C4C4C4"/>
<path d="M211.572 35.2275H205.153V41.6469H211.572V35.2275Z" fill="#C4C4C4"/>
<path d="M205.153 35.2275H198.734V41.6469H205.153V35.2275Z" fill="#C4C4C4"/>
<path d="M205.153 48.0662H198.734V54.4856H205.153V48.0662Z" fill="#C4C4C4"/>
<path d="M237.25 48.0662H230.831V54.4856H237.25V48.0662Z" fill="#C4C4C4"/>
<path d="M237.25 54.4856H230.831V60.905H237.25V54.4856Z" fill="#C4C4C4"/>
<path d="M198.733 60.905H192.314V67.3244H198.733V60.905Z" fill="#C4C4C4"/>
<path d="M211.572 60.905H205.153V67.3244H211.572V60.905Z" fill="#C4C4C4"/>
<path d="M211.572 80.1633H205.153V86.5827H211.572V80.1633Z" fill="#C4C4C4"/>
<path d="M198.733 80.1633H192.314V86.5827H198.733V80.1633Z" fill="#C4C4C4"/>
<path d="M205.153 86.5828H198.734V93.0022H205.153V86.5828Z" fill="#C4C4C4"/>
<path d="M230.832 86.5828H224.412V93.0022H230.832V86.5828Z" fill="#C4C4C4"/>
<path d="M217.993 86.5828H211.573V93.0022H217.993V86.5828Z" fill="#C4C4C4"/>
<path d="M243.669 86.5828H237.25V93.0022H243.669V86.5828Z" fill="#C4C4C4"/>
<path d="M256.508 86.5828H250.089V93.0022H256.508V86.5828Z" fill="#C4C4C4"/>
<path d="M217.993 80.1633H211.573V86.5827H217.993V80.1633Z" fill="#C4C4C4"/>
<path d="M205.153 80.1633H198.734V86.5827H205.153V80.1633Z" fill="#C4C4C4"/>
<path d="M211.572 86.5828H205.153V93.0022H211.572V86.5828Z" fill="#C4C4C4"/>
<path d="M237.25 86.5828H230.831V93.0022H237.25V86.5828Z" fill="#C4C4C4"/>
<path d="M224.412 86.5828H217.992V93.0022H224.412V86.5828Z" fill="#C4C4C4"/>
<path d="M250.089 86.5828H243.67V93.0022H250.089V86.5828Z" fill="#C4C4C4"/>
<path d="M262.927 86.5828H256.508V93.0022H262.927V86.5828Z" fill="#C4C4C4"/>
<path d="M192.314 28.8081H185.895V35.2275H192.314V28.8081Z" fill="black"/>
<path d="M198.733 22.3887H192.314V28.8081H198.733V22.3887Z" fill="black"/>
<path d="M205.153 22.3887H198.734V28.8081H205.153V22.3887Z" fill="black"/>
<path d="M211.572 28.8081H205.153V35.2275H211.572V28.8081Z" fill="black"/>
<path d="M217.993 35.2275H211.573V41.6469H217.993V35.2275Z" fill="black"/>
<path d="M224.412 41.647H217.992V48.0664H224.412V41.647Z" fill="black"/>
<path d="M230.832 41.647H224.412V48.0664H230.832V41.647Z" fill="black"/>
<path d="M237.25 41.647H230.831V48.0664H237.25V41.647Z" fill="black"/>
<path d="M243.669 41.647H237.25V48.0664H243.669V41.647Z" fill="black"/>
<path d="M250.089 35.2275H243.67V41.6469H250.089V35.2275Z" fill="black"/>
<path d="M256.508 28.8081H250.089V35.2275H256.508V28.8081Z" fill="black"/>
<path d="M262.927 22.3887H256.508V28.8081H262.927V22.3887Z" fill="black"/>
<path d="M269.348 22.3887H262.928V28.8081H269.348V22.3887Z" fill="black"/>
<path d="M275.767 28.8081H269.347V35.2275H275.767V28.8081Z" fill="black"/>
<path d="M275.767 35.2275H269.347V41.6469H275.767V35.2275Z" fill="black"/>
<path d="M275.767 41.647H269.347V48.0664H275.767V41.647Z" fill="black"/>
<path d="M275.767 48.0662H269.347V54.4856H275.767V48.0662Z" fill="black"/>
<path d="M192.314 35.2275H185.895V41.6469H192.314V35.2275Z" fill="black"/>
<path d="M192.314 41.647H185.895V48.0664H192.314V41.647Z" fill="black"/>
<path d="M192.314 48.0662H185.895V54.4856H192.314V48.0662Z" fill="black"/>
<path d="M185.895 54.4856H179.476V60.905H185.895V54.4856Z" fill="black"/>
<path d="M185.895 60.905H179.476V67.3244H185.895V60.905Z" fill="black"/>
<path d="M185.895 67.3245H179.476V73.7439H185.895V67.3245Z" fill="black"/>
<path d="M185.895 73.7439H179.476V80.1633H185.895V73.7439Z" fill="black"/>
<path d="M192.314 80.1633H185.895V86.5827H192.314V80.1633Z" fill="black"/>
<path d="M198.733 86.5828H192.314V93.0022H198.733V86.5828Z" fill="black"/>
<path d="M205.153 93.002H198.734V99.4214H205.153V93.002Z" fill="black"/>
<path d="M211.572 93.002H205.153V99.4214H211.572V93.002Z" fill="black"/>
<path d="M217.993 93.002H211.573V99.4214H217.993V93.002Z" fill="black"/>
<path d="M224.412 93.002H217.992V99.4214H224.412V93.002Z" fill="black"/>
<path d="M230.832 93.002H224.412V99.4214H230.832V93.002Z" fill="black"/>
<path d="M237.25 93.002H230.831V99.4214H237.25V93.002Z" fill="black"/>
<path d="M243.669 93.002H237.25V99.4214H243.669V93.002Z" fill="black"/>
<path d="M243.669 60.905H237.25V67.3244H243.669V60.905Z" fill="black"/>
<path d="M224.412 73.7439H217.992V80.1633H224.412V73.7439Z" fill="black"/>
<path d="M224.412 80.1633H217.992V86.5827H224.412V80.1633Z" fill="black"/>
<path d="M230.832 80.1633H224.412V86.5827H230.832V80.1633Z" fill="black"/>
<path d="M237.25 80.1633H230.831V86.5827H237.25V80.1633Z" fill="black"/>
<path d="M243.669 80.1633H237.25V86.5827H243.669V80.1633Z" fill="black"/>
<path d="M250.089 80.1633H243.67V86.5827H250.089V80.1633Z" fill="black"/>
<path d="M256.508 80.1633H250.089V86.5827H256.508V80.1633Z" fill="black"/>
<path d="M256.508 73.7439H250.089V80.1633H256.508V73.7439Z" fill="black"/>
<path d="M243.669 73.7439H237.25V80.1633H243.669V73.7439Z" fill="black"/>
<path d="M262.927 60.905H256.508V67.3244H262.927V60.905Z" fill="black"/>
<path d="M224.412 60.905H217.992V67.3244H224.412V60.905Z" fill="black"/>
<path d="M256.508 60.905H250.089V67.3244H256.508V60.905Z" fill="black"/>
<path d="M217.993 60.905H211.573V67.3244H217.993V60.905Z" fill="black"/>
<path d="M262.927 54.4856H256.508V60.905H262.927V54.4856Z" fill="black"/>
<path d="M224.412 54.4856H217.992V60.905H224.412V54.4856Z" fill="black"/>
<path d="M256.508 54.4856H250.089V60.905H256.508V54.4856Z" fill="white"/>
<path d="M217.993 54.4856H211.573V60.905H217.993V54.4856Z" fill="white"/>
<path d="M198.733 73.7439H192.314V80.1633H198.733V73.7439Z" fill="#FFAED7"/>
<path d="M269.348 73.7439H262.928V80.1633H269.348V73.7439Z" fill="#FFAED7"/>
<path d="M205.153 73.7439H198.734V80.1633H205.153V73.7439Z" fill="#FFAED7"/>
<path d="M275.767 73.7439H269.347V80.1633H275.767V73.7439Z" fill="#FFAED7"/>
<path d="M205.153 67.3245H198.734V73.7439H205.153V67.3245Z" fill="#FFAED7"/>
<path d="M275.767 67.3245H269.347V73.7439H275.767V67.3245Z" fill="#FFAED7"/>
<path d="M198.733 67.3245H192.314V73.7439H198.733V67.3245Z" fill="#FFAED7"/>
<path d="M269.348 67.3245H262.928V73.7439H269.348V67.3245Z" fill="#FFAED7"/>
<path d="M250.089 93.002H243.67V99.4214H250.089V93.002Z" fill="black"/>
<path d="M256.508 93.002H250.089V99.4214H256.508V93.002Z" fill="black"/>
<path d="M269.348 86.5828H262.928V93.0022H269.348V86.5828Z" fill="black"/>
<path d="M262.927 93.002H256.508V99.4214H262.927V93.002Z" fill="black"/>
<path d="M275.767 80.1633H269.347V86.5827H275.767V80.1633Z" fill="black"/>
<path d="M282.186 73.7439H275.767V80.1633H282.186V73.7439Z" fill="black"/>
<path d="M282.186 67.3245H275.767V73.7439H282.186V67.3245Z" fill="black"/>
<path d="M282.186 60.905H275.767V67.3244H282.186V60.905Z" fill="black"/>
<path d="M282.186 54.4856H275.767V60.905H282.186V54.4856Z" fill="black"/>
</svg>
