<svg width="84" height="84" viewBox="0 0 84 84" fill="none" xmlns="http://www.w3.org/2000/svg">
<g filter="url(#filter0_d_603_9539)">
<g clip-path="url(#clip0_603_9539)">
<rect x="10" y="5" width="64" height="65" fill="#6A3E9C"/>
</g>
<rect x="7" y="3" width="70" height="70" rx="15" stroke="#56327E" stroke-width="6" shape-rendering="crispEdges"/>
</g>
<rect x="33.1538" y="22.6667" width="3.53846" height="3.83333" fill="black"/>
<rect x="33.1538" y="18.8333" width="3.53846" height="3.83333" fill="black"/>
<rect x="36.6924" y="15" width="3.53846" height="3.83333" fill="black"/>
<rect x="40.231" y="15" width="3.53846" height="3.83333" fill="black"/>
<rect x="50.8462" y="26.5" width="3.53846" height="3.83333" fill="black"/>
<rect x="19" y="34.1667" width="3.53846" height="3.83333" fill="black"/>
<rect x="61.4619" y="34.1667" width="3.53846" height="3.83333" fill="black"/>
<rect x="22.5381" y="38" width="3.53846" height="3.83333" fill="black"/>
<rect x="43.769" y="22.6667" width="3.53846" height="3.83333" fill="white"/>
<rect x="43.769" y="53.3333" width="3.53846" height="3.83333" fill="black"/>
<rect x="43.769" y="15" width="3.53846" height="3.83333" fill="black"/>
<rect x="57.9229" y="38" width="3.53846" height="3.83333" fill="black"/>
<rect x="22.5381" y="53.3333" width="3.53846" height="3.83333" fill="black"/>
<rect width="3.53846" height="3.83333" transform="matrix(-1 0 0 1 61.4619 53.3333)" fill="black"/>
<rect x="22.5381" y="57.1667" width="14.1538" height="3.83333" fill="black"/>
<rect width="7.07692" height="3.83333" transform="matrix(-1 0 0 1 54.3848 57.1667)" fill="black"/>
<rect x="26.0771" y="41.8333" width="3.53846" height="3.83333" fill="black"/>
<rect x="54.3848" y="41.8333" width="3.53846" height="3.83333" fill="black"/>
<rect x="26.0771" y="49.5" width="3.53846" height="3.83333" fill="black"/>
<rect width="3.53846" height="3.83333" transform="matrix(-1 0 0 1 57.9229 49.5)" fill="black"/>
<rect x="36.6924" y="53.3333" width="7.07692" height="3.83333" fill="black"/>
<rect x="29.6152" y="41.8333" width="3.53846" height="7.66667" fill="black"/>
<rect width="3.53846" height="7.66667" transform="matrix(-1 0 0 1 54.3848 41.8333)" fill="black"/>
<rect x="47.3076" y="18.8333" width="3.53846" height="7.66667" fill="black"/>
<rect x="19" y="30.3333" width="14.1538" height="3.83333" fill="black"/>
<rect x="54.3848" y="57.1667" width="3.53846" height="3.83333" fill="#EDD398"/>
<rect x="22.5381" y="34.1667" width="38.9231" height="3.83333" fill="#EDD398"/>
<rect x="26.0771" y="38" width="31.8462" height="3.83333" fill="#EDD398"/>
<rect x="36.6924" y="41.8333" width="14.1538" height="11.5" fill="#EDD398"/>
<rect x="29.6152" y="49.5" width="7.07692" height="7.66667" fill="#EDD398"/>
<rect x="26.0771" y="53.3333" width="3.53846" height="4.21667" fill="#EDD398"/>
<rect x="26.0771" y="57.1667" width="3.53846" height="3.83333" fill="#EDD398"/>
<rect x="22.5381" y="57.1667" width="3.53846" height="3.83333" fill="#EDD398"/>
<rect x="57.9229" y="57.1667" width="3.53846" height="3.83333" fill="#EDD398"/>
<rect x="54.3848" y="53.3333" width="3.53846" height="3.83333" fill="#EDD398"/>
<rect x="50.8462" y="49.5" width="3.53846" height="3.83333" fill="#EDD398"/>
<rect x="50.8462" y="53.3333" width="3.53846" height="3.83333" fill="#EDD398"/>
<rect x="47.3076" y="53.3333" width="3.53846" height="3.83333" fill="#EDD398"/>
<rect x="33.1538" y="26.5" width="17.6923" height="23" fill="#EDD398"/>
<rect x="36.6924" y="18.8333" width="10.6154" height="11.5" fill="#EDD398"/>
<rect x="50.8462" y="30.3333" width="14.1538" height="3.83333" fill="black"/>
<rect x="29.6152" y="26.5" width="3.53846" height="3.83333" fill="black"/>
<rect x="36.6924" y="34.1667" width="3.53846" height="7.66667" fill="black"/>
<rect x="43.769" y="34.1667" width="3.53846" height="7.66667" fill="black"/>
<rect x="51.0234" y="57.1667" width="10.4385" height="3.83333" fill="black"/>
<rect x="22.5381" y="57.1667" width="7.07692" height="3.83333" fill="black"/>
<defs>
<filter id="filter0_d_603_9539" x="0" y="0" width="84" height="84" filterUnits="userSpaceOnUse" color-interpolation-filters="sRGB">
<feFlood flood-opacity="0" result="BackgroundImageFix"/>
<feColorMatrix in="SourceAlpha" type="matrix" values="0 0 0 0 0 0 0 0 0 0 0 0 0 0 0 0 0 0 127 0" result="hardAlpha"/>
<feOffset dy="4"/>
<feGaussianBlur stdDeviation="2"/>
<feComposite in2="hardAlpha" operator="out"/>
<feColorMatrix type="matrix" values="0 0 0 0 0 0 0 0 0 0 0 0 0 0 0 0 0 0 0.25 0"/>
<feBlend mode="normal" in2="BackgroundImageFix" result="effect1_dropShadow_603_9539"/>
<feBlend mode="normal" in="SourceGraphic" in2="effect1_dropShadow_603_9539" result="shape"/>
</filter>
<clipPath id="clip0_603_9539">
<rect x="10" y="6" width="64" height="64" rx="12" fill="white"/>
</clipPath>
</defs>
</svg>
