<svg width="24" height="24" viewBox="0 0 24 24" fill="none" xmlns="http://www.w3.org/2000/svg">
<path d="M7.0283 6.93516L6.54253 6.81675L7.0283 6.93516ZM16.8721 6.52637L16.3863 6.64478L16.8721 6.52637ZM7.12795 6.52637L6.64217 6.40796L7.12795 6.52637ZM9.07106 5.5H14.9289V4.5H9.07106V5.5ZM7.51408 7.05357L7.61373 6.64478L6.64217 6.40796L6.54253 6.81675L7.51408 7.05357ZM5 8.96153H5.08519V7.96153H5V8.96153ZM3.5 18V10.4615H2.5V18H3.5ZM19 19.5H5V20.5H19V19.5ZM20.5 10.4615V18H21.5V10.4615H20.5ZM18.9148 8.96153H19V7.96153H18.9148V8.96153ZM16.3863 6.64478L16.4859 7.05357L17.4575 6.81675L17.3578 6.40796L16.3863 6.64478ZM18.9148 7.96153C18.2232 7.96153 17.6213 7.48868 17.4575 6.81675L16.4859 7.05357C16.7589 8.17344 17.7621 8.96153 18.9148 8.96153V7.96153ZM21.5 10.4615C21.5 9.08081 20.3807 7.96153 19 7.96153V8.96153C19.8284 8.96153 20.5 9.6331 20.5 10.4615H21.5ZM19 20.5C20.3807 20.5 21.5 19.3807 21.5 18H20.5C20.5 18.8284 19.8284 19.5 19 19.5V20.5ZM2.5 18C2.5 19.3807 3.61929 20.5 5 20.5V19.5C4.17157 19.5 3.5 18.8284 3.5 18H2.5ZM5 7.96153C3.61929 7.96153 2.5 9.08082 2.5 10.4615H3.5C3.5 9.6331 4.17157 8.96153 5 8.96153V7.96153ZM6.54253 6.81675C6.37875 7.48868 5.77679 7.96153 5.08519 7.96153V8.96153C6.23786 8.96153 7.24111 8.17344 7.51408 7.05357L6.54253 6.81675ZM14.9289 5.5C15.6205 5.5 16.2225 5.97285 16.3863 6.64478L17.3578 6.40796C17.0849 5.28809 16.0816 4.5 14.9289 4.5V5.5ZM9.07106 4.5C7.91839 4.5 6.91514 5.28809 6.64217 6.40796L7.61373 6.64478C7.77751 5.97285 8.37946 5.5 9.07106 5.5V4.5Z" fill="black"/>
<path d="M15.5 13.4646C15.5 15.3976 13.933 16.9646 12 16.9646C10.067 16.9646 8.5 15.3976 8.5 13.4646C8.5 11.5316 10.067 9.9646 12 9.9646C13.933 9.9646 15.5 11.5316 15.5 13.4646Z" stroke="black" stroke-linecap="round" stroke-linejoin="round"/>
</svg>
