<svg width="24" height="24" viewBox="0 0 24 24" fill="none" xmlns="http://www.w3.org/2000/svg">
<path d="M11.3415 3.57619L4.3415 9.70119C4.12448 9.89108 4 10.1654 4 10.4538V20C4 20.5523 4.44772 21 5 21H9.4C9.45523 21 9.5 20.9552 9.5 20.9V15.5C9.5 14.9477 9.94772 14.5 10.5 14.5H12H13.5C14.0523 14.5 14.5 14.9477 14.5 15.5V20.9C14.5 20.9552 14.5448 21 14.6 21H19C19.5523 21 20 20.5523 20 20V10.4538C20 10.1654 19.8755 9.89108 19.6585 9.70119L12.6585 3.57619C12.2815 3.24629 11.7185 3.24629 11.3415 3.57619Z" stroke="black" stroke-linecap="round"/>
</svg>
