<svg width="120" height="120" viewBox="0 0 120 120" fill="none" xmlns="http://www.w3.org/2000/svg">
<path d="M78 92.0094V16C78 15.4477 77.5523 15 77 15H48H19C18.4477 15 18 15.4477 18 16V92.6425C18 93.5252 19.0603 93.975 19.695 93.3615L23.3594 89.8193C23.7245 89.4663 24.2962 89.4431 24.6888 89.7652L29.3656 93.6031C29.7344 93.9057 30.2656 93.9057 30.6344 93.6031L35.3656 89.7206C35.7344 89.4179 36.2656 89.4179 36.6344 89.7206L41.3656 93.6031C41.7344 93.9057 42.2656 93.9057 42.6344 93.6031L47.3656 89.7206C47.7344 89.4179 48.2656 89.4179 48.6344 89.7206L53.3656 93.6031C53.7344 93.9057 54.2656 93.9057 54.6344 93.6031L59.3657 89.7206C59.7344 89.4179 60.2656 89.4179 60.6344 89.7206L65.3656 93.6031C65.7344 93.9057 66.2656 93.9057 66.6344 93.6031L71.3657 89.7206C71.7344 89.4179 72.2656 89.4179 72.6344 89.7206L76.3656 92.7825C77.0183 93.318 78 92.8537 78 92.0094Z" stroke="#969696" stroke-width="2.5"/>
<path d="M88 91L95.5 98.5L103 106" stroke="#969696" stroke-width="2.5" stroke-linecap="round"/>
<path d="M29 27H56.5" stroke="#969696" stroke-width="2.5" stroke-linecap="round"/>
<path d="M29 36H46.5" stroke="#969696" stroke-width="2.5" stroke-linecap="round"/>
<path d="M29 54H41.5" stroke="#969696" stroke-width="2.5" stroke-linecap="round"/>
<path d="M29 45H51.5" stroke="#969696" stroke-width="2.5" stroke-linecap="round"/>
<circle cx="73" cy="71" r="25" fill="white" stroke="#969696" stroke-width="2.5"/>
<path d="M68 66C68 63.5 69.9614 61 73 61C76.0386 61 78 63.5 78 66C78 68.0087 76.3861 70.0173 74.4551 72.026C73.536 72.9819 73 74.245 73 75.5711V76" stroke="#969696" stroke-width="2.5" stroke-linecap="round"/>
<circle cx="73" cy="82.25" r="1.25" fill="#969696"/>
<path d="M34.4722 72.651C34.4722 72.243 34.1889 71.8803 33.6222 71.563V73.824C33.8602 73.7107 34.0585 73.5463 34.2172 73.331C34.3872 73.1157 34.4722 72.889 34.4722 72.651ZM31.4972 65.902C31.0779 66.1173 30.8682 66.4177 30.8682 66.803C30.8682 67.177 31.1005 67.5283 31.5652 67.857C31.5312 66.7577 31.5085 66.106 31.4972 65.902ZM31.5652 73.96L31.5992 70.39C30.7152 69.8913 30.0692 69.455 29.6612 69.081C29.2532 68.6957 28.9642 68.333 28.7942 67.993C28.6355 67.6417 28.5562 67.2733 28.5562 66.888C28.5562 66.174 28.8225 65.5393 29.3552 64.984C29.8992 64.4173 30.5962 64.0377 31.4462 63.845C31.5142 62.859 31.8995 62.366 32.6022 62.366C33.3162 62.366 33.7072 62.8533 33.7752 63.828C34.4779 63.9753 35.0615 64.219 35.5262 64.559C36.0022 64.8877 36.2402 65.2333 36.2402 65.596C36.2402 65.9587 36.1495 66.2307 35.9682 66.412C35.7869 66.5933 35.5829 66.684 35.3562 66.684C35.1295 66.684 34.9255 66.65 34.7442 66.582C34.5629 66.514 34.3645 66.4233 34.1492 66.31C33.9339 66.1967 33.7922 66.1287 33.7242 66.106C33.7015 66.6953 33.6902 67.67 33.6902 69.03C35.2769 69.8913 36.2515 70.7073 36.6142 71.478C36.7842 71.8407 36.8692 72.2317 36.8692 72.651C36.8692 73.4443 36.5859 74.147 36.0192 74.759C35.4639 75.371 34.7215 75.7903 33.7922 76.017C33.7242 77.071 33.3332 77.598 32.6192 77.598C31.9165 77.598 31.5312 77.105 31.4632 76.119C30.5792 75.9603 29.8029 75.6487 29.1342 75.184C28.4769 74.7193 28.1482 74.2717 28.1482 73.841C28.1482 73.535 28.2445 73.2857 28.4372 73.093C28.6299 72.889 28.8679 72.787 29.1512 72.787C29.4459 72.787 29.8255 72.9627 30.2902 73.314C30.7662 73.654 31.1912 73.8693 31.5652 73.96Z" fill="#969696"/>
</svg>
