<svg width="24" height="24" viewBox="0 0 24 24" fill="none" xmlns="http://www.w3.org/2000/svg">
<path d="M6.15625 9.88462C6.15625 6.91078 8.56702 4.5 11.5409 4.5H12.4591C15.433 4.5 17.8438 6.91078 17.8438 9.88462V9.88462V11.8558C17.8438 12.6089 18.0138 13.3522 18.3413 14.0303L19.807 17.0651C20.1277 17.7291 19.6439 18.5 18.9065 18.5H5.09347C4.35608 18.5 3.8723 17.7291 4.19299 17.0651L5.65866 14.0303C5.98615 13.3522 6.15625 12.6089 6.15625 11.8558V9.88462V9.88462Z" fill="#0A84FF" stroke="#0A84FF"/>
<path d="M12 21.5C13.7438 21.5 14.5373 20.4442 14.8409 19.4833C15.0073 18.9567 14.5523 18.5 14 18.5H10C9.44772 18.5 8.99274 18.9567 9.15911 19.4833C9.46271 20.4442 10.2562 21.5 12 21.5Z" fill="#0A84FF" stroke="#0A84FF" stroke-linecap="round"/>
<path d="M12 2.5C10.8 2.5 10.5 3.5 10.5 4H13.5C13.5 3.5 13.2 2.5 12 2.5Z" fill="#0A84FF" stroke="#0A84FF" stroke-linecap="round"/>
</svg>
