<svg width="22" height="24" viewBox="0 0 22 24" fill="none" xmlns="http://www.w3.org/2000/svg">
<path d="M4.75 0.750126C4.75 0.750126 1 0.750142 1 3.25012C1 6.25012 1 17.0001 1 20.7501M4.75 0.750126H20.875C20.944 0.750126 21 0.80609 21 0.875126V18.2501M4.75 0.750126V18.2501M1 20.7501C1 22.0001 2.25 23.2501 4.75 23.2501C7.72104 23.2501 16.6585 23.2501 20.878 23.2501C20.947 23.2501 21 23.1942 21 23.1251V18.2501M1 20.7501C1 18.7501 3.5 18.2501 4.75 18.2501M4.75 18.2501H21" stroke="white"/>
<path d="M7.25 20.25C6.97386 20.25 6.75 20.4739 6.75 20.75C6.75 21.0261 6.97386 21.25 7.25 21.25V20.25ZM21 20.25L7.25 20.25V21.25L21 21.25V20.25Z" fill="white"/>
<path d="M10.375 13.25V10.75C10.101 10.5897 7.875 9.99973 7.875 8.5C7.875 6.625 9.5954 6.11859 10.4174 6.27885C10.4174 5.63782 10.9106 3.875 12.8836 3.875C14.8565 3.875 15.3497 5.63782 15.3497 6.27885C16.0347 6.11859 17.875 6.625 17.875 8.5C17.875 10.0732 15.8075 10.5897 15.375 10.75V13.25M10.375 13.25V15.125H15.375V13.25M10.375 13.25H15.375" stroke="white"/>
</svg>
