<svg width="24" height="24" viewBox="0 0 24 24" fill="none" xmlns="http://www.w3.org/2000/svg">
<path d="M12 4.54286L11.7062 4.13826C11.5767 4.23232 11.5 4.38275 11.5 4.54286C11.5 4.70297 11.5767 4.85339 11.7062 4.94746L12 4.54286ZM17.1745 6.24326L17.4726 5.84188L17.4726 5.84188L17.1745 6.24326ZM20.2104 10.6417L20.6922 10.5083L20.6922 10.5083L20.2104 10.6417ZM19.853 15.9204L20.3127 16.117L20.3127 16.117L19.853 15.9204ZM16.25 19.8976L16.4939 20.334L16.4939 20.334L16.25 19.8976ZM5.9896 18.5899L6.33737 18.2307L5.9896 18.5899ZM3.57273 13.8455L4.06817 13.7781L4.06817 13.7781L3.57273 13.8455ZM14.4188 3.4046C14.6422 3.24236 14.6918 2.92969 14.5296 2.70623C14.3674 2.48278 14.0547 2.43315 13.8312 2.59539L14.4188 3.4046ZM13.8312 6.49032C14.0547 6.65256 14.3674 6.60293 14.5296 6.37948C14.6918 6.15602 14.6422 5.84335 14.4188 5.68111L13.8312 6.49032ZM4.49811 10.087C4.59697 9.82916 4.46809 9.54 4.21025 9.44114C3.95241 9.34228 3.66325 9.47116 3.56439 9.729L4.49811 10.087ZM12 5.04286C13.7651 5.04286 15.4792 5.60679 16.8763 6.64464L17.4726 5.84188C15.9008 4.67432 13.9772 4.04286 12 4.04286L12 5.04286ZM16.8763 6.64464C18.2732 7.68229 19.2745 9.13486 19.7285 10.7751L20.6922 10.5083C20.1777 8.64923 19.0447 7.00964 17.4726 5.84188L16.8763 6.64464ZM19.7285 10.7751C20.1824 12.4151 20.0648 14.1542 19.3933 15.7237L20.3127 16.117C21.0732 14.3395 21.2069 12.3677 20.6922 10.5083L19.7285 10.7751ZM19.3933 15.7237C18.7216 17.2935 17.5322 18.6082 16.0061 19.4611L16.4939 20.334C18.2088 19.3756 19.5522 17.8943 20.3127 16.117L19.3933 15.7237ZM16.0061 19.4611C14.4797 20.3142 12.7036 20.6566 10.9537 20.4336L10.8273 21.4256C12.7877 21.6754 14.7794 21.2923 16.4939 20.334L16.0061 19.4611ZM10.9537 20.4336C9.20395 20.2106 7.58158 19.4351 6.33737 18.2307L5.64183 18.9491C7.04381 20.3064 8.86685 21.1757 10.8273 21.4256L10.9537 20.4336ZM6.33737 18.2307C5.09343 17.0264 4.29703 15.461 4.06817 13.7781L3.07729 13.9128C3.33689 15.8217 4.23958 17.5917 5.64183 18.9491L6.33737 18.2307ZM13.8312 2.59539L11.7062 4.13826L12.2938 4.94746L14.4188 3.4046L13.8312 2.59539ZM14.4188 5.68111L12.2938 4.13825L11.7062 4.94746L13.8312 6.49032L14.4188 5.68111ZM4.06817 13.7781C3.89791 12.5262 4.04853 11.2596 4.49811 10.087L3.56439 9.729C3.05521 11.057 2.8842 12.493 3.07729 13.9128L4.06817 13.7781Z" fill="black"/>
<path d="M6 7H7.34647C7.39563 7 7.4375 7.03574 7.44523 7.08429L7.75 9M15.5455 16H8.94898C8.89982 16 8.85795 15.9643 8.85023 15.9157L8.54545 14M8.54545 14H15.4627C15.5107 14 15.552 13.9659 15.561 13.9188L16.4773 9.11875C16.4891 9.05712 16.4419 9 16.3791 9H7.75M8.54545 14L7.75 9" stroke="black" stroke-linecap="round"/>
<circle cx="9.75" cy="17.75" r="0.75" fill="black"/>
<circle cx="14.25" cy="17.75" r="0.75" fill="black"/>
</svg>
