<?xml version="1.0" standalone="no"?>
<!DOCTYPE svg PUBLIC "-//W3C//DTD SVG 20010904//EN"
 "http://www.w3.org/TR/2001/REC-SVG-20010904/DTD/svg10.dtd">
<svg version="1.0" xmlns="http://www.w3.org/2000/svg"
 width="755.000000pt" height="134.000000pt" viewBox="0 0 755.000000 134.000000"
 preserveAspectRatio="xMidYMid meet">

<g transform="translate(0.000000,134.000000) scale(0.100000,-0.100000)"
fill="#000000" stroke="none">
<path d="M460 1244 c-198 -42 -360 -191 -431 -394 -32 -93 -32 -267 0 -360 35
-99 78 -168 152 -241 176 -175 441 -217 665 -104 90 46 159 107 218 192 138
203 138 463 0 666 -135 197 -371 292 -604 241z m-8 -130 c-92 -64 -117 -164
-59 -240 40 -54 92 -93 259 -190 224 -132 268 -177 268 -281 0 -62 -34 -117
-100 -162 -58 -39 -78 -34 -50 12 25 41 25 101 0 141 -24 39 -73 75 -210 151
-242 134 -330 227 -330 349 0 105 75 200 189 241 44 16 66 2 33 -21z m298 -13
c98 -9 160 -41 160 -84 0 -20 -19 -20 -64 -2 -14 6 -17 4 -15 -10 3 -10 20
-24 43 -31 54 -19 66 -32 66 -68 0 -36 -31 -76 -59 -76 -18 0 -46 27 -74 73
-20 31 -57 37 -57 9 0 -11 7 -33 16 -51 14 -29 14 -34 0 -56 -12 -18 -25 -25
-49 -25 -73 0 -108 77 -88 190 12 65 11 72 -8 104 -29 46 -27 50 17 41 20 -4
71 -10 112 -14z m-516 -631 c39 -55 59 -62 77 -27 36 70 65 66 75 -13 9 -71
12 -73 77 -50 31 11 61 20 67 20 18 0 10 -45 -15 -82 -14 -20 -25 -40 -25 -43
0 -3 29 -20 65 -36 36 -16 65 -32 65 -34 0 -3 -12 -10 -27 -16 -34 -13 -150 4
-211 31 -61 27 -115 73 -151 127 -49 73 -72 173 -41 173 5 0 24 -22 44 -50z"/>
<path d="M2613 1055 c-44 -31 -35 -131 12 -149 89 -34 163 63 104 138 -24 30
-81 36 -116 11z"/>
<path d="M1538 1036 c-94 -35 -128 -81 -128 -172 0 -103 52 -165 200 -239 90
-45 128 -78 136 -119 20 -112 -117 -152 -265 -78 l-61 30 -11 -38 c-20 -65 3
-88 111 -116 140 -36 301 1 350 81 44 71 34 177 -22 240 -17 20 -71 56 -122
82 -50 26 -108 63 -128 81 -33 30 -38 40 -38 77 0 36 5 48 28 65 41 33 133 25
202 -18 28 -18 53 -32 56 -32 3 0 4 30 2 67 l-3 68 -40 14 c-59 20 -222 25
-267 7z"/>
<path d="M1970 1027 c0 -7 6 -19 13 -25 9 -10 13 -99 15 -357 l3 -345 69 0 70
0 0 195 0 195 26 16 c14 10 47 19 73 22 40 3 52 1 70 -17 20 -20 21 -31 21
-216 l0 -195 75 0 75 0 0 183 c0 193 -7 245 -37 286 -49 65 -176 86 -260 42
l-43 -21 0 125 0 125 -85 0 c-63 0 -85 -3 -85 -13z"/>
<path d="M3460 1036 c0 -2 7 -20 15 -39 12 -30 15 -96 15 -367 l0 -330 70 0
70 0 0 194 0 194 27 17 c39 26 107 31 138 11 l25 -16 0 -200 0 -200 75 0 75 0
0 188 c0 202 -7 245 -46 292 -51 60 -174 74 -252 29 -18 -10 -35 -19 -38 -19
-2 0 -4 56 -4 125 l0 125 -85 0 c-47 0 -85 -2 -85 -4z"/>
<path d="M5634 1026 c-142 -46 -224 -179 -224 -360 1 -181 62 -296 189 -354
109 -50 298 -37 372 25 33 28 35 42 14 83 l-15 30 -48 -25 c-153 -80 -300 -36
-347 105 -25 74 -18 238 13 296 61 118 204 146 331 64 26 -16 51 -30 54 -30 4
0 7 31 7 69 l0 69 -47 17 c-64 23 -243 30 -299 11z"/>
<path d="M7380 1031 c0 -5 7 -22 15 -37 15 -30 22 -184 8 -184 -5 0 -30 7 -58
16 -130 39 -264 -31 -306 -161 -16 -51 -16 -159 0 -210 51 -157 228 -224 341
-129 l30 26 0 -26 c0 -25 1 -26 70 -26 l70 0 0 370 0 370 -85 0 c-47 0 -85 -4
-85 -9z m-12 -311 l42 -19 0 -130 0 -130 -34 -26 c-45 -35 -92 -41 -135 -18
-51 27 -71 73 -71 163 0 91 20 137 70 162 45 23 75 22 128 -2z"/>
<path d="M3117 830 c-16 -5 -44 -20 -63 -35 l-34 -26 0 25 c0 26 -1 26 -78 26
-43 0 -82 -3 -85 -6 -3 -4 0 -16 8 -28 12 -16 15 -65 15 -253 l0 -233 70 0 70
0 0 194 0 194 34 21 c39 25 113 28 142 7 17 -13 19 -30 22 -215 l3 -201 70 0
69 0 0 199 c0 117 -4 211 -11 228 -13 34 -45 70 -80 88 -34 18 -117 26 -152
15z"/>
<path d="M4203 826 c-39 -8 -76 -17 -82 -21 -10 -6 -16 -125 -7 -125 2 0 33
13 68 30 82 39 148 41 183 5 15 -14 25 -36 25 -53 l0 -29 -96 -6 c-180 -11
-260 -87 -231 -222 25 -118 187 -161 295 -79 l32 25 0 -25 c0 -25 2 -26 70
-26 l70 0 0 199 c0 207 -5 238 -43 279 -48 52 -162 71 -284 48z m187 -340 c0
-40 -4 -48 -35 -72 -48 -37 -115 -44 -144 -15 -29 29 -27 76 4 106 21 22 33
25 100 25 l75 0 0 -44z"/>
<path d="M4887 830 c-16 -5 -44 -20 -63 -35 l-34 -26 0 25 c0 26 -1 26 -78 26
-43 0 -82 -3 -85 -6 -3 -4 0 -16 8 -28 12 -16 15 -65 15 -253 l0 -233 70 0 70
0 0 194 0 194 34 21 c39 25 113 28 142 7 17 -13 19 -30 22 -215 l3 -201 70 0
69 0 0 199 c0 117 -4 211 -11 228 -13 34 -45 70 -80 88 -34 18 -117 26 -152
15z"/>
<path d="M6240 830 c-30 -5 -68 -13 -83 -19 -25 -10 -27 -14 -27 -71 0 -33 2
-60 4 -60 2 0 33 13 68 30 111 53 192 36 204 -41 l6 -36 -93 -6 c-148 -8 -215
-47 -239 -137 -43 -161 144 -267 294 -165 l36 24 0 -24 c0 -24 2 -25 71 -25
l70 0 -3 214 c-3 198 -5 217 -24 243 -44 61 -164 92 -284 73z m170 -344 c0
-40 -4 -48 -35 -72 -48 -37 -115 -44 -144 -15 -29 29 -27 76 4 106 21 22 33
25 100 25 l75 0 0 -44z"/>
<path d="M6890 822 c-19 -9 -45 -32 -57 -51 l-23 -34 0 42 0 41 -79 0 c-44 0
-82 -4 -85 -9 -3 -4 1 -17 9 -27 12 -15 14 -65 15 -251 l0 -233 70 0 70 0 0
185 c0 183 0 186 24 210 31 31 64 39 109 27 20 -6 38 -7 41 -4 3 3 6 29 6 58
0 68 -29 82 -100 46z"/>
<path d="M2580 807 c0 -7 6 -19 13 -25 9 -10 13 -77 15 -247 l3 -235 70 0 69
0 0 260 0 260 -85 0 c-63 0 -85 -3 -85 -13z"/>
</g>
</svg>
